<?xml version="1.0" encoding="utf-8" standalone="no"?>
<!DOCTYPE svg PUBLIC "-//W3C//DTD SVG 1.1//EN"
  "http://www.w3.org/Graphics/SVG/1.1/DTD/svg11.dtd">
<svg xmlns:xlink="http://www.w3.org/1999/xlink" width="460.8pt" height="345.6pt" viewBox="0 0 460.8 345.6" xmlns="http://www.w3.org/2000/svg" version="1.1">
 <metadata>
  <rdf:RDF xmlns:dc="http://purl.org/dc/elements/1.1/" xmlns:cc="http://creativecommons.org/ns#" xmlns:rdf="http://www.w3.org/1999/02/22-rdf-syntax-ns#">
   <cc:Work>
    <dc:type rdf:resource="http://purl.org/dc/dcmitype/StillImage"/>
    <dc:date>2025-07-04T03:24:56.965486</dc:date>
    <dc:format>image/svg+xml</dc:format>
    <dc:creator>
     <cc:Agent>
      <dc:title>Matplotlib v3.9.4, https://matplotlib.org/</dc:title>
     </cc:Agent>
    </dc:creator>
   </cc:Work>
  </rdf:RDF>
 </metadata>
 <defs>
  <style type="text/css">*{stroke-linejoin: round; stroke-linecap: butt}</style>
 </defs>
 <g id="figure_1">
  <g id="patch_1">
   <path d="M 0 345.6 
L 460.8 345.6 
L 460.8 0 
L 0 0 
z
" style="fill: #ffffff"/>
  </g>
  <g id="axes_1">
   <g id="patch_2">
    <path d="M 57.6 307.584 
L 414.72 307.584 
L 414.72 41.472 
L 57.6 41.472 
z
" style="fill: #ffffff"/>
   </g>
   <g id="PolyCollection_1">
    <path d="M 73.832727 226.648735 
L 73.832727 245.982713 
L 74.34 255.858363 
L 74.847273 239.917465 
L 75.354545 247.66446 
L 75.861818 254.362807 
L 76.369091 247.392666 
L 76.876364 243.131128 
L 77.383636 238.382677 
L 77.890909 240.333842 
L 78.398182 248.258373 
L 78.905455 259.223817 
L 79.412727 259.71238 
L 79.92 250.05594 
L 80.427273 250.217292 
L 80.934545 255.660854 
L 81.441818 260.095106 
L 81.949091 281.086328 
L 82.456364 267.953148 
L 82.963636 255.228325 
L 83.470909 255.944971 
L 83.978182 268.107421 
L 84.485455 268.767537 
L 84.992727 272.373153 
L 85.5 272.698894 
L 86.007273 263.060189 
L 86.514545 262.201119 
L 87.021818 264.476509 
L 87.529091 275.076852 
L 88.036364 277.013562 
L 88.543636 278.155166 
L 89.050909 268.00929 
L 89.558182 253.85911 
L 90.065455 268.260638 
L 90.572727 261.532146 
L 91.08 260.009177 
L 91.587273 264.024041 
L 92.094545 278.078313 
L 92.601818 273.662185 
L 93.109091 273.887306 
L 93.616364 266.456852 
L 94.123636 273.072143 
L 94.630909 267.54849 
L 95.138182 260.345848 
L 95.645455 250.22518 
L 96.152727 249.615353 
L 96.66 259.403346 
L 97.167273 252.469937 
L 97.674545 247.52282 
L 98.181818 260.62046 
L 98.689091 274.364636 
L 99.196364 271.187116 
L 99.703636 246.608166 
L 100.210909 250.512812 
L 100.718182 254.939511 
L 101.225455 251.812234 
L 101.732727 252.475141 
L 102.24 250.885649 
L 102.747273 248.09584 
L 103.254545 252.913441 
L 103.761818 241.542072 
L 104.269091 226.603236 
L 104.776364 239.84827 
L 105.283636 242.574921 
L 105.790909 246.433444 
L 106.298182 248.097135 
L 106.805455 236.391712 
L 107.312727 242.691488 
L 107.82 247.415691 
L 108.327273 249.193261 
L 108.834545 261.344662 
L 109.341818 258.157448 
L 109.849091 250.11393 
L 110.356364 242.729591 
L 110.863636 240.150689 
L 111.370909 239.935185 
L 111.878182 246.288716 
L 112.385455 263.38266 
L 112.892727 272.973238 
L 113.4 247.903825 
L 113.907273 242.583372 
L 114.414545 245.105944 
L 114.921818 244.408129 
L 115.429091 259.363685 
L 115.936364 256.890129 
L 116.443636 258.723133 
L 116.950909 260.798582 
L 117.458182 250.707668 
L 117.965455 248.418334 
L 118.472727 242.435912 
L 118.98 237.611678 
L 119.487273 241.495032 
L 119.994545 249.538199 
L 120.501818 257.560821 
L 121.009091 249.728803 
L 121.516364 254.322087 
L 122.023636 256.034342 
L 122.530909 255.712634 
L 123.038182 252.676558 
L 123.545455 252.619923 
L 124.052727 250.26311 
L 124.56 253.844754 
L 125.067273 253.205327 
L 125.574545 254.173054 
L 126.081818 262.610247 
L 126.589091 263.984163 
L 127.096364 273.759076 
L 127.603636 277.459753 
L 128.110909 270.04121 
L 128.618182 263.321135 
L 129.125455 272.348322 
L 129.632727 280.680211 
L 130.14 278.550926 
L 130.647273 261.871259 
L 131.154545 258.733578 
L 131.661818 277.969885 
L 132.169091 274.868993 
L 132.676364 275.07764 
L 133.183636 285.02173 
L 133.690909 287.510085 
L 134.198182 284.579381 
L 134.705455 268.450421 
L 135.212727 266.031604 
L 135.72 269.064554 
L 136.227273 264.021942 
L 136.734545 272.814566 
L 137.241818 280.675194 
L 137.749091 269.016063 
L 138.256364 273.453643 
L 138.763636 283.242831 
L 139.270909 272.762967 
L 139.778182 275.180827 
L 140.285455 268.142452 
L 140.792727 272.086367 
L 141.3 276.362172 
L 141.807273 254.541665 
L 142.314545 260.039088 
L 142.821818 260.457348 
L 143.329091 270.711116 
L 143.836364 275.988928 
L 144.343636 261.318486 
L 144.850909 259.006043 
L 145.358182 261.826206 
L 145.865455 266.483877 
L 146.372727 277.019903 
L 146.88 262.879178 
L 147.387273 255.212507 
L 147.894545 266.906815 
L 148.401818 255.367377 
L 148.909091 268.696155 
L 149.416364 267.996459 
L 149.923636 263.078292 
L 150.430909 266.644583 
L 150.938182 268.811879 
L 151.445455 262.577392 
L 151.952727 257.777549 
L 152.46 241.273952 
L 152.967273 267.485321 
L 153.474545 264.210084 
L 153.981818 266.752901 
L 154.489091 252.241304 
L 154.996364 254.039218 
L 155.503636 282.156263 
L 156.010909 277.133596 
L 156.518182 282.107852 
L 157.025455 272.927423 
L 157.532727 270.84911 
L 158.04 263.059194 
L 158.547273 264.237334 
L 159.054545 260.805738 
L 159.561818 249.806053 
L 160.069091 259.503232 
L 160.576364 261.948404 
L 161.083636 264.841632 
L 161.590909 267.953316 
L 162.098182 263.767598 
L 162.605455 269.821195 
L 163.112727 257.422234 
L 163.62 260.035962 
L 164.127273 264.386888 
L 164.634545 257.313076 
L 165.141818 249.413731 
L 165.649091 245.744895 
L 166.156364 261.51164 
L 166.663636 276.934444 
L 167.170909 267.257949 
L 167.678182 265.989796 
L 168.185455 269.453656 
L 168.692727 263.066242 
L 169.2 266.746805 
L 169.707273 276.415497 
L 170.214545 278.528376 
L 170.721818 275.472412 
L 171.229091 266.465022 
L 171.736364 263.129975 
L 172.243636 246.622492 
L 172.750909 270.7853 
L 173.258182 281.310824 
L 173.765455 264.090595 
L 174.272727 263.268352 
L 174.78 260.430536 
L 175.287273 278.919533 
L 175.794545 282.643359 
L 176.301818 272.890102 
L 176.809091 262.718207 
L 177.316364 277.428158 
L 177.823636 282.902114 
L 178.330909 280.888192 
L 178.838182 266.87478 
L 179.345455 273.996175 
L 179.852727 254.695146 
L 180.36 241.984977 
L 180.867273 234.450929 
L 181.374545 230.694766 
L 181.881818 233.539076 
L 182.389091 245.410607 
L 182.896364 252.363237 
L 183.403636 255.228818 
L 183.910909 260.759999 
L 184.418182 262.689349 
L 184.925455 249.819753 
L 185.432727 249.951932 
L 185.94 249.252578 
L 186.447273 241.186495 
L 186.954545 251.159737 
L 187.461818 267.828081 
L 187.969091 283.874066 
L 188.476364 289.768905 
L 188.983636 273.409761 
L 189.490909 266.068417 
L 189.998182 277.039588 
L 190.505455 282.371974 
L 191.012727 280.135507 
L 191.52 277.858736 
L 192.027273 266.777948 
L 192.534545 257.78022 
L 193.041818 270.26007 
L 193.549091 268.037028 
L 194.056364 271.529629 
L 194.563636 261.466225 
L 195.070909 260.132535 
L 195.578182 273.099262 
L 196.085455 281.601572 
L 196.592727 282.855736 
L 197.1 271.375343 
L 197.607273 281.170931 
L 198.114545 271.442346 
L 198.621818 271.808665 
L 199.129091 259.605128 
L 199.636364 255.107742 
L 200.143636 249.180334 
L 200.650909 258.59758 
L 201.158182 258.136358 
L 201.665455 264.057201 
L 202.172727 266.715308 
L 202.68 268.804996 
L 203.187273 263.54111 
L 203.694545 259.194224 
L 204.201818 254.635209 
L 204.709091 261.699641 
L 205.216364 261.948445 
L 205.723636 241.231111 
L 206.230909 234.162635 
L 206.738182 237.902268 
L 207.245455 247.337077 
L 207.752727 251.169681 
L 208.26 253.635735 
L 208.767273 264.564962 
L 209.274545 269.569172 
L 209.781818 259.042439 
L 210.289091 252.654856 
L 210.796364 263.352034 
L 211.303636 265.340049 
L 211.810909 261.618134 
L 212.318182 256.317168 
L 212.825455 255.427615 
L 213.332727 248.603981 
L 213.84 246.10137 
L 214.347273 251.738754 
L 214.854545 254.455215 
L 215.361818 254.65188 
L 215.869091 262.317536 
L 216.376364 264.204091 
L 216.883636 251.405863 
L 217.390909 264.258239 
L 217.898182 273.725764 
L 218.405455 276.90826 
L 218.912727 258.613981 
L 219.42 261.795906 
L 219.927273 263.79091 
L 220.434545 281.522829 
L 220.941818 254.944831 
L 221.449091 243.604647 
L 221.956364 260.463793 
L 222.463636 252.211513 
L 222.970909 252.169326 
L 223.478182 259.154835 
L 223.985455 266.99122 
L 224.492727 265.933023 
L 225 258.848747 
L 225.507273 259.924444 
L 226.014545 266.806278 
L 226.521818 264.045722 
L 227.029091 265.083512 
L 227.536364 265.153301 
L 228.043636 270.481842 
L 228.550909 276.670325 
L 229.058182 264.392434 
L 229.565455 274.801971 
L 230.072727 278.441137 
L 230.58 274.521946 
L 231.087273 270.64923 
L 231.594545 280.244932 
L 232.101818 266.330272 
L 232.609091 266.315497 
L 233.116364 269.594423 
L 233.623636 266.098355 
L 234.130909 260.633659 
L 234.638182 264.833634 
L 235.145455 272.266595 
L 235.652727 276.668994 
L 236.16 260.875936 
L 236.667273 256.404987 
L 237.174545 248.370725 
L 237.681818 257.462874 
L 238.189091 269.253789 
L 238.696364 269.328079 
L 239.203636 261.81265 
L 239.710909 259.415407 
L 240.218182 251.549761 
L 240.725455 256.266198 
L 241.232727 258.190766 
L 241.74 261.098204 
L 242.247273 245.558081 
L 242.754545 246.530468 
L 243.261818 254.540172 
L 243.769091 239.685277 
L 244.276364 253.715828 
L 244.783636 255.662017 
L 245.290909 266.077213 
L 245.798182 279.198574 
L 246.305455 291.845603 
L 246.812727 276.241451 
L 247.32 272.971872 
L 247.827273 269.802835 
L 248.334545 255.62955 
L 248.841818 263.054571 
L 249.349091 267.930641 
L 249.856364 266.746606 
L 250.363636 272.365988 
L 250.870909 264.206933 
L 251.378182 263.238075 
L 251.885455 269.951479 
L 252.392727 264.753104 
L 252.9 270.379944 
L 253.407273 270.670389 
L 253.914545 262.551363 
L 254.421818 263.438286 
L 254.929091 274.751303 
L 255.436364 276.983523 
L 255.943636 265.876396 
L 256.450909 267.922978 
L 256.958182 265.846198 
L 257.465455 265.603508 
L 257.972727 276.436994 
L 258.48 287.414065 
L 258.987273 291.32404 
L 259.494545 290.235243 
L 260.001818 285.194701 
L 260.509091 278.458275 
L 261.016364 278.311007 
L 261.523636 287.976725 
L 262.030909 293.39317 
L 262.538182 269.626168 
L 263.045455 269.006751 
L 263.552727 268.186491 
L 264.06 283.288973 
L 264.567273 285.306317 
L 265.074545 282.050554 
L 265.581818 285.712614 
L 266.089091 277.722693 
L 266.596364 270.866372 
L 267.103636 270.712952 
L 267.610909 257.903807 
L 268.118182 242.363025 
L 268.625455 257.46059 
L 269.132727 273.609727 
L 269.64 264.16189 
L 270.147273 271.567665 
L 270.654545 280.645703 
L 271.161818 278.113102 
L 271.669091 264.244392 
L 272.176364 269.438039 
L 272.683636 278.723788 
L 273.190909 277.920128 
L 273.698182 283.078093 
L 274.205455 281.637312 
L 274.712727 284.17359 
L 275.22 267.094911 
L 275.727273 264.450781 
L 276.234545 261.018156 
L 276.741818 268.78358 
L 277.249091 268.785195 
L 277.756364 269.882653 
L 278.263636 270.521287 
L 278.770909 269.491225 
L 279.278182 264.045388 
L 279.785455 261.771431 
L 280.292727 253.603009 
L 280.8 269.287 
L 281.307273 282.160117 
L 281.814545 283.661641 
L 282.321818 280.25255 
L 282.829091 282.255582 
L 283.336364 292.622545 
L 283.843636 295.488 
L 284.350909 274.335875 
L 284.858182 260.596889 
L 285.365455 252.299698 
L 285.872727 265.962871 
L 286.38 262.709536 
L 286.887273 263.611584 
L 287.394545 273.400127 
L 287.901818 262.735657 
L 288.409091 243.968009 
L 288.916364 251.380408 
L 289.423636 257.702893 
L 289.930909 266.496041 
L 290.438182 260.914424 
L 290.945455 248.537763 
L 291.452727 263.062935 
L 291.96 258.346574 
L 292.467273 235.08399 
L 292.974545 240.35024 
L 293.481818 262.382323 
L 293.989091 260.269899 
L 294.496364 252.754224 
L 295.003636 252.274222 
L 295.510909 247.978865 
L 296.018182 246.167589 
L 296.525455 248.499614 
L 297.032727 256.368687 
L 297.54 248.406662 
L 298.047273 253.777272 
L 298.554545 244.892817 
L 299.061818 259.916081 
L 299.569091 259.905376 
L 300.076364 248.471842 
L 300.583636 248.911036 
L 301.090909 247.187015 
L 301.598182 246.674462 
L 302.105455 241.705113 
L 302.612727 233.810997 
L 303.12 242.619686 
L 303.627273 246.698957 
L 304.134545 249.493093 
L 304.641818 249.467048 
L 305.149091 248.020589 
L 305.656364 258.2346 
L 306.163636 260.152557 
L 306.670909 239.478232 
L 307.178182 242.282951 
L 307.685455 246.276846 
L 308.192727 245.382028 
L 308.7 243.91822 
L 309.207273 249.724871 
L 309.714545 239.620944 
L 310.221818 231.275268 
L 310.729091 239.03237 
L 311.236364 253.842523 
L 311.743636 253.606228 
L 312.250909 259.919973 
L 312.758182 252.455078 
L 313.265455 254.786189 
L 313.772727 257.674003 
L 314.28 263.495579 
L 314.787273 251.503303 
L 315.294545 254.708747 
L 315.801818 253.313928 
L 316.309091 249.494442 
L 316.816364 255.210552 
L 317.323636 253.246121 
L 317.830909 259.945652 
L 318.338182 255.656129 
L 318.845455 250.38854 
L 319.352727 259.227892 
L 319.86 269.361723 
L 320.367273 276.41936 
L 320.874545 262.520417 
L 321.381818 263.911387 
L 321.889091 254.125749 
L 322.396364 263.261646 
L 322.903636 260.121394 
L 323.410909 254.711325 
L 323.918182 262.405065 
L 324.425455 259.151724 
L 324.932727 262.478409 
L 325.44 252.366891 
L 325.947273 263.686608 
L 326.454545 262.079891 
L 326.961818 256.204196 
L 327.469091 252.975976 
L 327.976364 261.74664 
L 328.483636 271.093964 
L 328.990909 268.914839 
L 329.498182 252.637707 
L 330.005455 251.868761 
L 330.512727 257.894007 
L 331.02 241.512551 
L 331.527273 239.577419 
L 332.034545 257.771162 
L 332.541818 269.11768 
L 333.049091 262.333197 
L 333.556364 271.157468 
L 334.063636 268.792562 
L 334.570909 267.678363 
L 335.078182 264.301805 
L 335.585455 258.779836 
L 336.092727 257.086935 
L 336.6 254.756514 
L 337.107273 266.290069 
L 337.614545 256.729477 
L 338.121818 241.390497 
L 338.629091 255.360068 
L 339.136364 242.276849 
L 339.643636 233.461938 
L 340.150909 251.715445 
L 340.658182 266.755305 
L 341.165455 268.974865 
L 341.672727 265.806089 
L 342.18 264.97715 
L 342.687273 251.242871 
L 343.194545 251.454811 
L 343.701818 271.431399 
L 344.209091 278.265781 
L 344.716364 261.820968 
L 345.223636 264.735929 
L 345.730909 272.836519 
L 346.238182 273.698589 
L 346.745455 276.907967 
L 347.252727 272.582948 
L 347.76 274.220882 
L 348.267273 274.661738 
L 348.774545 282.406072 
L 349.281818 279.814001 
L 349.789091 260.267037 
L 350.296364 256.15092 
L 350.803636 260.537018 
L 351.310909 274.214976 
L 351.818182 264.518443 
L 352.325455 265.709072 
L 352.832727 259.175882 
L 353.34 261.420084 
L 353.847273 259.098201 
L 354.354545 258.564457 
L 354.861818 259.799008 
L 355.369091 262.361017 
L 355.876364 268.05627 
L 356.383636 265.531356 
L 356.890909 260.426887 
L 357.398182 257.753599 
L 357.905455 265.034644 
L 358.412727 268.073402 
L 358.92 268.384598 
L 359.427273 270.944347 
L 359.934545 269.904906 
L 360.441818 266.699031 
L 360.949091 267.458374 
L 361.456364 281.358904 
L 361.963636 260.696772 
L 362.470909 251.04267 
L 362.978182 246.172867 
L 363.485455 235.828272 
L 363.992727 246.692654 
L 364.5 252.888716 
L 365.007273 255.129319 
L 365.514545 256.865981 
L 366.021818 247.906943 
L 366.529091 241.955275 
L 367.036364 240.497232 
L 367.543636 253.670339 
L 368.050909 261.477121 
L 368.558182 253.398943 
L 369.065455 251.526163 
L 369.572727 244.23143 
L 370.08 243.419258 
L 370.587273 252.730858 
L 371.094545 243.171435 
L 371.601818 247.376031 
L 372.109091 261.699712 
L 372.616364 257.018003 
L 373.123636 256.171818 
L 373.630909 260.754225 
L 374.138182 237.411443 
L 374.645455 236.825535 
L 375.152727 251.355103 
L 375.66 242.579799 
L 376.167273 236.604461 
L 376.674545 239.022194 
L 377.181818 248.379407 
L 377.689091 258.931189 
L 378.196364 259.822944 
L 378.703636 250.953118 
L 379.210909 249.066437 
L 379.718182 246.216537 
L 380.225455 249.968358 
L 380.732727 252.631139 
L 381.24 244.370218 
L 381.747273 251.43166 
L 382.254545 258.558631 
L 382.761818 264.489621 
L 383.269091 262.04583 
L 383.776364 253.591259 
L 384.283636 267.718023 
L 384.790909 259.951137 
L 385.298182 253.128784 
L 385.805455 264.063125 
L 386.312727 261.773277 
L 386.82 242.016541 
L 387.327273 228.057222 
L 387.834545 229.886914 
L 388.341818 241.635896 
L 388.849091 246.532871 
L 389.356364 249.458879 
L 389.863636 231.641764 
L 390.370909 238.069214 
L 390.878182 238.794053 
L 391.385455 242.662244 
L 391.892727 233.500043 
L 392.4 246.983395 
L 392.907273 257.212773 
L 393.414545 237.935352 
L 393.921818 230.292906 
L 394.429091 248.562804 
L 394.936364 247.88201 
L 395.443636 253.502465 
L 395.950909 244.179414 
L 396.458182 227.233104 
L 396.965455 243.241409 
L 397.472727 248.434495 
L 397.98 272.615543 
L 398.487273 248.711646 
L 398.487273 224.09088 
L 398.487273 224.09088 
L 397.98 244.785723 
L 397.472727 218.545849 
L 396.965455 212.075535 
L 396.458182 194.471285 
L 395.950909 215.715469 
L 395.443636 221.136181 
L 394.936364 220.118504 
L 394.429091 218.91651 
L 393.921818 204.9767 
L 393.414545 215.326194 
L 392.907273 230.016662 
L 392.4 219.80662 
L 391.892727 205.632865 
L 391.385455 212.225349 
L 390.878182 204.125432 
L 390.370909 208.549098 
L 389.863636 204.075662 
L 389.356364 219.210456 
L 388.849091 220.149842 
L 388.341818 216.809741 
L 387.834545 206.783451 
L 387.327273 206.513082 
L 386.82 218.110967 
L 386.312727 239.208971 
L 385.805455 237.844102 
L 385.298182 222.840932 
L 384.790909 231.61272 
L 384.283636 240.1555 
L 383.776364 226.225895 
L 383.269091 235.202722 
L 382.761818 240.891137 
L 382.254545 238.127548 
L 381.747273 228.170447 
L 381.24 213.544264 
L 380.732727 224.654277 
L 380.225455 224.208529 
L 379.718182 223.782274 
L 379.210909 224.675509 
L 378.703636 224.797036 
L 378.196364 234.842757 
L 377.689091 227.241686 
L 377.181818 217.431504 
L 376.674545 212.782559 
L 376.167273 210.664675 
L 375.66 220.623728 
L 375.152727 227.597016 
L 374.645455 212.544816 
L 374.138182 209.034495 
L 373.630909 231.690035 
L 373.123636 232.370696 
L 372.616364 230.940723 
L 372.109091 233.850126 
L 371.601818 219.387894 
L 371.094545 217.488573 
L 370.587273 228.217677 
L 370.08 222.71219 
L 369.572727 220.06633 
L 369.065455 229.08294 
L 368.558182 224.349967 
L 368.050909 230.8447 
L 367.543636 233.097227 
L 367.036364 218.004499 
L 366.529091 217.081626 
L 366.021818 221.832935 
L 365.514545 232.186421 
L 365.007273 232.873117 
L 364.5 234.400365 
L 363.992727 228.170972 
L 363.485455 216.595878 
L 362.978182 224.020274 
L 362.470909 223.340528 
L 361.963636 232.45317 
L 361.456364 249.874679 
L 360.949091 242.679945 
L 360.441818 240.300611 
L 359.934545 239.212145 
L 359.427273 239.672428 
L 358.92 244.541736 
L 358.412727 243.965305 
L 357.905455 241.789503 
L 357.398182 234.94259 
L 356.890909 242.232006 
L 356.383636 239.811415 
L 355.876364 248.463157 
L 355.369091 236.554403 
L 354.861818 231.999176 
L 354.354545 229.415062 
L 353.847273 230.218885 
L 353.34 230.29096 
L 352.832727 231.538174 
L 352.325455 240.048458 
L 351.818182 236.78266 
L 351.310909 246.164863 
L 350.803636 231.087329 
L 350.296364 228.515214 
L 349.789091 231.102547 
L 349.281818 249.919288 
L 348.774545 252.646229 
L 348.267273 239.986504 
L 347.76 242.070058 
L 347.252727 240.551626 
L 346.745455 250.009045 
L 346.238182 246.523705 
L 345.730909 240.238243 
L 345.223636 242.897423 
L 344.716364 239.446726 
L 344.209091 255.964967 
L 343.701818 249.081864 
L 343.194545 231.399162 
L 342.687273 228.15253 
L 342.18 241.450607 
L 341.672727 244.138757 
L 341.165455 242.852771 
L 340.658182 245.965862 
L 340.150909 233.119071 
L 339.643636 207.306241 
L 339.136364 213.733108 
L 338.629091 234.491453 
L 338.121818 219.349011 
L 337.614545 233.916319 
L 337.107273 238.059831 
L 336.6 228.541155 
L 336.092727 236.913714 
L 335.585455 234.938357 
L 335.078182 242.359463 
L 334.570909 241.392169 
L 334.063636 245.168859 
L 333.556364 241.588791 
L 333.049091 229.497574 
L 332.541818 238.902172 
L 332.034545 225.502611 
L 331.527273 207.111815 
L 331.02 208.740158 
L 330.512727 227.414578 
L 330.005455 225.430144 
L 329.498182 226.027174 
L 328.990909 240.689543 
L 328.483636 242.362055 
L 327.976364 231.156766 
L 327.469091 227.931717 
L 326.961818 227.870496 
L 326.454545 231.601422 
L 325.947273 235.990015 
L 325.44 229.841896 
L 324.932727 241.081765 
L 324.425455 235.284006 
L 323.918182 235.105518 
L 323.410909 222.635096 
L 322.903636 230.293357 
L 322.396364 240.312194 
L 321.889091 229.835686 
L 321.381818 230.042936 
L 320.874545 235.862043 
L 320.367273 252.585133 
L 319.86 244.497134 
L 319.352727 240.695955 
L 318.845455 229.199069 
L 318.338182 230.361543 
L 317.830909 233.403392 
L 317.323636 226.81232 
L 316.816364 227.213516 
L 316.309091 220.144758 
L 315.801818 221.779153 
L 315.294545 221.904513 
L 314.787273 220.381146 
L 314.28 233.563092 
L 313.772727 229.132465 
L 313.265455 224.828243 
L 312.758182 221.08674 
L 312.250909 231.281804 
L 311.743636 232.107735 
L 311.236364 239.640246 
L 310.729091 216.399099 
L 310.221818 201.240176 
L 309.714545 212.181202 
L 309.207273 221.025193 
L 308.7 215.962656 
L 308.192727 215.239709 
L 307.685455 215.762526 
L 307.178182 210.190754 
L 306.670909 209.7154 
L 306.163636 225.848253 
L 305.656364 221.679953 
L 305.149091 213.77152 
L 304.641818 219.033118 
L 304.134545 220.462132 
L 303.627273 218.175731 
L 303.12 214.515773 
L 302.612727 210.955629 
L 302.105455 216.998148 
L 301.598182 218.703739 
L 301.090909 217.527551 
L 300.583636 217.916199 
L 300.076364 219.310528 
L 299.569091 233.832866 
L 299.061818 228.478322 
L 298.554545 215.12309 
L 298.047273 224.130235 
L 297.54 222.842372 
L 297.032727 229.346955 
L 296.525455 222.505137 
L 296.018182 220.979329 
L 295.510909 224.929295 
L 295.003636 223.766511 
L 294.496364 227.984043 
L 293.989091 237.277628 
L 293.481818 231.997038 
L 292.974545 204.85186 
L 292.467273 199.957083 
L 291.96 221.306014 
L 291.452727 228.269558 
L 290.945455 221.576376 
L 290.438182 230.058725 
L 289.930909 232.518327 
L 289.423636 220.724436 
L 288.916364 214.351476 
L 288.409091 212.213961 
L 287.901818 227.915572 
L 287.394545 237.215082 
L 286.887273 230.743348 
L 286.38 230.758746 
L 285.872727 236.46053 
L 285.365455 222.464505 
L 284.858182 231.338292 
L 284.350909 249.821352 
L 283.843636 268.427073 
L 283.336364 262.580589 
L 282.829091 254.899146 
L 282.321818 253.021145 
L 281.814545 255.179002 
L 281.307273 254.967738 
L 280.8 236.95198 
L 280.292727 226.001123 
L 279.785455 236.989657 
L 279.278182 236.329394 
L 278.770909 241.879974 
L 278.263636 244.199449 
L 277.756364 246.678889 
L 277.249091 248.684359 
L 276.741818 240.855046 
L 276.234545 235.001425 
L 275.727273 235.83922 
L 275.22 241.211644 
L 274.712727 254.169619 
L 274.205455 250.544916 
L 273.698182 248.326692 
L 273.190909 246.264995 
L 272.683636 244.198472 
L 272.176364 235.101289 
L 271.669091 231.114285 
L 271.161818 248.520065 
L 270.654545 251.946405 
L 270.147273 242.661137 
L 269.64 235.64942 
L 269.132727 241.707763 
L 268.625455 231.910557 
L 268.118182 216.437057 
L 267.610909 228.769073 
L 267.103636 242.34639 
L 266.596364 245.999026 
L 266.089091 249.33769 
L 265.581818 250.567319 
L 265.074545 248.514478 
L 264.567273 253.364894 
L 264.06 254.561735 
L 263.552727 241.527253 
L 263.045455 242.533609 
L 262.538182 238.551499 
L 262.030909 258.851979 
L 261.523636 265.624706 
L 261.016364 252.693155 
L 260.509091 248.694455 
L 260.001818 255.52502 
L 259.494545 258.107955 
L 258.987273 260.311863 
L 258.48 253.512047 
L 257.972727 242.811517 
L 257.465455 236.098681 
L 256.958182 242.236646 
L 256.450909 245.130472 
L 255.943636 244.363142 
L 255.436364 248.900783 
L 254.929091 244.810939 
L 254.421818 232.879392 
L 253.914545 238.433417 
L 253.407273 244.609857 
L 252.9 240.341731 
L 252.392727 239.238873 
L 251.885455 241.643066 
L 251.378182 241.485933 
L 250.870909 240.544758 
L 250.363636 243.858173 
L 249.856364 241.536088 
L 249.349091 239.975402 
L 248.841818 235.399994 
L 248.334545 230.385251 
L 247.827273 245.860894 
L 247.32 244.762411 
L 246.812727 251.34835 
L 246.305455 264.21722 
L 245.798182 253.72204 
L 245.290909 246.472419 
L 244.783636 235.587287 
L 244.276364 236.839415 
L 243.769091 223.844629 
L 243.261818 225.237305 
L 242.754545 222.196366 
L 242.247273 229.064663 
L 241.74 239.583953 
L 241.232727 228.7241 
L 240.725455 223.544742 
L 240.218182 227.852326 
L 239.710909 231.469686 
L 239.203636 231.330154 
L 238.696364 236.100179 
L 238.189091 234.04846 
L 237.681818 227.093718 
L 237.174545 225.30047 
L 236.667273 232.129425 
L 236.16 236.841317 
L 235.652727 250.928945 
L 235.145455 244.636244 
L 234.638182 236.340809 
L 234.130909 232.500872 
L 233.623636 237.413335 
L 233.116364 234.533234 
L 232.609091 237.706586 
L 232.101818 239.119324 
L 231.594545 250.845325 
L 231.087273 236.84653 
L 230.58 235.812389 
L 230.072727 244.574396 
L 229.565455 245.456513 
L 229.058182 234.905269 
L 228.550909 240.1608 
L 228.043636 236.3361 
L 227.536364 232.691639 
L 227.029091 235.130275 
L 226.521818 232.135044 
L 226.014545 237.986324 
L 225.507273 233.140204 
L 225 232.258493 
L 224.492727 234.534804 
L 223.985455 235.980407 
L 223.478182 226.587695 
L 222.970909 223.279545 
L 222.463636 224.560095 
L 221.956364 231.474592 
L 221.449091 216.241221 
L 220.941818 226.757853 
L 220.434545 247.91446 
L 219.927273 239.178816 
L 219.42 231.017855 
L 218.912727 229.02832 
L 218.405455 247.231873 
L 217.898182 246.768181 
L 217.390909 240.651009 
L 216.883636 227.009885 
L 216.376364 235.869322 
L 215.869091 233.370409 
L 215.361818 227.473673 
L 214.854545 230.340108 
L 214.347273 229.658681 
L 213.84 220.858513 
L 213.332727 222.92818 
L 212.825455 229.722332 
L 212.318182 226.468491 
L 211.810909 231.096931 
L 211.303636 241.859835 
L 210.796364 238.409268 
L 210.289091 224.413349 
L 209.781818 233.712322 
L 209.274545 240.811935 
L 208.767273 237.662721 
L 208.26 225.745872 
L 207.752727 225.605658 
L 207.245455 222.045413 
L 206.738182 211.550904 
L 206.230909 210.020634 
L 205.723636 218.077649 
L 205.216364 239.478156 
L 204.709091 235.143495 
L 204.201818 225.4394 
L 203.694545 233.167601 
L 203.187273 233.803339 
L 202.68 236.310511 
L 202.172727 237.32184 
L 201.665455 235.773971 
L 201.158182 236.753649 
L 200.650909 238.464128 
L 200.143636 219.48145 
L 199.636364 230.143074 
L 199.129091 227.98198 
L 198.621818 243.44483 
L 198.114545 243.578726 
L 197.607273 247.269076 
L 197.1 241.626158 
L 196.592727 251.428465 
L 196.085455 243.013233 
L 195.578182 236.197629 
L 195.070909 228.010546 
L 194.563636 235.008373 
L 194.056364 247.909999 
L 193.549091 246.241683 
L 193.041818 240.455078 
L 192.534545 235.470589 
L 192.027273 240.92575 
L 191.52 248.1498 
L 191.012727 253.509494 
L 190.505455 255.775201 
L 189.998182 252.987445 
L 189.490909 233.683785 
L 188.983636 242.217287 
L 188.476364 259.907409 
L 187.969091 253.834871 
L 187.461818 237.347087 
L 186.954545 217.103027 
L 186.447273 207.886708 
L 185.94 218.001201 
L 185.432727 221.162987 
L 184.925455 221.474595 
L 184.418182 232.762221 
L 183.910909 230.554661 
L 183.403636 228.249511 
L 182.896364 222.422201 
L 182.389091 219.220023 
L 181.881818 208.585577 
L 181.374545 206.598141 
L 180.867273 208.666415 
L 180.36 214.966666 
L 179.852727 226.058436 
L 179.345455 241.184035 
L 178.838182 240.312665 
L 178.330909 255.181557 
L 177.823636 257.267442 
L 177.316364 248.227796 
L 176.809091 237.688177 
L 176.301818 244.493375 
L 175.794545 256.123229 
L 175.287273 245.599309 
L 174.78 222.165685 
L 174.272727 228.304211 
L 173.765455 236.897675 
L 173.258182 251.544981 
L 172.750909 244.241469 
L 172.243636 221.152091 
L 171.736364 239.682581 
L 171.229091 241.687476 
L 170.721818 247.775694 
L 170.214545 248.43895 
L 169.707273 244.260178 
L 169.2 242.509288 
L 168.692727 238.798827 
L 168.185455 243.32282 
L 167.678182 237.948222 
L 167.170909 242.792402 
L 166.663636 245.534206 
L 166.156364 228.337966 
L 165.649091 218.579076 
L 165.141818 224.733408 
L 164.634545 234.38786 
L 164.127273 241.514893 
L 163.62 227.480491 
L 163.112727 221.736942 
L 162.605455 238.349034 
L 162.098182 231.55594 
L 161.590909 237.8409 
L 161.083636 229.947096 
L 160.576364 225.762868 
L 160.069091 233.653802 
L 159.561818 229.768445 
L 159.054545 241.581567 
L 158.547273 241.20148 
L 158.04 238.747255 
L 157.532727 244.905509 
L 157.025455 247.112711 
L 156.518182 256.489165 
L 156.010909 256.034123 
L 155.503636 253.135521 
L 154.996364 223.65806 
L 154.489091 226.635319 
L 153.981818 245.952169 
L 153.474545 242.673539 
L 152.967273 246.660538 
L 152.46 223.495118 
L 151.952727 237.297606 
L 151.445455 242.088682 
L 150.938182 244.125785 
L 150.430909 238.498419 
L 149.923636 232.985545 
L 149.416364 241.988825 
L 148.909091 241.932726 
L 148.401818 229.103107 
L 147.894545 237.532158 
L 147.387273 229.178398 
L 146.88 236.543455 
L 146.372727 251.720038 
L 145.865455 237.763035 
L 145.358182 230.987712 
L 144.850909 231.428269 
L 144.343636 234.484893 
L 143.836364 250.59481 
L 143.329091 247.49654 
L 142.821818 231.828922 
L 142.314545 233.426382 
L 141.807273 230.349146 
L 141.3 250.688491 
L 140.792727 242.568768 
L 140.285455 230.166615 
L 139.778182 239.619715 
L 139.270909 237.36965 
L 138.763636 249.838729 
L 138.256364 242.321696 
L 137.749091 235.955649 
L 137.241818 244.797372 
L 136.734545 239.363385 
L 136.227273 228.480753 
L 135.72 236.847887 
L 135.212727 237.781156 
L 134.705455 240.220268 
L 134.198182 250.258823 
L 133.690909 247.752912 
L 133.183636 244.634695 
L 132.676364 236.056004 
L 132.169091 233.38723 
L 131.661818 239.359421 
L 131.154545 228.373054 
L 130.647273 227.209483 
L 130.14 241.594127 
L 129.632727 243.74977 
L 129.125455 237.049225 
L 128.618182 226.796236 
L 128.110909 233.376017 
L 127.603636 243.475822 
L 127.096364 241.235596 
L 126.589091 228.893074 
L 126.081818 230.536118 
L 125.574545 220.899282 
L 125.067273 218.704816 
L 124.56 221.471287 
L 124.052727 226.013995 
L 123.545455 221.576849 
L 123.038182 224.713175 
L 122.530909 228.449027 
L 122.023636 222.955201 
L 121.516364 220.573767 
L 121.009091 220.156519 
L 120.501818 223.832425 
L 119.994545 217.268003 
L 119.487273 208.359782 
L 118.98 208.298721 
L 118.472727 216.819142 
L 117.965455 221.620244 
L 117.458182 226.136571 
L 116.950909 238.717931 
L 116.443636 235.350908 
L 115.936364 226.932922 
L 115.429091 226.373122 
L 114.921818 211.480955 
L 114.414545 217.780656 
L 113.907273 210.184027 
L 113.4 215.542408 
L 112.892727 238.048077 
L 112.385455 229.048139 
L 111.878182 212.474611 
L 111.370909 209.35426 
L 110.863636 215.974327 
L 110.356364 216.861018 
L 109.849091 220.031129 
L 109.341818 230.112574 
L 108.834545 230.333373 
L 108.327273 220.777244 
L 107.82 219.931593 
L 107.312727 215.888274 
L 106.805455 209.262412 
L 106.298182 220.768564 
L 105.790909 222.195197 
L 105.283636 225.165217 
L 104.776364 219.456289 
L 104.269091 200.607818 
L 103.761818 219.674614 
L 103.254545 227.046887 
L 102.747273 219.827905 
L 102.24 222.597935 
L 101.732727 226.923457 
L 101.225455 224.519194 
L 100.718182 226.645223 
L 100.210909 223.27857 
L 99.703636 216.066435 
L 99.196364 239.496199 
L 98.689091 245.614194 
L 98.181818 231.244142 
L 97.674545 222.068915 
L 97.167273 224.197349 
L 96.66 226.979485 
L 96.152727 215.689252 
L 95.645455 218.083758 
L 95.138182 225.405789 
L 94.630909 229.913643 
L 94.123636 241.631936 
L 93.616364 238.123535 
L 93.109091 244.58011 
L 92.601818 241.476843 
L 92.094545 242.466211 
L 91.587273 236.440046 
L 91.08 231.416461 
L 90.572727 235.124001 
L 90.065455 239.726579 
L 89.558182 226.457168 
L 89.050909 241.208797 
L 88.543636 247.304286 
L 88.036364 243.571167 
L 87.529091 241.702126 
L 87.021818 236.998359 
L 86.514545 233.698795 
L 86.007273 233.789264 
L 85.5 240.657105 
L 84.992727 244.082644 
L 84.485455 235.830549 
L 83.978182 234.725009 
L 83.470909 232.487179 
L 82.963636 233.994976 
L 82.456364 242.575033 
L 81.949091 247.015547 
L 81.441818 235.223845 
L 80.934545 225.75263 
L 80.427273 217.919414 
L 79.92 221.213338 
L 79.412727 231.862103 
L 78.905455 232.172316 
L 78.398182 221.700606 
L 77.890909 213.635005 
L 77.383636 217.198583 
L 76.876364 219.715087 
L 76.369091 220.661587 
L 75.861818 228.128155 
L 75.354545 223.836934 
L 74.847273 216.579176 
L 74.34 233.263373 
L 73.832727 226.648735 
z
" clip-path="url(#peb2edc6d95)" style="fill: #1f77b4; fill-opacity: 0.3"/>
   </g>
   <g id="PathCollection_1"/>
   <g id="matplotlib.axis_1">
    <g id="xtick_1">
     <g id="line2d_1">
      <defs>
       <path id="m589339fd9e" d="M 0 0 
L 0 3.5 
" style="stroke: #000000; stroke-width: 0.8"/>
      </defs>
      <g>
       <use xlink:href="#m589339fd9e" x="73.832727" y="307.584" style="stroke: #000000; stroke-width: 0.8"/>
      </g>
     </g>
     <g id="text_1">
      <!-- 0.0 -->
      <g transform="translate(65.881165 322.182437) scale(0.1 -0.1)">
       <defs>
        <path id="DejaVuSans-30" d="M 2034 4250 
Q 1547 4250 1301 3770 
Q 1056 3291 1056 2328 
Q 1056 1369 1301 889 
Q 1547 409 2034 409 
Q 2525 409 2770 889 
Q 3016 1369 3016 2328 
Q 3016 3291 2770 3770 
Q 2525 4250 2034 4250 
z
M 2034 4750 
Q 2819 4750 3233 4129 
Q 3647 3509 3647 2328 
Q 3647 1150 3233 529 
Q 2819 -91 2034 -91 
Q 1250 -91 836 529 
Q 422 1150 422 2328 
Q 422 3509 836 4129 
Q 1250 4750 2034 4750 
z
" transform="scale(0.015625)"/>
        <path id="DejaVuSans-2e" d="M 684 794 
L 1344 794 
L 1344 0 
L 684 0 
L 684 794 
z
" transform="scale(0.015625)"/>
       </defs>
       <use xlink:href="#DejaVuSans-30"/>
       <use xlink:href="#DejaVuSans-2e" x="63.623047"/>
       <use xlink:href="#DejaVuSans-30" x="95.410156"/>
      </g>
     </g>
    </g>
    <g id="xtick_2">
     <g id="line2d_2">
      <g>
       <use xlink:href="#m589339fd9e" x="138.763636" y="307.584" style="stroke: #000000; stroke-width: 0.8"/>
      </g>
     </g>
     <g id="text_2">
      <!-- 0.5 -->
      <g transform="translate(130.812074 322.182437) scale(0.1 -0.1)">
       <defs>
        <path id="DejaVuSans-35" d="M 691 4666 
L 3169 4666 
L 3169 4134 
L 1269 4134 
L 1269 2991 
Q 1406 3038 1543 3061 
Q 1681 3084 1819 3084 
Q 2600 3084 3056 2656 
Q 3513 2228 3513 1497 
Q 3513 744 3044 326 
Q 2575 -91 1722 -91 
Q 1428 -91 1123 -41 
Q 819 9 494 109 
L 494 744 
Q 775 591 1075 516 
Q 1375 441 1709 441 
Q 2250 441 2565 725 
Q 2881 1009 2881 1497 
Q 2881 1984 2565 2268 
Q 2250 2553 1709 2553 
Q 1456 2553 1204 2497 
Q 953 2441 691 2322 
L 691 4666 
z
" transform="scale(0.015625)"/>
       </defs>
       <use xlink:href="#DejaVuSans-30"/>
       <use xlink:href="#DejaVuSans-2e" x="63.623047"/>
       <use xlink:href="#DejaVuSans-35" x="95.410156"/>
      </g>
     </g>
    </g>
    <g id="xtick_3">
     <g id="line2d_3">
      <g>
       <use xlink:href="#m589339fd9e" x="203.694545" y="307.584" style="stroke: #000000; stroke-width: 0.8"/>
      </g>
     </g>
     <g id="text_3">
      <!-- 1.0 -->
      <g transform="translate(195.742983 322.182437) scale(0.1 -0.1)">
       <defs>
        <path id="DejaVuSans-31" d="M 794 531 
L 1825 531 
L 1825 4091 
L 703 3866 
L 703 4441 
L 1819 4666 
L 2450 4666 
L 2450 531 
L 3481 531 
L 3481 0 
L 794 0 
L 794 531 
z
" transform="scale(0.015625)"/>
       </defs>
       <use xlink:href="#DejaVuSans-31"/>
       <use xlink:href="#DejaVuSans-2e" x="63.623047"/>
       <use xlink:href="#DejaVuSans-30" x="95.410156"/>
      </g>
     </g>
    </g>
    <g id="xtick_4">
     <g id="line2d_4">
      <g>
       <use xlink:href="#m589339fd9e" x="268.625455" y="307.584" style="stroke: #000000; stroke-width: 0.8"/>
      </g>
     </g>
     <g id="text_4">
      <!-- 1.5 -->
      <g transform="translate(260.673892 322.182437) scale(0.1 -0.1)">
       <use xlink:href="#DejaVuSans-31"/>
       <use xlink:href="#DejaVuSans-2e" x="63.623047"/>
       <use xlink:href="#DejaVuSans-35" x="95.410156"/>
      </g>
     </g>
    </g>
    <g id="xtick_5">
     <g id="line2d_5">
      <g>
       <use xlink:href="#m589339fd9e" x="333.556364" y="307.584" style="stroke: #000000; stroke-width: 0.8"/>
      </g>
     </g>
     <g id="text_5">
      <!-- 2.0 -->
      <g transform="translate(325.604801 322.182437) scale(0.1 -0.1)">
       <defs>
        <path id="DejaVuSans-32" d="M 1228 531 
L 3431 531 
L 3431 0 
L 469 0 
L 469 531 
Q 828 903 1448 1529 
Q 2069 2156 2228 2338 
Q 2531 2678 2651 2914 
Q 2772 3150 2772 3378 
Q 2772 3750 2511 3984 
Q 2250 4219 1831 4219 
Q 1534 4219 1204 4116 
Q 875 4013 500 3803 
L 500 4441 
Q 881 4594 1212 4672 
Q 1544 4750 1819 4750 
Q 2544 4750 2975 4387 
Q 3406 4025 3406 3419 
Q 3406 3131 3298 2873 
Q 3191 2616 2906 2266 
Q 2828 2175 2409 1742 
Q 1991 1309 1228 531 
z
" transform="scale(0.015625)"/>
       </defs>
       <use xlink:href="#DejaVuSans-32"/>
       <use xlink:href="#DejaVuSans-2e" x="63.623047"/>
       <use xlink:href="#DejaVuSans-30" x="95.410156"/>
      </g>
     </g>
    </g>
    <g id="xtick_6">
     <g id="line2d_6">
      <g>
       <use xlink:href="#m589339fd9e" x="398.487273" y="307.584" style="stroke: #000000; stroke-width: 0.8"/>
      </g>
     </g>
     <g id="text_6">
      <!-- 2.5 -->
      <g transform="translate(390.53571 322.182437) scale(0.1 -0.1)">
       <use xlink:href="#DejaVuSans-32"/>
       <use xlink:href="#DejaVuSans-2e" x="63.623047"/>
       <use xlink:href="#DejaVuSans-35" x="95.410156"/>
      </g>
     </g>
    </g>
    <g id="text_7">
     <!-- Time (s) -->
     <g transform="translate(215.831094 335.860562) scale(0.1 -0.1)">
      <defs>
       <path id="DejaVuSans-54" d="M -19 4666 
L 3928 4666 
L 3928 4134 
L 2272 4134 
L 2272 0 
L 1638 0 
L 1638 4134 
L -19 4134 
L -19 4666 
z
" transform="scale(0.015625)"/>
       <path id="DejaVuSans-69" d="M 603 3500 
L 1178 3500 
L 1178 0 
L 603 0 
L 603 3500 
z
M 603 4863 
L 1178 4863 
L 1178 4134 
L 603 4134 
L 603 4863 
z
" transform="scale(0.015625)"/>
       <path id="DejaVuSans-6d" d="M 3328 2828 
Q 3544 3216 3844 3400 
Q 4144 3584 4550 3584 
Q 5097 3584 5394 3201 
Q 5691 2819 5691 2113 
L 5691 0 
L 5113 0 
L 5113 2094 
Q 5113 2597 4934 2840 
Q 4756 3084 4391 3084 
Q 3944 3084 3684 2787 
Q 3425 2491 3425 1978 
L 3425 0 
L 2847 0 
L 2847 2094 
Q 2847 2600 2669 2842 
Q 2491 3084 2119 3084 
Q 1678 3084 1418 2786 
Q 1159 2488 1159 1978 
L 1159 0 
L 581 0 
L 581 3500 
L 1159 3500 
L 1159 2956 
Q 1356 3278 1631 3431 
Q 1906 3584 2284 3584 
Q 2666 3584 2933 3390 
Q 3200 3197 3328 2828 
z
" transform="scale(0.015625)"/>
       <path id="DejaVuSans-65" d="M 3597 1894 
L 3597 1613 
L 953 1613 
Q 991 1019 1311 708 
Q 1631 397 2203 397 
Q 2534 397 2845 478 
Q 3156 559 3463 722 
L 3463 178 
Q 3153 47 2828 -22 
Q 2503 -91 2169 -91 
Q 1331 -91 842 396 
Q 353 884 353 1716 
Q 353 2575 817 3079 
Q 1281 3584 2069 3584 
Q 2775 3584 3186 3129 
Q 3597 2675 3597 1894 
z
M 3022 2063 
Q 3016 2534 2758 2815 
Q 2500 3097 2075 3097 
Q 1594 3097 1305 2825 
Q 1016 2553 972 2059 
L 3022 2063 
z
" transform="scale(0.015625)"/>
       <path id="DejaVuSans-20" transform="scale(0.015625)"/>
       <path id="DejaVuSans-28" d="M 1984 4856 
Q 1566 4138 1362 3434 
Q 1159 2731 1159 2009 
Q 1159 1288 1364 580 
Q 1569 -128 1984 -844 
L 1484 -844 
Q 1016 -109 783 600 
Q 550 1309 550 2009 
Q 550 2706 781 3412 
Q 1013 4119 1484 4856 
L 1984 4856 
z
" transform="scale(0.015625)"/>
       <path id="DejaVuSans-73" d="M 2834 3397 
L 2834 2853 
Q 2591 2978 2328 3040 
Q 2066 3103 1784 3103 
Q 1356 3103 1142 2972 
Q 928 2841 928 2578 
Q 928 2378 1081 2264 
Q 1234 2150 1697 2047 
L 1894 2003 
Q 2506 1872 2764 1633 
Q 3022 1394 3022 966 
Q 3022 478 2636 193 
Q 2250 -91 1575 -91 
Q 1294 -91 989 -36 
Q 684 19 347 128 
L 347 722 
Q 666 556 975 473 
Q 1284 391 1588 391 
Q 1994 391 2212 530 
Q 2431 669 2431 922 
Q 2431 1156 2273 1281 
Q 2116 1406 1581 1522 
L 1381 1569 
Q 847 1681 609 1914 
Q 372 2147 372 2553 
Q 372 3047 722 3315 
Q 1072 3584 1716 3584 
Q 2034 3584 2315 3537 
Q 2597 3491 2834 3397 
z
" transform="scale(0.015625)"/>
       <path id="DejaVuSans-29" d="M 513 4856 
L 1013 4856 
Q 1481 4119 1714 3412 
Q 1947 2706 1947 2009 
Q 1947 1309 1714 600 
Q 1481 -109 1013 -844 
L 513 -844 
Q 928 -128 1133 580 
Q 1338 1288 1338 2009 
Q 1338 2731 1133 3434 
Q 928 4138 513 4856 
z
" transform="scale(0.015625)"/>
      </defs>
      <use xlink:href="#DejaVuSans-54"/>
      <use xlink:href="#DejaVuSans-69" x="57.958984"/>
      <use xlink:href="#DejaVuSans-6d" x="85.742188"/>
      <use xlink:href="#DejaVuSans-65" x="183.154297"/>
      <use xlink:href="#DejaVuSans-20" x="244.677734"/>
      <use xlink:href="#DejaVuSans-28" x="276.464844"/>
      <use xlink:href="#DejaVuSans-73" x="315.478516"/>
      <use xlink:href="#DejaVuSans-29" x="367.578125"/>
     </g>
    </g>
   </g>
   <g id="matplotlib.axis_2">
    <g id="ytick_1">
     <g id="line2d_7">
      <defs>
       <path id="m70455f0a25" d="M 0 0 
L -3.5 0 
" style="stroke: #000000; stroke-width: 0.8"/>
      </defs>
      <g>
       <use xlink:href="#m70455f0a25" x="57.6" y="287.271009" style="stroke: #000000; stroke-width: 0.8"/>
      </g>
     </g>
     <g id="text_8">
      <!-- −0.07 -->
      <g transform="translate(19.954687 291.070227) scale(0.1 -0.1)">
       <defs>
        <path id="DejaVuSans-2212" d="M 678 2272 
L 4684 2272 
L 4684 1741 
L 678 1741 
L 678 2272 
z
" transform="scale(0.015625)"/>
        <path id="DejaVuSans-37" d="M 525 4666 
L 3525 4666 
L 3525 4397 
L 1831 0 
L 1172 0 
L 2766 4134 
L 525 4134 
L 525 4666 
z
" transform="scale(0.015625)"/>
       </defs>
       <use xlink:href="#DejaVuSans-2212"/>
       <use xlink:href="#DejaVuSans-30" x="83.789062"/>
       <use xlink:href="#DejaVuSans-2e" x="147.412109"/>
       <use xlink:href="#DejaVuSans-30" x="179.199219"/>
       <use xlink:href="#DejaVuSans-37" x="242.822266"/>
      </g>
     </g>
    </g>
    <g id="ytick_2">
     <g id="line2d_8">
      <g>
       <use xlink:href="#m70455f0a25" x="57.6" y="253.884865" style="stroke: #000000; stroke-width: 0.8"/>
      </g>
     </g>
     <g id="text_9">
      <!-- −0.06 -->
      <g transform="translate(19.954687 257.684083) scale(0.1 -0.1)">
       <defs>
        <path id="DejaVuSans-36" d="M 2113 2584 
Q 1688 2584 1439 2293 
Q 1191 2003 1191 1497 
Q 1191 994 1439 701 
Q 1688 409 2113 409 
Q 2538 409 2786 701 
Q 3034 994 3034 1497 
Q 3034 2003 2786 2293 
Q 2538 2584 2113 2584 
z
M 3366 4563 
L 3366 3988 
Q 3128 4100 2886 4159 
Q 2644 4219 2406 4219 
Q 1781 4219 1451 3797 
Q 1122 3375 1075 2522 
Q 1259 2794 1537 2939 
Q 1816 3084 2150 3084 
Q 2853 3084 3261 2657 
Q 3669 2231 3669 1497 
Q 3669 778 3244 343 
Q 2819 -91 2113 -91 
Q 1303 -91 875 529 
Q 447 1150 447 2328 
Q 447 3434 972 4092 
Q 1497 4750 2381 4750 
Q 2619 4750 2861 4703 
Q 3103 4656 3366 4563 
z
" transform="scale(0.015625)"/>
       </defs>
       <use xlink:href="#DejaVuSans-2212"/>
       <use xlink:href="#DejaVuSans-30" x="83.789062"/>
       <use xlink:href="#DejaVuSans-2e" x="147.412109"/>
       <use xlink:href="#DejaVuSans-30" x="179.199219"/>
       <use xlink:href="#DejaVuSans-36" x="242.822266"/>
      </g>
     </g>
    </g>
    <g id="ytick_3">
     <g id="line2d_9">
      <g>
       <use xlink:href="#m70455f0a25" x="57.6" y="220.498721" style="stroke: #000000; stroke-width: 0.8"/>
      </g>
     </g>
     <g id="text_10">
      <!-- −0.05 -->
      <g transform="translate(19.954687 224.297939) scale(0.1 -0.1)">
       <use xlink:href="#DejaVuSans-2212"/>
       <use xlink:href="#DejaVuSans-30" x="83.789062"/>
       <use xlink:href="#DejaVuSans-2e" x="147.412109"/>
       <use xlink:href="#DejaVuSans-30" x="179.199219"/>
       <use xlink:href="#DejaVuSans-35" x="242.822266"/>
      </g>
     </g>
    </g>
    <g id="ytick_4">
     <g id="line2d_10">
      <g>
       <use xlink:href="#m70455f0a25" x="57.6" y="187.112576" style="stroke: #000000; stroke-width: 0.8"/>
      </g>
     </g>
     <g id="text_11">
      <!-- −0.04 -->
      <g transform="translate(19.954687 190.911795) scale(0.1 -0.1)">
       <defs>
        <path id="DejaVuSans-34" d="M 2419 4116 
L 825 1625 
L 2419 1625 
L 2419 4116 
z
M 2253 4666 
L 3047 4666 
L 3047 1625 
L 3713 1625 
L 3713 1100 
L 3047 1100 
L 3047 0 
L 2419 0 
L 2419 1100 
L 313 1100 
L 313 1709 
L 2253 4666 
z
" transform="scale(0.015625)"/>
       </defs>
       <use xlink:href="#DejaVuSans-2212"/>
       <use xlink:href="#DejaVuSans-30" x="83.789062"/>
       <use xlink:href="#DejaVuSans-2e" x="147.412109"/>
       <use xlink:href="#DejaVuSans-30" x="179.199219"/>
       <use xlink:href="#DejaVuSans-34" x="242.822266"/>
      </g>
     </g>
    </g>
    <g id="ytick_5">
     <g id="line2d_11">
      <g>
       <use xlink:href="#m70455f0a25" x="57.6" y="153.726432" style="stroke: #000000; stroke-width: 0.8"/>
      </g>
     </g>
     <g id="text_12">
      <!-- −0.03 -->
      <g transform="translate(19.954687 157.525651) scale(0.1 -0.1)">
       <defs>
        <path id="DejaVuSans-33" d="M 2597 2516 
Q 3050 2419 3304 2112 
Q 3559 1806 3559 1356 
Q 3559 666 3084 287 
Q 2609 -91 1734 -91 
Q 1441 -91 1130 -33 
Q 819 25 488 141 
L 488 750 
Q 750 597 1062 519 
Q 1375 441 1716 441 
Q 2309 441 2620 675 
Q 2931 909 2931 1356 
Q 2931 1769 2642 2001 
Q 2353 2234 1838 2234 
L 1294 2234 
L 1294 2753 
L 1863 2753 
Q 2328 2753 2575 2939 
Q 2822 3125 2822 3475 
Q 2822 3834 2567 4026 
Q 2313 4219 1838 4219 
Q 1578 4219 1281 4162 
Q 984 4106 628 3988 
L 628 4550 
Q 988 4650 1302 4700 
Q 1616 4750 1894 4750 
Q 2613 4750 3031 4423 
Q 3450 4097 3450 3541 
Q 3450 3153 3228 2886 
Q 3006 2619 2597 2516 
z
" transform="scale(0.015625)"/>
       </defs>
       <use xlink:href="#DejaVuSans-2212"/>
       <use xlink:href="#DejaVuSans-30" x="83.789062"/>
       <use xlink:href="#DejaVuSans-2e" x="147.412109"/>
       <use xlink:href="#DejaVuSans-30" x="179.199219"/>
       <use xlink:href="#DejaVuSans-33" x="242.822266"/>
      </g>
     </g>
    </g>
    <g id="ytick_6">
     <g id="line2d_12">
      <g>
       <use xlink:href="#m70455f0a25" x="57.6" y="120.340288" style="stroke: #000000; stroke-width: 0.8"/>
      </g>
     </g>
     <g id="text_13">
      <!-- −0.02 -->
      <g transform="translate(19.954687 124.139507) scale(0.1 -0.1)">
       <use xlink:href="#DejaVuSans-2212"/>
       <use xlink:href="#DejaVuSans-30" x="83.789062"/>
       <use xlink:href="#DejaVuSans-2e" x="147.412109"/>
       <use xlink:href="#DejaVuSans-30" x="179.199219"/>
       <use xlink:href="#DejaVuSans-32" x="242.822266"/>
      </g>
     </g>
    </g>
    <g id="ytick_7">
     <g id="line2d_13">
      <g>
       <use xlink:href="#m70455f0a25" x="57.6" y="86.954144" style="stroke: #000000; stroke-width: 0.8"/>
      </g>
     </g>
     <g id="text_14">
      <!-- −0.01 -->
      <g transform="translate(19.954687 90.753363) scale(0.1 -0.1)">
       <use xlink:href="#DejaVuSans-2212"/>
       <use xlink:href="#DejaVuSans-30" x="83.789062"/>
       <use xlink:href="#DejaVuSans-2e" x="147.412109"/>
       <use xlink:href="#DejaVuSans-30" x="179.199219"/>
       <use xlink:href="#DejaVuSans-31" x="242.822266"/>
      </g>
     </g>
    </g>
    <g id="ytick_8">
     <g id="line2d_14">
      <g>
       <use xlink:href="#m70455f0a25" x="57.6" y="53.568" style="stroke: #000000; stroke-width: 0.8"/>
      </g>
     </g>
     <g id="text_15">
      <!-- 0.00 -->
      <g transform="translate(28.334375 57.367219) scale(0.1 -0.1)">
       <use xlink:href="#DejaVuSans-30"/>
       <use xlink:href="#DejaVuSans-2e" x="63.623047"/>
       <use xlink:href="#DejaVuSans-30" x="95.410156"/>
       <use xlink:href="#DejaVuSans-30" x="159.033203"/>
      </g>
     </g>
    </g>
    <g id="text_16">
     <!-- Score -->
     <g transform="translate(13.875 188.530344) rotate(-90) scale(0.1 -0.1)">
      <defs>
       <path id="DejaVuSans-53" d="M 3425 4513 
L 3425 3897 
Q 3066 4069 2747 4153 
Q 2428 4238 2131 4238 
Q 1616 4238 1336 4038 
Q 1056 3838 1056 3469 
Q 1056 3159 1242 3001 
Q 1428 2844 1947 2747 
L 2328 2669 
Q 3034 2534 3370 2195 
Q 3706 1856 3706 1288 
Q 3706 609 3251 259 
Q 2797 -91 1919 -91 
Q 1588 -91 1214 -16 
Q 841 59 441 206 
L 441 856 
Q 825 641 1194 531 
Q 1563 422 1919 422 
Q 2459 422 2753 634 
Q 3047 847 3047 1241 
Q 3047 1584 2836 1778 
Q 2625 1972 2144 2069 
L 1759 2144 
Q 1053 2284 737 2584 
Q 422 2884 422 3419 
Q 422 4038 858 4394 
Q 1294 4750 2059 4750 
Q 2388 4750 2728 4690 
Q 3069 4631 3425 4513 
z
" transform="scale(0.015625)"/>
       <path id="DejaVuSans-63" d="M 3122 3366 
L 3122 2828 
Q 2878 2963 2633 3030 
Q 2388 3097 2138 3097 
Q 1578 3097 1268 2742 
Q 959 2388 959 1747 
Q 959 1106 1268 751 
Q 1578 397 2138 397 
Q 2388 397 2633 464 
Q 2878 531 3122 666 
L 3122 134 
Q 2881 22 2623 -34 
Q 2366 -91 2075 -91 
Q 1284 -91 818 406 
Q 353 903 353 1747 
Q 353 2603 823 3093 
Q 1294 3584 2113 3584 
Q 2378 3584 2631 3529 
Q 2884 3475 3122 3366 
z
" transform="scale(0.015625)"/>
       <path id="DejaVuSans-6f" d="M 1959 3097 
Q 1497 3097 1228 2736 
Q 959 2375 959 1747 
Q 959 1119 1226 758 
Q 1494 397 1959 397 
Q 2419 397 2687 759 
Q 2956 1122 2956 1747 
Q 2956 2369 2687 2733 
Q 2419 3097 1959 3097 
z
M 1959 3584 
Q 2709 3584 3137 3096 
Q 3566 2609 3566 1747 
Q 3566 888 3137 398 
Q 2709 -91 1959 -91 
Q 1206 -91 779 398 
Q 353 888 353 1747 
Q 353 2609 779 3096 
Q 1206 3584 1959 3584 
z
" transform="scale(0.015625)"/>
       <path id="DejaVuSans-72" d="M 2631 2963 
Q 2534 3019 2420 3045 
Q 2306 3072 2169 3072 
Q 1681 3072 1420 2755 
Q 1159 2438 1159 1844 
L 1159 0 
L 581 0 
L 581 3500 
L 1159 3500 
L 1159 2956 
Q 1341 3275 1631 3429 
Q 1922 3584 2338 3584 
Q 2397 3584 2469 3576 
Q 2541 3569 2628 3553 
L 2631 2963 
z
" transform="scale(0.015625)"/>
      </defs>
      <use xlink:href="#DejaVuSans-53"/>
      <use xlink:href="#DejaVuSans-63" x="63.476562"/>
      <use xlink:href="#DejaVuSans-6f" x="118.457031"/>
      <use xlink:href="#DejaVuSans-72" x="179.638672"/>
      <use xlink:href="#DejaVuSans-65" x="218.501953"/>
     </g>
    </g>
   </g>
   <g id="line2d_15">
    <path d="M 73.832727 236.315724 
L 74.34 244.560868 
L 74.847273 228.24832 
L 75.354545 235.750697 
L 75.861818 241.245481 
L 76.369091 234.027126 
L 76.876364 231.423108 
L 77.383636 227.79063 
L 77.890909 226.984423 
L 78.398182 234.97949 
L 78.905455 245.698067 
L 79.412727 245.787242 
L 79.92 235.634639 
L 80.427273 234.068353 
L 81.441818 247.659476 
L 81.949091 264.050937 
L 82.963636 244.611651 
L 83.470909 244.216075 
L 83.978182 251.416215 
L 84.485455 252.299043 
L 84.992727 258.227899 
L 85.5 256.678 
L 86.007273 248.424727 
L 86.514545 247.949957 
L 87.021818 250.737434 
L 87.529091 258.389489 
L 88.036364 260.292364 
L 88.543636 262.729726 
L 89.050909 254.609043 
L 89.558182 240.158139 
L 90.065455 253.993609 
L 90.572727 248.328073 
L 91.08 245.712819 
L 91.587273 250.232043 
L 92.094545 260.272262 
L 92.601818 257.569514 
L 93.109091 259.233708 
L 93.616364 252.290194 
L 94.123636 257.35204 
L 94.630909 248.731066 
L 95.138182 242.875818 
L 95.645455 234.154469 
L 96.152727 232.652303 
L 96.66 243.191416 
L 97.167273 238.333643 
L 97.674545 234.795868 
L 98.181818 245.932301 
L 98.689091 259.989415 
L 99.196364 255.341657 
L 99.703636 231.3373 
L 100.210909 236.895691 
L 100.718182 240.792367 
L 101.225455 238.165714 
L 101.732727 239.699299 
L 102.747273 233.961872 
L 103.254545 239.980164 
L 103.761818 230.608343 
L 104.269091 213.605527 
L 104.776364 229.65228 
L 105.283636 233.870069 
L 105.790909 234.314321 
L 106.298182 234.43285 
L 106.805455 222.827062 
L 107.312727 229.289881 
L 107.82 233.673642 
L 108.327273 234.985252 
L 108.834545 245.839018 
L 109.341818 244.135011 
L 109.849091 235.07253 
L 110.356364 229.795304 
L 110.863636 228.062508 
L 111.370909 224.644723 
L 111.878182 229.381663 
L 112.385455 246.215399 
L 112.892727 255.510658 
L 113.4 231.723117 
L 113.907273 226.383699 
L 114.414545 231.4433 
L 114.921818 227.944542 
L 115.429091 242.868404 
L 115.936364 241.911526 
L 116.443636 247.037021 
L 116.950909 249.758256 
L 117.458182 238.422119 
L 117.965455 235.019289 
L 118.472727 229.627527 
L 118.98 222.955199 
L 119.487273 224.927407 
L 120.501818 240.696623 
L 121.009091 234.942661 
L 122.530909 242.08083 
L 123.038182 238.694866 
L 123.545455 237.098386 
L 124.052727 238.138552 
L 124.56 237.65802 
L 125.067273 235.955071 
L 125.574545 237.536168 
L 126.081818 246.573183 
L 126.589091 246.438618 
L 127.096364 257.497336 
L 127.603636 260.467788 
L 128.110909 251.708613 
L 128.618182 245.058686 
L 129.125455 254.698774 
L 129.632727 262.214991 
L 130.14 260.072526 
L 130.647273 244.540371 
L 131.154545 243.553316 
L 131.661818 258.664653 
L 132.169091 254.128112 
L 132.676364 255.566822 
L 133.183636 264.828212 
L 133.690909 267.631499 
L 134.198182 267.419102 
L 134.705455 254.335344 
L 135.212727 251.90638 
L 135.72 252.95622 
L 136.227273 246.251348 
L 136.734545 256.088976 
L 137.241818 262.736283 
L 137.749091 252.485856 
L 138.256364 257.887669 
L 138.763636 266.54078 
L 139.270909 255.066309 
L 139.778182 257.400271 
L 140.285455 249.154534 
L 140.792727 257.327568 
L 141.3 263.525332 
L 141.807273 242.445405 
L 142.314545 246.732735 
L 142.821818 246.143135 
L 143.329091 259.103828 
L 143.836364 263.291869 
L 144.343636 247.901689 
L 144.850909 245.217156 
L 145.358182 246.406959 
L 145.865455 252.123456 
L 146.372727 264.36997 
L 146.88 249.711317 
L 147.387273 242.195452 
L 147.894545 252.219487 
L 148.401818 242.235242 
L 148.909091 255.31444 
L 149.416364 254.992642 
L 149.923636 248.031919 
L 150.938182 256.468832 
L 151.952727 247.537577 
L 152.46 232.384535 
L 152.967273 257.072929 
L 153.474545 253.441812 
L 153.981818 256.352535 
L 154.489091 239.438311 
L 154.996364 238.848639 
L 155.503636 267.645892 
L 156.010909 266.58386 
L 156.518182 269.298508 
L 157.025455 260.020067 
L 157.532727 257.877309 
L 158.04 250.903224 
L 158.547273 252.719407 
L 159.054545 251.193652 
L 159.561818 239.787249 
L 160.069091 246.578517 
L 160.576364 243.855636 
L 161.083636 247.394364 
L 161.590909 252.897108 
L 162.098182 247.661769 
L 162.605455 254.085114 
L 163.112727 239.579588 
L 163.62 243.758227 
L 164.127273 252.950891 
L 164.634545 245.850468 
L 165.141818 237.07357 
L 165.649091 232.161986 
L 166.156364 244.924803 
L 166.663636 261.234325 
L 167.170909 255.025175 
L 167.678182 251.969009 
L 168.185455 256.388238 
L 168.692727 250.932535 
L 169.2 254.628046 
L 169.707273 260.337837 
L 170.214545 263.483663 
L 170.721818 261.624053 
L 171.229091 254.076249 
L 171.736364 251.406278 
L 172.243636 233.887292 
L 172.750909 257.513384 
L 173.258182 266.427903 
L 173.765455 250.494135 
L 174.78 241.29811 
L 175.287273 262.259421 
L 175.794545 269.383294 
L 176.809091 250.203192 
L 177.316364 262.827977 
L 177.823636 270.084778 
L 178.330909 268.034874 
L 178.838182 253.593722 
L 179.345455 257.590105 
L 179.852727 240.376791 
L 180.36 228.475822 
L 180.867273 221.558672 
L 181.374545 218.646453 
L 181.881818 221.062327 
L 182.389091 232.315315 
L 183.403636 241.739164 
L 183.910909 245.65733 
L 184.418182 247.725785 
L 184.925455 235.647174 
L 185.432727 235.557459 
L 185.94 233.626889 
L 186.447273 224.536602 
L 186.954545 234.131382 
L 187.969091 268.854469 
L 188.476364 274.838157 
L 188.983636 257.813524 
L 189.490909 249.876101 
L 189.998182 265.013516 
L 190.505455 269.073588 
L 191.012727 266.8225 
L 191.52 263.004268 
L 192.534545 246.625404 
L 193.041818 255.357574 
L 193.549091 257.139355 
L 194.056364 259.719814 
L 194.563636 248.237299 
L 195.070909 244.071541 
L 195.578182 254.648445 
L 196.085455 262.307402 
L 196.592727 267.142101 
L 197.1 256.500751 
L 197.607273 264.220004 
L 198.114545 257.510536 
L 198.621818 257.626748 
L 199.129091 243.793554 
L 199.636364 242.625408 
L 200.143636 234.330892 
L 200.650909 248.530854 
L 201.158182 247.445003 
L 202.172727 252.018574 
L 202.68 252.557753 
L 203.187273 248.672224 
L 203.694545 246.180912 
L 204.201818 240.037304 
L 204.709091 248.421568 
L 205.216364 250.7133 
L 205.723636 229.65438 
L 206.230909 222.091635 
L 206.738182 224.726586 
L 207.245455 234.691245 
L 207.752727 238.38767 
L 208.26 239.690803 
L 208.767273 251.113841 
L 209.274545 255.190554 
L 210.289091 238.534102 
L 210.796364 250.880651 
L 211.303636 253.599942 
L 211.810909 246.357532 
L 212.318182 241.392829 
L 212.825455 242.574974 
L 213.332727 235.766081 
L 213.84 233.479941 
L 214.347273 240.698718 
L 214.854545 242.397662 
L 215.361818 241.062777 
L 215.869091 247.843973 
L 216.376364 250.036706 
L 216.883636 239.207874 
L 217.390909 252.454624 
L 217.898182 260.246972 
L 218.405455 262.070067 
L 218.912727 243.82115 
L 219.42 246.40688 
L 219.927273 251.484863 
L 220.434545 264.718645 
L 220.941818 240.851342 
L 221.449091 229.922934 
L 221.956364 245.969193 
L 222.463636 238.385804 
L 222.970909 237.724435 
L 223.478182 242.871265 
L 223.985455 251.485813 
L 224.492727 250.233914 
L 225 245.55362 
L 225.507273 246.532324 
L 226.014545 252.396301 
L 226.521818 248.090383 
L 227.029091 250.106893 
L 227.536364 248.92247 
L 228.550909 258.415562 
L 229.058182 249.648851 
L 229.565455 260.129242 
L 230.072727 261.507767 
L 230.58 255.167167 
L 231.087273 253.74788 
L 231.594545 265.545129 
L 232.101818 252.724798 
L 232.609091 252.011042 
L 233.116364 252.063829 
L 233.623636 251.755845 
L 234.130909 246.567265 
L 234.638182 250.587221 
L 235.145455 258.45142 
L 235.652727 263.79897 
L 236.16 248.858627 
L 236.667273 244.267206 
L 237.174545 236.835597 
L 237.681818 242.278296 
L 238.189091 251.651125 
L 238.696364 252.714129 
L 239.203636 246.571402 
L 239.710909 245.442547 
L 240.218182 239.701043 
L 240.725455 239.90547 
L 241.232727 243.457433 
L 241.74 250.341079 
L 242.247273 237.311372 
L 242.754545 234.363417 
L 243.261818 239.888739 
L 243.769091 231.764953 
L 244.276364 245.277621 
L 244.783636 245.624652 
L 246.305455 278.031412 
L 246.812727 263.794901 
L 247.32 258.867141 
L 247.827273 257.831865 
L 248.334545 243.0074 
L 248.841818 249.227282 
L 249.349091 253.953022 
L 249.856364 254.141347 
L 250.363636 258.112081 
L 250.870909 252.375845 
L 251.378182 252.362004 
L 251.885455 255.797273 
L 252.392727 251.995988 
L 252.9 255.360838 
L 253.407273 257.640123 
L 253.914545 250.49239 
L 254.421818 248.158839 
L 254.929091 259.781121 
L 255.436364 262.942153 
L 255.943636 255.119769 
L 256.450909 256.526725 
L 256.958182 254.041422 
L 257.465455 250.851095 
L 257.972727 259.624255 
L 258.48 270.463056 
L 258.987273 275.817951 
L 259.494545 274.171599 
L 260.001818 270.35986 
L 260.509091 263.576365 
L 261.016364 265.502081 
L 261.523636 276.800715 
L 262.030909 276.122575 
L 262.538182 254.088834 
L 263.045455 255.77018 
L 263.552727 254.856872 
L 264.06 268.925354 
L 264.567273 269.335606 
L 265.074545 265.282516 
L 265.581818 268.139966 
L 266.596364 258.432699 
L 267.103636 256.529671 
L 268.118182 229.400041 
L 269.132727 257.658745 
L 269.64 249.905655 
L 270.147273 257.114401 
L 270.654545 266.296054 
L 271.161818 263.316583 
L 271.669091 247.679338 
L 272.176364 252.269664 
L 272.683636 261.46113 
L 273.190909 262.092561 
L 273.698182 265.702393 
L 274.205455 266.091114 
L 274.712727 269.171605 
L 275.22 254.153278 
L 275.727273 250.145001 
L 276.234545 248.00979 
L 276.741818 254.819313 
L 277.249091 258.734777 
L 277.756364 258.280771 
L 278.263636 257.360368 
L 278.770909 255.685599 
L 279.278182 250.187391 
L 279.785455 249.380544 
L 280.292727 239.802066 
L 281.307273 268.563927 
L 281.814545 269.420321 
L 282.321818 266.636847 
L 282.829091 268.577364 
L 283.336364 277.601567 
L 283.843636 281.957537 
L 284.858182 245.96759 
L 285.365455 237.382101 
L 285.872727 251.2117 
L 286.38 246.734141 
L 286.887273 247.177466 
L 287.394545 255.307604 
L 287.901818 245.325614 
L 288.409091 228.090985 
L 288.916364 232.865942 
L 289.423636 239.213664 
L 289.930909 249.507184 
L 290.438182 245.486574 
L 290.945455 235.05707 
L 291.452727 245.666247 
L 291.96 239.826294 
L 292.467273 217.520536 
L 292.974545 222.60105 
L 293.481818 247.18968 
L 293.989091 248.773764 
L 294.496364 240.369134 
L 295.003636 238.020366 
L 295.510909 236.45408 
L 296.018182 233.573459 
L 296.525455 235.502375 
L 297.032727 242.857821 
L 297.54 235.624517 
L 298.047273 238.953754 
L 298.554545 230.007954 
L 299.061818 244.197202 
L 299.569091 246.869121 
L 300.076364 233.891185 
L 300.583636 233.413617 
L 301.090909 232.357283 
L 301.598182 232.689101 
L 302.105455 229.35163 
L 302.612727 222.383313 
L 303.12 228.56773 
L 303.627273 232.437344 
L 304.134545 234.977613 
L 304.641818 234.250083 
L 305.149091 230.896054 
L 305.656364 239.957277 
L 306.163636 243.000405 
L 306.670909 224.596816 
L 307.178182 226.236852 
L 307.685455 231.019686 
L 308.192727 230.310869 
L 308.7 229.940438 
L 309.207273 235.375032 
L 310.221818 216.257722 
L 310.729091 227.715734 
L 311.236364 246.741384 
L 311.743636 242.856982 
L 312.250909 245.600889 
L 312.758182 236.770909 
L 313.772727 243.403234 
L 314.28 248.529335 
L 314.787273 235.942224 
L 315.294545 238.30663 
L 315.801818 237.54654 
L 316.309091 234.8196 
L 316.816364 241.212034 
L 317.323636 240.029221 
L 317.830909 246.674522 
L 318.845455 239.793805 
L 319.352727 249.961923 
L 320.367273 264.502247 
L 320.874545 249.19123 
L 321.381818 246.977161 
L 321.889091 241.980717 
L 322.396364 251.78692 
L 323.410909 238.673211 
L 323.918182 248.755292 
L 324.425455 247.217865 
L 324.932727 251.780087 
L 325.44 241.104393 
L 325.947273 249.838312 
L 326.454545 246.840657 
L 326.961818 242.037346 
L 327.469091 240.453847 
L 327.976364 246.451703 
L 328.483636 256.72801 
L 328.990909 254.802191 
L 329.498182 239.332441 
L 330.005455 238.649453 
L 330.512727 242.654292 
L 331.02 225.126355 
L 331.527273 223.344617 
L 332.034545 241.636887 
L 332.541818 254.009926 
L 333.049091 245.915386 
L 333.556364 256.37313 
L 334.063636 256.980711 
L 334.570909 254.535266 
L 335.078182 253.330634 
L 335.585455 246.859097 
L 336.092727 247.000325 
L 336.6 241.648834 
L 337.107273 252.17495 
L 337.614545 245.322898 
L 338.121818 230.369754 
L 338.629091 244.925761 
L 339.136364 228.004979 
L 339.643636 220.38409 
L 340.150909 242.417258 
L 340.658182 256.360583 
L 341.165455 255.913818 
L 341.672727 254.972423 
L 342.18 253.213878 
L 342.687273 239.697701 
L 343.194545 241.426987 
L 343.701818 260.256632 
L 344.209091 267.115374 
L 344.716364 250.633847 
L 346.745455 263.458506 
L 347.252727 256.567287 
L 347.76 258.14547 
L 348.267273 257.324121 
L 348.774545 267.52615 
L 349.281818 264.866645 
L 349.789091 245.684792 
L 350.296364 242.333067 
L 350.803636 245.812173 
L 351.310909 260.18992 
L 351.818182 250.650552 
L 352.325455 252.878765 
L 352.832727 245.357028 
L 353.34 245.855522 
L 353.847273 244.658543 
L 354.354545 243.98976 
L 354.861818 245.899092 
L 355.369091 249.45771 
L 355.876364 258.259714 
L 356.383636 252.671386 
L 356.890909 251.329447 
L 357.398182 246.348094 
L 357.905455 253.412073 
L 358.412727 256.019353 
L 358.92 256.463167 
L 359.427273 255.308387 
L 359.934545 254.558525 
L 360.441818 253.499821 
L 360.949091 255.06916 
L 361.456364 265.616791 
L 361.963636 246.574971 
L 362.470909 237.191599 
L 362.978182 235.09657 
L 363.485455 226.212075 
L 363.992727 237.431813 
L 364.5 243.64454 
L 365.007273 244.001218 
L 365.514545 244.526201 
L 366.021818 234.869939 
L 366.529091 229.51845 
L 367.036364 229.250865 
L 367.543636 243.383783 
L 368.050909 246.160911 
L 368.558182 238.874455 
L 369.065455 240.304552 
L 369.572727 232.14888 
L 370.08 233.065724 
L 370.587273 240.474268 
L 371.094545 230.330004 
L 371.601818 233.381962 
L 372.109091 247.774919 
L 372.616364 243.979363 
L 373.123636 244.271257 
L 373.630909 246.22213 
L 374.138182 223.222969 
L 374.645455 224.685176 
L 375.152727 239.47606 
L 376.167273 223.634568 
L 376.674545 225.902377 
L 377.181818 232.905456 
L 377.689091 243.086437 
L 378.196364 247.332851 
L 378.703636 237.875077 
L 379.210909 236.870973 
L 379.718182 234.999406 
L 380.225455 237.088443 
L 380.732727 238.642708 
L 381.24 228.957241 
L 382.254545 248.34309 
L 382.761818 252.690379 
L 383.269091 248.624276 
L 383.776364 239.908577 
L 384.283636 253.936761 
L 385.298182 237.984858 
L 385.805455 250.953614 
L 386.312727 250.491124 
L 386.82 230.063754 
L 387.327273 217.285152 
L 387.834545 218.335183 
L 388.341818 229.222819 
L 388.849091 233.341356 
L 389.356364 234.334667 
L 389.863636 217.858713 
L 390.370909 223.309156 
L 390.878182 221.459743 
L 391.385455 227.443796 
L 391.892727 219.566454 
L 392.4 233.395008 
L 392.907273 243.614717 
L 393.414545 226.630773 
L 393.921818 217.634803 
L 394.429091 233.739657 
L 394.936364 234.000257 
L 395.443636 237.319323 
L 395.950909 229.947441 
L 396.458182 210.852194 
L 396.965455 227.658472 
L 397.472727 233.490172 
L 397.98 258.700633 
L 398.487273 236.401263 
L 398.487273 236.401263 
" clip-path="url(#peb2edc6d95)" style="fill: none; stroke: #1f77b4; stroke-width: 1.5; stroke-linecap: square"/>
   </g>
   <g id="line2d_16">
    <path d="M 57.6 53.568 
L 414.72 53.568 
" clip-path="url(#peb2edc6d95)" style="fill: none; stroke-dasharray: 5.55,2.4; stroke-dashoffset: 0; stroke: #000000; stroke-width: 1.5"/>
   </g>
   <g id="patch_3">
    <path d="M 57.6 307.584 
L 57.6 41.472 
" style="fill: none; stroke: #000000; stroke-width: 0.8; stroke-linejoin: miter; stroke-linecap: square"/>
   </g>
   <g id="patch_4">
    <path d="M 414.72 307.584 
L 414.72 41.472 
" style="fill: none; stroke: #000000; stroke-width: 0.8; stroke-linejoin: miter; stroke-linecap: square"/>
   </g>
   <g id="patch_5">
    <path d="M 57.6 307.584 
L 414.72 307.584 
" style="fill: none; stroke: #000000; stroke-width: 0.8; stroke-linejoin: miter; stroke-linecap: square"/>
   </g>
   <g id="patch_6">
    <path d="M 57.6 41.472 
L 414.72 41.472 
" style="fill: none; stroke: #000000; stroke-width: 0.8; stroke-linejoin: miter; stroke-linecap: square"/>
   </g>
   <g id="text_17">
    <!-- ERP Sliding R2 (Central Region) -->
    <g transform="translate(141.668437 35.472) scale(0.12 -0.12)">
     <defs>
      <path id="DejaVuSans-45" d="M 628 4666 
L 3578 4666 
L 3578 4134 
L 1259 4134 
L 1259 2753 
L 3481 2753 
L 3481 2222 
L 1259 2222 
L 1259 531 
L 3634 531 
L 3634 0 
L 628 0 
L 628 4666 
z
" transform="scale(0.015625)"/>
      <path id="DejaVuSans-52" d="M 2841 2188 
Q 3044 2119 3236 1894 
Q 3428 1669 3622 1275 
L 4263 0 
L 3584 0 
L 2988 1197 
Q 2756 1666 2539 1819 
Q 2322 1972 1947 1972 
L 1259 1972 
L 1259 0 
L 628 0 
L 628 4666 
L 2053 4666 
Q 2853 4666 3247 4331 
Q 3641 3997 3641 3322 
Q 3641 2881 3436 2590 
Q 3231 2300 2841 2188 
z
M 1259 4147 
L 1259 2491 
L 2053 2491 
Q 2509 2491 2742 2702 
Q 2975 2913 2975 3322 
Q 2975 3731 2742 3939 
Q 2509 4147 2053 4147 
L 1259 4147 
z
" transform="scale(0.015625)"/>
      <path id="DejaVuSans-50" d="M 1259 4147 
L 1259 2394 
L 2053 2394 
Q 2494 2394 2734 2622 
Q 2975 2850 2975 3272 
Q 2975 3691 2734 3919 
Q 2494 4147 2053 4147 
L 1259 4147 
z
M 628 4666 
L 2053 4666 
Q 2838 4666 3239 4311 
Q 3641 3956 3641 3272 
Q 3641 2581 3239 2228 
Q 2838 1875 2053 1875 
L 1259 1875 
L 1259 0 
L 628 0 
L 628 4666 
z
" transform="scale(0.015625)"/>
      <path id="DejaVuSans-6c" d="M 603 4863 
L 1178 4863 
L 1178 0 
L 603 0 
L 603 4863 
z
" transform="scale(0.015625)"/>
      <path id="DejaVuSans-64" d="M 2906 2969 
L 2906 4863 
L 3481 4863 
L 3481 0 
L 2906 0 
L 2906 525 
Q 2725 213 2448 61 
Q 2172 -91 1784 -91 
Q 1150 -91 751 415 
Q 353 922 353 1747 
Q 353 2572 751 3078 
Q 1150 3584 1784 3584 
Q 2172 3584 2448 3432 
Q 2725 3281 2906 2969 
z
M 947 1747 
Q 947 1113 1208 752 
Q 1469 391 1925 391 
Q 2381 391 2643 752 
Q 2906 1113 2906 1747 
Q 2906 2381 2643 2742 
Q 2381 3103 1925 3103 
Q 1469 3103 1208 2742 
Q 947 2381 947 1747 
z
" transform="scale(0.015625)"/>
      <path id="DejaVuSans-6e" d="M 3513 2113 
L 3513 0 
L 2938 0 
L 2938 2094 
Q 2938 2591 2744 2837 
Q 2550 3084 2163 3084 
Q 1697 3084 1428 2787 
Q 1159 2491 1159 1978 
L 1159 0 
L 581 0 
L 581 3500 
L 1159 3500 
L 1159 2956 
Q 1366 3272 1645 3428 
Q 1925 3584 2291 3584 
Q 2894 3584 3203 3211 
Q 3513 2838 3513 2113 
z
" transform="scale(0.015625)"/>
      <path id="DejaVuSans-67" d="M 2906 1791 
Q 2906 2416 2648 2759 
Q 2391 3103 1925 3103 
Q 1463 3103 1205 2759 
Q 947 2416 947 1791 
Q 947 1169 1205 825 
Q 1463 481 1925 481 
Q 2391 481 2648 825 
Q 2906 1169 2906 1791 
z
M 3481 434 
Q 3481 -459 3084 -895 
Q 2688 -1331 1869 -1331 
Q 1566 -1331 1297 -1286 
Q 1028 -1241 775 -1147 
L 775 -588 
Q 1028 -725 1275 -790 
Q 1522 -856 1778 -856 
Q 2344 -856 2625 -561 
Q 2906 -266 2906 331 
L 2906 616 
Q 2728 306 2450 153 
Q 2172 0 1784 0 
Q 1141 0 747 490 
Q 353 981 353 1791 
Q 353 2603 747 3093 
Q 1141 3584 1784 3584 
Q 2172 3584 2450 3431 
Q 2728 3278 2906 2969 
L 2906 3500 
L 3481 3500 
L 3481 434 
z
" transform="scale(0.015625)"/>
      <path id="DejaVuSans-43" d="M 4122 4306 
L 4122 3641 
Q 3803 3938 3442 4084 
Q 3081 4231 2675 4231 
Q 1875 4231 1450 3742 
Q 1025 3253 1025 2328 
Q 1025 1406 1450 917 
Q 1875 428 2675 428 
Q 3081 428 3442 575 
Q 3803 722 4122 1019 
L 4122 359 
Q 3791 134 3420 21 
Q 3050 -91 2638 -91 
Q 1578 -91 968 557 
Q 359 1206 359 2328 
Q 359 3453 968 4101 
Q 1578 4750 2638 4750 
Q 3056 4750 3426 4639 
Q 3797 4528 4122 4306 
z
" transform="scale(0.015625)"/>
      <path id="DejaVuSans-74" d="M 1172 4494 
L 1172 3500 
L 2356 3500 
L 2356 3053 
L 1172 3053 
L 1172 1153 
Q 1172 725 1289 603 
Q 1406 481 1766 481 
L 2356 481 
L 2356 0 
L 1766 0 
Q 1100 0 847 248 
Q 594 497 594 1153 
L 594 3053 
L 172 3053 
L 172 3500 
L 594 3500 
L 594 4494 
L 1172 4494 
z
" transform="scale(0.015625)"/>
      <path id="DejaVuSans-61" d="M 2194 1759 
Q 1497 1759 1228 1600 
Q 959 1441 959 1056 
Q 959 750 1161 570 
Q 1363 391 1709 391 
Q 2188 391 2477 730 
Q 2766 1069 2766 1631 
L 2766 1759 
L 2194 1759 
z
M 3341 1997 
L 3341 0 
L 2766 0 
L 2766 531 
Q 2569 213 2275 61 
Q 1981 -91 1556 -91 
Q 1019 -91 701 211 
Q 384 513 384 1019 
Q 384 1609 779 1909 
Q 1175 2209 1959 2209 
L 2766 2209 
L 2766 2266 
Q 2766 2663 2505 2880 
Q 2244 3097 1772 3097 
Q 1472 3097 1187 3025 
Q 903 2953 641 2809 
L 641 3341 
Q 956 3463 1253 3523 
Q 1550 3584 1831 3584 
Q 2591 3584 2966 3190 
Q 3341 2797 3341 1997 
z
" transform="scale(0.015625)"/>
     </defs>
     <use xlink:href="#DejaVuSans-45"/>
     <use xlink:href="#DejaVuSans-52" x="63.183594"/>
     <use xlink:href="#DejaVuSans-50" x="132.666016"/>
     <use xlink:href="#DejaVuSans-20" x="192.96875"/>
     <use xlink:href="#DejaVuSans-53" x="224.755859"/>
     <use xlink:href="#DejaVuSans-6c" x="288.232422"/>
     <use xlink:href="#DejaVuSans-69" x="316.015625"/>
     <use xlink:href="#DejaVuSans-64" x="343.798828"/>
     <use xlink:href="#DejaVuSans-69" x="407.275391"/>
     <use xlink:href="#DejaVuSans-6e" x="435.058594"/>
     <use xlink:href="#DejaVuSans-67" x="498.4375"/>
     <use xlink:href="#DejaVuSans-20" x="561.914062"/>
     <use xlink:href="#DejaVuSans-52" x="593.701172"/>
     <use xlink:href="#DejaVuSans-32" x="663.183594"/>
     <use xlink:href="#DejaVuSans-20" x="726.806641"/>
     <use xlink:href="#DejaVuSans-28" x="758.59375"/>
     <use xlink:href="#DejaVuSans-43" x="797.607422"/>
     <use xlink:href="#DejaVuSans-65" x="867.431641"/>
     <use xlink:href="#DejaVuSans-6e" x="928.955078"/>
     <use xlink:href="#DejaVuSans-74" x="992.333984"/>
     <use xlink:href="#DejaVuSans-72" x="1031.542969"/>
     <use xlink:href="#DejaVuSans-61" x="1072.65625"/>
     <use xlink:href="#DejaVuSans-6c" x="1133.935547"/>
     <use xlink:href="#DejaVuSans-20" x="1161.71875"/>
     <use xlink:href="#DejaVuSans-52" x="1193.505859"/>
     <use xlink:href="#DejaVuSans-65" x="1258.488281"/>
     <use xlink:href="#DejaVuSans-67" x="1320.011719"/>
     <use xlink:href="#DejaVuSans-69" x="1383.488281"/>
     <use xlink:href="#DejaVuSans-6f" x="1411.271484"/>
     <use xlink:href="#DejaVuSans-6e" x="1472.453125"/>
     <use xlink:href="#DejaVuSans-29" x="1535.832031"/>
    </g>
   </g>
  </g>
 </g>
 <defs>
  <clipPath id="peb2edc6d95">
   <rect x="57.6" y="41.472" width="357.12" height="266.112"/>
  </clipPath>
 </defs>
</svg>
