<?xml version="1.0" encoding="utf-8" standalone="no"?>
<!DOCTYPE svg PUBLIC "-//W3C//DTD SVG 1.1//EN"
  "http://www.w3.org/Graphics/SVG/1.1/DTD/svg11.dtd">
<svg xmlns:xlink="http://www.w3.org/1999/xlink" width="460.8pt" height="345.6pt" viewBox="0 0 460.8 345.6" xmlns="http://www.w3.org/2000/svg" version="1.1">
 <metadata>
  <rdf:RDF xmlns:dc="http://purl.org/dc/elements/1.1/" xmlns:cc="http://creativecommons.org/ns#" xmlns:rdf="http://www.w3.org/1999/02/22-rdf-syntax-ns#">
   <cc:Work>
    <dc:type rdf:resource="http://purl.org/dc/dcmitype/StillImage"/>
    <dc:date>2025-07-04T03:28:12.342544</dc:date>
    <dc:format>image/svg+xml</dc:format>
    <dc:creator>
     <cc:Agent>
      <dc:title>Matplotlib v3.9.4, https://matplotlib.org/</dc:title>
     </cc:Agent>
    </dc:creator>
   </cc:Work>
  </rdf:RDF>
 </metadata>
 <defs>
  <style type="text/css">*{stroke-linejoin: round; stroke-linecap: butt}</style>
 </defs>
 <g id="figure_1">
  <g id="patch_1">
   <path d="M 0 345.6 
L 460.8 345.6 
L 460.8 0 
L 0 0 
z
" style="fill: #ffffff"/>
  </g>
  <g id="axes_1">
   <g id="patch_2">
    <path d="M 57.6 307.584 
L 414.72 307.584 
L 414.72 41.472 
L 57.6 41.472 
z
" style="fill: #ffffff"/>
   </g>
   <g id="PolyCollection_1">
    <path d="M 73.832727 182.5638 
L 73.832727 199.424463 
L 74.34 213.117041 
L 74.847273 213.072576 
L 75.354545 216.272225 
L 75.861818 214.57894 
L 76.369091 208.224407 
L 76.876364 196.777426 
L 77.383636 205.409661 
L 77.890909 216.789372 
L 78.398182 215.510101 
L 78.905455 224.232901 
L 79.412727 230.62615 
L 79.92 228.815328 
L 80.427273 225.431778 
L 80.934545 221.884523 
L 81.441818 224.970693 
L 81.949091 225.349981 
L 82.456364 219.164188 
L 82.963636 217.832768 
L 83.470909 206.220964 
L 83.978182 217.191293 
L 84.485455 214.464503 
L 84.992727 228.977773 
L 85.5 229.434109 
L 86.007273 229.839653 
L 86.514545 238.179726 
L 87.021818 232.598897 
L 87.529091 230.536202 
L 88.036364 220.92463 
L 88.543636 221.541273 
L 89.050909 221.257305 
L 89.558182 222.398212 
L 90.065455 219.919751 
L 90.572727 209.33819 
L 91.08 212.571751 
L 91.587273 216.521002 
L 92.094545 213.585174 
L 92.601818 222.285979 
L 93.109091 222.784789 
L 93.616364 217.600619 
L 94.123636 223.264 
L 94.630909 220.880403 
L 95.138182 211.986743 
L 95.645455 210.580173 
L 96.152727 211.526626 
L 96.66 206.525666 
L 97.167273 214.654994 
L 97.674545 225.410512 
L 98.181818 217.644092 
L 98.689091 217.721923 
L 99.196364 221.865657 
L 99.703636 218.103839 
L 100.210909 207.260752 
L 100.718182 199.90017 
L 101.225455 199.066252 
L 101.732727 208.211801 
L 102.24 214.513974 
L 102.747273 209.912425 
L 103.254545 204.606532 
L 103.761818 201.19544 
L 104.269091 211.896945 
L 104.776364 208.260405 
L 105.283636 210.460884 
L 105.790909 206.324837 
L 106.298182 202.048587 
L 106.805455 201.696414 
L 107.312727 200.276779 
L 107.82 199.011946 
L 108.327273 191.59703 
L 108.834545 200.303495 
L 109.341818 200.409534 
L 109.849091 210.369842 
L 110.356364 212.223118 
L 110.863636 207.357247 
L 111.370909 204.586965 
L 111.878182 203.45942 
L 112.385455 207.532867 
L 112.892727 207.189971 
L 113.4 206.29896 
L 113.907273 213.965089 
L 114.414545 215.5519 
L 114.921818 215.759089 
L 115.429091 211.95627 
L 115.936364 212.516642 
L 116.443636 211.504943 
L 116.950909 214.180095 
L 117.458182 209.025781 
L 117.965455 211.136182 
L 118.472727 199.130428 
L 118.98 192.430311 
L 119.487273 202.740254 
L 119.994545 198.761045 
L 120.501818 214.509594 
L 121.009091 209.299039 
L 121.516364 217.802746 
L 122.023636 216.405952 
L 122.530909 225.132946 
L 123.038182 219.196479 
L 123.545455 208.341144 
L 124.052727 202.501932 
L 124.56 201.558579 
L 125.067273 204.177633 
L 125.574545 208.109654 
L 126.081818 207.589628 
L 126.589091 211.076819 
L 127.096364 220.385006 
L 127.603636 223.052064 
L 128.110909 219.615817 
L 128.618182 214.451443 
L 129.125455 221.241847 
L 129.632727 210.639263 
L 130.14 202.557855 
L 130.647273 211.337122 
L 131.154545 197.733514 
L 131.661818 204.758738 
L 132.169091 210.044337 
L 132.676364 212.214506 
L 133.183636 219.300315 
L 133.690909 221.403746 
L 134.198182 216.624889 
L 134.705455 216.739125 
L 135.212727 220.204775 
L 135.72 224.268563 
L 136.227273 221.913564 
L 136.734545 225.381795 
L 137.241818 236.470406 
L 137.749091 230.068757 
L 138.256364 226.61511 
L 138.763636 242.007196 
L 139.270909 229.298617 
L 139.778182 226.877016 
L 140.285455 236.164526 
L 140.792727 231.385361 
L 141.3 233.534533 
L 141.807273 226.197151 
L 142.314545 213.494776 
L 142.821818 224.224928 
L 143.329091 235.641811 
L 143.836364 225.970331 
L 144.343636 217.825569 
L 144.850909 220.902691 
L 145.358182 219.917479 
L 145.865455 218.706982 
L 146.372727 212.039666 
L 146.88 210.300255 
L 147.387273 211.868474 
L 147.894545 222.509213 
L 148.401818 204.008821 
L 148.909091 206.974873 
L 149.416364 212.757831 
L 149.923636 208.695605 
L 150.430909 205.797265 
L 150.938182 213.325303 
L 151.445455 227.98355 
L 151.952727 218.363353 
L 152.46 266.389077 
L 152.967273 225.901943 
L 153.474545 217.972198 
L 153.981818 199.116206 
L 154.489091 197.711097 
L 154.996364 208.278528 
L 155.503636 218.444586 
L 156.010909 230.978918 
L 156.518182 230.178234 
L 157.025455 216.860939 
L 157.532727 200.963259 
L 158.04 219.321187 
L 158.547273 201.613368 
L 159.054545 197.491932 
L 159.561818 211.279272 
L 160.069091 209.117639 
L 160.576364 216.812491 
L 161.083636 219.260984 
L 161.590909 218.399067 
L 162.098182 205.491793 
L 162.605455 212.956362 
L 163.112727 241.602646 
L 163.62 264.221792 
L 164.127273 214.758793 
L 164.634545 216.364232 
L 165.141818 210.876632 
L 165.649091 202.631094 
L 166.156364 207.03238 
L 166.663636 209.434938 
L 167.170909 208.148489 
L 167.678182 242.859341 
L 168.185455 210.217689 
L 168.692727 233.321659 
L 169.2 210.897146 
L 169.707273 210.719033 
L 170.214545 210.249666 
L 170.721818 226.631274 
L 171.229091 233.327892 
L 171.736364 226.602584 
L 172.243636 237.586175 
L 172.750909 238.874873 
L 173.258182 219.914326 
L 173.765455 227.26382 
L 174.272727 193.893439 
L 174.78 193.461411 
L 175.287273 214.909708 
L 175.794545 199.399387 
L 176.301818 242.343684 
L 176.809091 224.745246 
L 177.316364 219.799159 
L 177.823636 217.629983 
L 178.330909 214.066708 
L 178.838182 202.184349 
L 179.345455 203.924694 
L 179.852727 199.087863 
L 180.36 241.898888 
L 180.867273 210.428361 
L 181.374545 197.733493 
L 181.881818 234.935051 
L 182.389091 241.561032 
L 182.896364 206.683864 
L 183.403636 227.844759 
L 183.910909 216.308759 
L 184.418182 217.520356 
L 184.925455 210.460208 
L 185.432727 202.814392 
L 185.94 205.986451 
L 186.447273 265.5673 
L 186.954545 295.488 
L 187.461818 228.201596 
L 187.969091 260.546974 
L 188.476364 203.55053 
L 188.983636 196.06592 
L 189.490909 192.005699 
L 189.998182 191.769122 
L 190.505455 221.754719 
L 191.012727 221.487082 
L 191.52 216.851103 
L 192.027273 207.738022 
L 192.534545 209.276469 
L 193.041818 205.141755 
L 193.549091 199.465686 
L 194.056364 205.143586 
L 194.563636 211.278413 
L 195.070909 217.156615 
L 195.578182 211.821725 
L 196.085455 229.467093 
L 196.592727 218.738415 
L 197.1 219.031702 
L 197.607273 210.063009 
L 198.114545 211.76339 
L 198.621818 221.737406 
L 199.129091 216.808891 
L 199.636364 211.705497 
L 200.143636 211.648905 
L 200.650909 205.202203 
L 201.158182 221.032066 
L 201.665455 226.381252 
L 202.172727 224.923887 
L 202.68 231.018144 
L 203.187273 228.432417 
L 203.694545 218.194472 
L 204.201818 220.626532 
L 204.709091 219.20467 
L 205.216364 206.408207 
L 205.723636 192.265772 
L 206.230909 199.152667 
L 206.738182 209.098416 
L 207.245455 205.058921 
L 207.752727 214.261872 
L 208.26 242.020545 
L 208.767273 208.019611 
L 209.274545 205.832781 
L 209.781818 203.934648 
L 210.289091 206.265135 
L 210.796364 209.988398 
L 211.303636 201.339346 
L 211.810909 195.348965 
L 212.318182 203.266812 
L 212.825455 196.356613 
L 213.332727 192.47956 
L 213.84 205.444145 
L 214.347273 195.494669 
L 214.854545 199.108692 
L 215.361818 196.294002 
L 215.869091 198.415857 
L 216.376364 210.436133 
L 216.883636 210.515348 
L 217.390909 229.689821 
L 217.898182 232.603148 
L 218.405455 236.561164 
L 218.912727 219.057326 
L 219.42 221.130914 
L 219.927273 217.856421 
L 220.434545 223.72831 
L 220.941818 212.249198 
L 221.449091 203.976975 
L 221.956364 210.318397 
L 222.463636 210.663064 
L 222.970909 210.64137 
L 223.478182 208.097358 
L 223.985455 214.605746 
L 224.492727 209.228617 
L 225 202.331976 
L 225.507273 218.167082 
L 226.014545 212.5847 
L 226.521818 212.333858 
L 227.029091 207.685867 
L 227.536364 205.50877 
L 228.043636 204.4391 
L 228.550909 211.146246 
L 229.058182 204.124135 
L 229.565455 195.137948 
L 230.072727 209.928924 
L 230.58 211.574187 
L 231.087273 204.013817 
L 231.594545 207.101659 
L 232.101818 205.681225 
L 232.609091 202.287374 
L 233.116364 211.367307 
L 233.623636 212.396717 
L 234.130909 203.531412 
L 234.638182 197.422817 
L 235.145455 205.969463 
L 235.652727 206.435458 
L 236.16 198.629449 
L 236.667273 201.264435 
L 237.174545 210.419926 
L 237.681818 208.011251 
L 238.189091 212.140711 
L 238.696364 205.380737 
L 239.203636 211.898286 
L 239.710909 215.017847 
L 240.218182 215.90889 
L 240.725455 220.009382 
L 241.232727 211.971998 
L 241.74 200.855588 
L 242.247273 200.688536 
L 242.754545 199.989199 
L 243.261818 204.475042 
L 243.769091 207.799878 
L 244.276364 203.407223 
L 244.783636 208.16737 
L 245.290909 215.520604 
L 245.798182 209.142536 
L 246.305455 209.149952 
L 246.812727 218.812162 
L 247.32 219.311261 
L 247.827273 212.625446 
L 248.334545 198.568763 
L 248.841818 201.543031 
L 249.349091 207.863776 
L 249.856364 202.172644 
L 250.363636 196.233147 
L 250.870909 209.708422 
L 251.378182 200.934462 
L 251.885455 208.141796 
L 252.392727 216.727491 
L 252.9 215.518113 
L 253.407273 215.136019 
L 253.914545 210.051543 
L 254.421818 203.228587 
L 254.929091 206.778001 
L 255.436364 212.294635 
L 255.943636 216.615941 
L 256.450909 208.781378 
L 256.958182 217.017771 
L 257.465455 218.703016 
L 257.972727 215.973157 
L 258.48 224.122447 
L 258.987273 227.982663 
L 259.494545 238.345718 
L 260.001818 228.860274 
L 260.509091 216.657829 
L 261.016364 219.298858 
L 261.523636 230.193249 
L 262.030909 227.087653 
L 262.538182 224.169744 
L 263.045455 224.1494 
L 263.552727 221.105063 
L 264.06 262.699152 
L 264.567273 227.388464 
L 265.074545 221.698836 
L 265.581818 232.062289 
L 266.089091 220.330658 
L 266.596364 210.549011 
L 267.103636 204.882399 
L 267.610909 216.570408 
L 268.118182 214.499628 
L 268.625455 210.933212 
L 269.132727 213.045729 
L 269.64 216.480432 
L 270.147273 221.024568 
L 270.654545 214.874416 
L 271.161818 214.900992 
L 271.669091 220.670823 
L 272.176364 224.869171 
L 272.683636 219.841656 
L 273.190909 219.615264 
L 273.698182 214.534267 
L 274.205455 212.899417 
L 274.712727 225.69195 
L 275.22 218.492799 
L 275.727273 214.902515 
L 276.234545 210.273928 
L 276.741818 213.956969 
L 277.249091 220.058274 
L 277.756364 216.265041 
L 278.263636 213.515251 
L 278.770909 219.664941 
L 279.278182 222.747954 
L 279.785455 223.150209 
L 280.292727 223.584748 
L 280.8 228.513417 
L 281.307273 216.878917 
L 281.814545 212.548903 
L 282.321818 211.333164 
L 282.829091 225.117553 
L 283.336364 225.226905 
L 283.843636 223.408925 
L 284.350909 225.552117 
L 284.858182 231.356873 
L 285.365455 222.395392 
L 285.872727 225.516961 
L 286.38 226.683045 
L 286.887273 221.55827 
L 287.394545 226.657664 
L 287.901818 227.637854 
L 288.409091 223.745731 
L 288.916364 222.794245 
L 289.423636 215.503166 
L 289.930909 202.496925 
L 290.438182 206.025079 
L 290.945455 211.659656 
L 291.452727 215.107679 
L 291.96 210.46635 
L 292.467273 202.313165 
L 292.974545 203.732735 
L 293.481818 215.411366 
L 293.989091 222.222263 
L 294.496364 213.759446 
L 295.003636 203.430145 
L 295.510909 207.125299 
L 296.018182 218.596664 
L 296.525455 210.019406 
L 297.032727 208.45666 
L 297.54 206.087314 
L 298.047273 222.683986 
L 298.554545 214.653027 
L 299.061818 221.848142 
L 299.569091 224.860907 
L 300.076364 217.030561 
L 300.583636 218.180465 
L 301.090909 209.032088 
L 301.598182 214.170113 
L 302.105455 217.413976 
L 302.612727 210.979584 
L 303.12 221.792489 
L 303.627273 223.333022 
L 304.134545 222.624875 
L 304.641818 224.355656 
L 305.149091 232.004194 
L 305.656364 227.002032 
L 306.163636 234.239426 
L 306.670909 226.302027 
L 307.178182 217.25832 
L 307.685455 214.972781 
L 308.192727 222.24168 
L 308.7 225.076555 
L 309.207273 229.717396 
L 309.714545 228.289014 
L 310.221818 226.912666 
L 310.729091 225.810037 
L 311.236364 229.370043 
L 311.743636 218.140992 
L 312.250909 214.958968 
L 312.758182 208.984375 
L 313.265455 217.474075 
L 313.772727 213.086315 
L 314.28 211.129826 
L 314.787273 211.30647 
L 315.294545 216.995885 
L 315.801818 228.808318 
L 316.309091 223.668368 
L 316.816364 217.295051 
L 317.323636 227.364769 
L 317.830909 222.965963 
L 318.338182 219.49136 
L 318.845455 221.1342 
L 319.352727 224.367421 
L 319.86 222.938178 
L 320.367273 217.444413 
L 320.874545 217.441474 
L 321.381818 220.490062 
L 321.889091 222.11181 
L 322.396364 222.330968 
L 322.903636 230.072761 
L 323.410909 232.919969 
L 323.918182 225.567252 
L 324.425455 225.905855 
L 324.932727 234.769303 
L 325.44 226.225328 
L 325.947273 224.194674 
L 326.454545 216.992879 
L 326.961818 213.537525 
L 327.469091 211.374475 
L 327.976364 211.807377 
L 328.483636 219.805383 
L 328.990909 221.825678 
L 329.498182 215.44075 
L 330.005455 213.720277 
L 330.512727 210.350567 
L 331.02 204.785552 
L 331.527273 198.427833 
L 332.034545 206.04211 
L 332.541818 217.238896 
L 333.049091 215.980169 
L 333.556364 210.394812 
L 334.063636 208.410969 
L 334.570909 205.366267 
L 335.078182 207.549224 
L 335.585455 214.776707 
L 336.092727 211.291048 
L 336.6 207.741157 
L 337.107273 209.768834 
L 337.614545 202.305334 
L 338.121818 199.132319 
L 338.629091 212.073876 
L 339.136364 210.842033 
L 339.643636 212.027993 
L 340.150909 205.5114 
L 340.658182 213.431819 
L 341.165455 223.654314 
L 341.672727 213.269274 
L 342.18 216.860687 
L 342.687273 220.52484 
L 343.194545 223.345883 
L 343.701818 226.834794 
L 344.209091 229.557242 
L 344.716364 215.54922 
L 345.223636 215.615798 
L 345.730909 215.625578 
L 346.238182 215.583861 
L 346.745455 219.841101 
L 347.252727 230.057674 
L 347.76 228.497806 
L 348.267273 210.165901 
L 348.774545 216.745639 
L 349.281818 230.837926 
L 349.789091 236.417116 
L 350.296364 232.047995 
L 350.803636 221.409133 
L 351.310909 211.958394 
L 351.818182 216.628016 
L 352.325455 222.271933 
L 352.832727 223.86345 
L 353.34 214.601831 
L 353.847273 229.465449 
L 354.354545 222.620405 
L 354.861818 219.506519 
L 355.369091 224.932427 
L 355.876364 234.785869 
L 356.383636 236.985669 
L 356.890909 230.346323 
L 357.398182 220.894645 
L 357.905455 217.64251 
L 358.412727 216.384429 
L 358.92 211.556592 
L 359.427273 219.98688 
L 359.934545 227.121093 
L 360.441818 226.045283 
L 360.949091 218.125375 
L 361.456364 210.867046 
L 361.963636 206.318641 
L 362.470909 210.664662 
L 362.978182 200.935377 
L 363.485455 206.831702 
L 363.992727 222.789745 
L 364.5 222.649354 
L 365.007273 222.33371 
L 365.514545 240.798352 
L 366.021818 247.622097 
L 366.529091 228.764862 
L 367.036364 235.191897 
L 367.543636 232.90588 
L 368.050909 216.441006 
L 368.558182 217.410194 
L 369.065455 230.155798 
L 369.572727 231.138623 
L 370.08 230.69496 
L 370.587273 228.846739 
L 371.094545 234.745435 
L 371.601818 242.9588 
L 372.109091 242.324366 
L 372.616364 255.571559 
L 373.123636 243.807694 
L 373.630909 219.175412 
L 374.138182 208.791972 
L 374.645455 214.584912 
L 375.152727 224.35795 
L 375.66 221.049778 
L 376.167273 207.683017 
L 376.674545 213.144291 
L 377.181818 219.694094 
L 377.689091 229.845475 
L 378.196364 240.695383 
L 378.703636 242.042527 
L 379.210909 238.584816 
L 379.718182 240.872087 
L 380.225455 230.400453 
L 380.732727 218.408729 
L 381.24 221.4738 
L 381.747273 223.971137 
L 382.254545 221.988353 
L 382.761818 215.244625 
L 383.269091 210.284434 
L 383.776364 220.503122 
L 384.283636 221.507579 
L 384.790909 201.958288 
L 385.298182 205.666935 
L 385.805455 201.097166 
L 386.312727 214.50313 
L 386.82 208.437292 
L 387.327273 210.250498 
L 387.834545 210.353804 
L 388.341818 211.971771 
L 388.849091 213.471836 
L 389.356364 218.853139 
L 389.863636 211.207262 
L 390.370909 200.359765 
L 390.878182 199.627058 
L 391.385455 203.732744 
L 391.892727 203.06383 
L 392.4 202.346415 
L 392.907273 205.898244 
L 393.414545 194.580493 
L 393.921818 200.020875 
L 394.429091 193.536742 
L 394.936364 191.170822 
L 395.443636 189.392794 
L 395.950909 182.795882 
L 396.458182 178.62826 
L 396.965455 183.045184 
L 397.472727 183.564698 
L 397.98 182.588851 
L 398.487273 188.437023 
L 398.487273 158.806438 
L 398.487273 158.806438 
L 397.98 153.503843 
L 397.472727 153.922056 
L 396.965455 152.149186 
L 396.458182 146.061785 
L 395.950909 151.454963 
L 395.443636 162.061863 
L 394.936364 162.681951 
L 394.429091 161.359173 
L 393.921818 170.578856 
L 393.414545 169.780004 
L 392.907273 177.135329 
L 392.4 170.195206 
L 391.892727 169.157506 
L 391.385455 178.617761 
L 390.878182 175.281353 
L 390.370909 179.016466 
L 389.863636 186.844857 
L 389.356364 187.349258 
L 388.849091 176.553849 
L 388.341818 176.553572 
L 387.834545 178.610796 
L 387.327273 180.081062 
L 386.82 182.769711 
L 386.312727 187.667349 
L 385.805455 177.91322 
L 385.298182 182.136417 
L 384.790909 176.960787 
L 384.283636 188.959337 
L 383.776364 190.904808 
L 383.269091 185.385107 
L 382.761818 190.14554 
L 382.254545 192.948643 
L 381.747273 195.379039 
L 381.24 193.396012 
L 380.732727 186.935248 
L 380.225455 197.202613 
L 379.718182 196.198527 
L 379.210909 186.605901 
L 378.703636 194.273806 
L 378.196364 200.15436 
L 377.689091 196.332189 
L 377.181818 191.457141 
L 376.674545 190.865097 
L 376.167273 184.46942 
L 375.66 191.606068 
L 375.152727 188.11829 
L 374.645455 183.582738 
L 374.138182 181.513936 
L 373.630909 192.441952 
L 373.123636 208.501743 
L 372.616364 202.33517 
L 372.109091 193.369239 
L 371.601818 197.482665 
L 371.094545 193.396994 
L 370.587273 195.578443 
L 370.08 201.673562 
L 369.572727 204.745173 
L 369.065455 202.38044 
L 368.558182 190.278544 
L 368.050909 189.126378 
L 367.543636 197.558466 
L 367.036364 196.709412 
L 366.529091 189.310729 
L 366.021818 201.008846 
L 365.514545 202.343299 
L 365.007273 193.471857 
L 364.5 196.959909 
L 363.992727 191.508461 
L 363.485455 174.097301 
L 362.978182 171.782192 
L 362.470909 184.871995 
L 361.963636 184.085934 
L 361.456364 186.244871 
L 360.949091 193.724421 
L 360.441818 198.884023 
L 359.934545 197.717982 
L 359.427273 196.11063 
L 358.92 186.987066 
L 358.412727 193.440013 
L 357.905455 194.465782 
L 357.398182 200.029 
L 356.890909 209.314615 
L 356.383636 212.809845 
L 355.876364 207.716369 
L 355.369091 198.898573 
L 354.861818 190.168467 
L 354.354545 193.264394 
L 353.847273 200.464001 
L 353.34 185.697492 
L 352.832727 188.823457 
L 352.325455 190.730537 
L 351.818182 187.65279 
L 351.310909 186.138061 
L 350.803636 190.132765 
L 350.296364 205.947746 
L 349.789091 213.483009 
L 349.281818 212.385269 
L 348.774545 193.035839 
L 348.267273 187.535297 
L 347.76 201.469292 
L 347.252727 205.617086 
L 346.745455 196.075271 
L 346.238182 192.821138 
L 345.730909 193.042012 
L 345.223636 193.977802 
L 344.716364 194.088583 
L 344.209091 204.815725 
L 343.701818 206.767415 
L 343.194545 205.029813 
L 342.687273 202.658395 
L 342.18 197.511427 
L 341.672727 195.175171 
L 341.165455 206.94515 
L 340.658182 195.971664 
L 340.150909 181.948873 
L 339.643636 190.353084 
L 339.136364 189.656949 
L 338.629091 187.848618 
L 338.121818 178.528232 
L 337.614545 182.907504 
L 337.107273 188.624901 
L 336.6 192.458024 
L 336.092727 194.763632 
L 335.585455 194.856953 
L 335.078182 188.478002 
L 334.570909 184.859145 
L 334.063636 190.097709 
L 333.556364 188.884082 
L 333.049091 194.9999 
L 332.541818 196.341785 
L 332.034545 183.976272 
L 331.527273 176.979717 
L 331.02 181.174276 
L 330.512727 185.544544 
L 330.005455 192.422369 
L 329.498182 194.989308 
L 328.990909 196.29154 
L 328.483636 197.647457 
L 327.976364 195.014879 
L 327.469091 194.006868 
L 326.961818 195.344488 
L 326.454545 201.290113 
L 325.947273 207.538182 
L 325.44 208.013055 
L 324.932727 213.586713 
L 324.425455 206.747077 
L 323.918182 205.221528 
L 323.410909 211.162492 
L 322.903636 209.646766 
L 322.396364 202.223307 
L 321.889091 198.245468 
L 321.381818 196.137574 
L 320.874545 194.95164 
L 320.367273 196.838084 
L 319.86 202.433279 
L 319.352727 202.310369 
L 318.845455 198.4873 
L 318.338182 201.12716 
L 317.830909 202.704863 
L 317.323636 206.599418 
L 316.816364 191.760706 
L 316.309091 197.569465 
L 315.801818 202.380748 
L 315.294545 191.65612 
L 314.787273 189.789676 
L 314.28 190.682341 
L 313.772727 190.193883 
L 313.265455 195.569931 
L 312.758182 188.641543 
L 312.250909 195.694799 
L 311.743636 194.165967 
L 311.236364 203.85382 
L 310.729091 197.80326 
L 310.221818 198.69324 
L 309.714545 200.904894 
L 309.207273 200.832615 
L 308.7 194.855326 
L 308.192727 192.160914 
L 307.685455 187.911516 
L 307.178182 187.3736 
L 306.670909 195.348917 
L 306.163636 206.222245 
L 305.656364 201.261162 
L 305.149091 199.780065 
L 304.641818 194.557204 
L 304.134545 196.484006 
L 303.627273 195.879774 
L 303.12 197.231466 
L 302.612727 182.845003 
L 302.105455 189.763718 
L 301.598182 187.489393 
L 301.090909 185.774689 
L 300.583636 194.367749 
L 300.076364 189.299957 
L 299.569091 197.541268 
L 299.061818 196.830924 
L 298.554545 189.380219 
L 298.047273 192.412667 
L 297.54 175.33315 
L 297.032727 184.000373 
L 296.525455 184.613429 
L 296.018182 193.820898 
L 295.510909 184.741372 
L 295.003636 186.102761 
L 294.496364 191.899761 
L 293.989091 198.973444 
L 293.481818 189.920166 
L 292.974545 180.464305 
L 292.467273 174.740506 
L 291.96 182.663288 
L 291.452727 190.625545 
L 290.945455 190.0348 
L 290.438182 183.398461 
L 289.930909 176.530841 
L 289.423636 192.016393 
L 288.916364 197.451747 
L 288.409091 197.262047 
L 287.901818 201.022206 
L 287.394545 200.292815 
L 286.887273 196.961242 
L 286.38 202.359137 
L 285.872727 198.82664 
L 285.365455 195.418214 
L 284.858182 206.537839 
L 284.350909 202.51427 
L 283.843636 199.665026 
L 283.336364 206.922785 
L 282.829091 211.051045 
L 282.321818 193.750503 
L 281.814545 195.252112 
L 281.307273 196.076502 
L 280.8 206.989233 
L 280.292727 203.396285 
L 279.785455 202.356657 
L 279.278182 201.023929 
L 278.770909 198.57564 
L 278.263636 194.458515 
L 277.756364 195.042531 
L 277.249091 200.110319 
L 276.741818 195.169804 
L 276.234545 183.87384 
L 275.727273 190.968736 
L 275.22 197.14188 
L 274.712727 201.190713 
L 274.205455 190.851738 
L 273.698182 196.94512 
L 273.190909 199.775901 
L 272.683636 196.252652 
L 272.176364 199.432166 
L 271.669091 199.006187 
L 271.161818 194.658826 
L 270.654545 192.962347 
L 270.147273 198.299896 
L 269.64 192.744719 
L 269.132727 186.668145 
L 268.625455 183.60733 
L 268.118182 189.675746 
L 267.610909 193.930546 
L 267.103636 183.146938 
L 266.596364 188.00918 
L 266.089091 192.317027 
L 265.581818 203.428502 
L 265.074545 194.55918 
L 264.567273 204.029622 
L 264.06 212.316623 
L 263.552727 195.090725 
L 263.045455 194.865674 
L 262.538182 195.68271 
L 262.030909 197.126286 
L 261.523636 204.45472 
L 261.016364 193.218908 
L 260.509091 193.576645 
L 260.001818 206.924858 
L 259.494545 209.473665 
L 258.987273 201.786381 
L 258.48 198.481782 
L 257.972727 194.367157 
L 257.465455 195.530202 
L 256.958182 192.532383 
L 256.450909 190.433512 
L 255.943636 199.032011 
L 255.436364 191.234491 
L 254.929091 187.913007 
L 254.421818 180.496976 
L 253.914545 192.22249 
L 253.407273 197.579426 
L 252.9 200.903491 
L 252.392727 204.622518 
L 251.885455 194.920978 
L 251.378182 189.011752 
L 250.870909 187.751581 
L 250.363636 174.957596 
L 249.856364 179.642806 
L 249.349091 185.007756 
L 248.841818 178.078457 
L 248.334545 178.599942 
L 247.827273 190.14392 
L 247.32 193.897169 
L 246.812727 194.487207 
L 246.305455 189.679496 
L 245.798182 191.580232 
L 245.290909 193.298786 
L 244.783636 189.10406 
L 244.276364 180.099944 
L 243.769091 182.036002 
L 243.261818 181.484002 
L 242.754545 176.652985 
L 242.247273 177.318171 
L 241.74 178.210505 
L 241.232727 188.732244 
L 240.725455 192.813554 
L 240.218182 187.377589 
L 239.710909 187.534295 
L 239.203636 188.63126 
L 238.696364 182.394849 
L 238.189091 183.500036 
L 237.681818 180.507432 
L 237.174545 183.085484 
L 236.667273 178.443263 
L 236.16 175.824981 
L 235.652727 183.163214 
L 235.145455 178.753943 
L 234.638182 172.703743 
L 234.130909 180.875987 
L 233.623636 184.782372 
L 233.116364 183.775181 
L 232.609091 180.668138 
L 232.101818 179.215948 
L 231.594545 179.91949 
L 231.087273 177.366723 
L 230.58 183.638596 
L 230.072727 183.896333 
L 229.565455 169.768535 
L 229.058182 175.021811 
L 228.550909 184.459739 
L 228.043636 182.573182 
L 227.536364 183.943963 
L 227.029091 182.676261 
L 226.521818 186.846417 
L 226.014545 187.800346 
L 225.507273 191.490912 
L 225 178.46035 
L 224.492727 184.996772 
L 223.985455 186.310607 
L 223.478182 181.460044 
L 222.970909 186.262533 
L 222.463636 184.3037 
L 221.956364 188.946651 
L 221.449091 186.066041 
L 220.941818 195.474118 
L 220.434545 200.784176 
L 219.927273 194.848807 
L 219.42 196.953706 
L 218.912727 192.828911 
L 218.405455 206.663186 
L 217.898182 209.913344 
L 217.390909 202.893521 
L 216.883636 183.738884 
L 216.376364 182.058178 
L 215.869091 175.290628 
L 215.361818 174.838828 
L 214.854545 177.851399 
L 214.347273 175.803351 
L 213.84 186.261832 
L 213.332727 169.758487 
L 212.825455 170.847597 
L 212.318182 183.298549 
L 211.810909 172.316377 
L 211.303636 180.456236 
L 210.796364 189.420244 
L 210.289091 186.18458 
L 209.781818 181.494695 
L 209.274545 183.73707 
L 208.767273 181.84957 
L 208.26 201.819212 
L 207.752727 186.674662 
L 207.245455 179.418805 
L 206.738182 181.664846 
L 206.230909 172.020251 
L 205.723636 169.046136 
L 205.216364 187.407692 
L 204.709091 200.566785 
L 204.201818 200.276562 
L 203.694545 199.395701 
L 203.187273 203.561824 
L 202.68 206.760392 
L 202.172727 203.881996 
L 201.665455 205.383373 
L 201.158182 199.047338 
L 200.650909 185.375406 
L 200.143636 185.025756 
L 199.636364 189.983156 
L 199.129091 186.659951 
L 198.621818 185.511253 
L 198.114545 187.000194 
L 197.607273 189.264607 
L 197.1 197.464035 
L 196.592727 194.486135 
L 196.085455 198.54313 
L 195.578182 184.574771 
L 195.070909 190.587747 
L 194.563636 190.092541 
L 194.056364 186.795939 
L 193.549091 183.913709 
L 193.041818 186.1801 
L 192.534545 189.865434 
L 192.027273 188.192461 
L 191.52 193.677413 
L 191.012727 194.932932 
L 190.505455 197.674769 
L 189.998182 168.58725 
L 189.490909 170.414522 
L 188.983636 171.056852 
L 188.476364 177.60495 
L 187.969091 191.018498 
L 187.461818 192.576203 
L 186.954545 188.102148 
L 186.447273 182.513175 
L 185.94 182.004112 
L 185.432727 177.672859 
L 184.925455 188.056747 
L 184.418182 193.051128 
L 183.910909 188.533286 
L 183.403636 197.627341 
L 182.896364 182.429545 
L 182.389091 186.366524 
L 181.881818 185.952816 
L 181.374545 171.360357 
L 180.867273 179.641804 
L 180.36 188.020483 
L 179.852727 176.197916 
L 179.345455 179.872844 
L 178.838182 178.254003 
L 178.330909 192.325454 
L 177.823636 197.306118 
L 177.316364 195.509448 
L 176.809091 204.00235 
L 176.301818 199.662348 
L 175.794545 177.647791 
L 175.287273 177.496958 
L 174.78 173.985151 
L 174.272727 170.491038 
L 173.765455 191.186176 
L 173.258182 196.153035 
L 172.750909 215.489362 
L 172.243636 208.718329 
L 171.736364 200.343135 
L 171.229091 203.779715 
L 170.721818 202.717332 
L 170.214545 190.003934 
L 169.707273 187.190804 
L 169.2 193.340093 
L 168.692727 202.873915 
L 168.185455 193.3711 
L 167.678182 196.216376 
L 167.170909 189.132734 
L 166.663636 191.528336 
L 166.156364 187.745703 
L 165.649091 185.840232 
L 165.141818 189.125558 
L 164.634545 191.387566 
L 164.127273 186.1766 
L 163.62 205.21373 
L 163.112727 192.80075 
L 162.605455 189.839952 
L 162.098182 181.900193 
L 161.590909 194.98136 
L 161.083636 195.836186 
L 160.576364 196.423392 
L 160.069091 193.616006 
L 159.561818 194.371169 
L 159.054545 183.376659 
L 158.547273 184.606728 
L 158.04 196.416226 
L 157.532727 182.606936 
L 157.025455 196.055111 
L 156.518182 207.340219 
L 156.010909 208.826562 
L 155.503636 201.78819 
L 154.996364 192.926151 
L 154.489091 180.082827 
L 153.981818 178.468168 
L 153.474545 196.690522 
L 152.967273 203.65519 
L 152.46 197.165852 
L 151.952727 202.060623 
L 151.445455 205.978537 
L 150.938182 196.757305 
L 150.430909 189.371777 
L 149.923636 190.214168 
L 149.416364 193.535726 
L 148.909091 190.901286 
L 148.401818 186.937535 
L 147.894545 200.845104 
L 147.387273 187.563919 
L 146.88 184.660176 
L 146.372727 183.704372 
L 145.865455 188.418319 
L 145.358182 193.69407 
L 144.850909 194.132952 
L 144.343636 194.581073 
L 143.836364 201.808402 
L 143.329091 207.317266 
L 142.821818 199.474377 
L 142.314545 190.898873 
L 141.807273 204.13916 
L 141.3 213.195143 
L 140.792727 212.938719 
L 140.285455 214.889485 
L 139.778182 205.477635 
L 139.270909 207.090543 
L 138.763636 214.738372 
L 138.256364 200.592565 
L 137.749091 207.969413 
L 137.241818 212.537911 
L 136.734545 201.083154 
L 136.227273 195.707887 
L 135.72 202.532379 
L 135.212727 202.879414 
L 134.705455 193.869942 
L 134.198182 192.472669 
L 133.690909 198.753626 
L 133.183636 198.011492 
L 132.676364 186.054635 
L 132.169091 182.714128 
L 131.661818 174.115009 
L 131.154545 174.159831 
L 130.647273 193.537032 
L 130.14 186.801042 
L 129.632727 194.933966 
L 129.125455 198.65181 
L 128.618182 191.04942 
L 128.110909 198.870933 
L 127.603636 202.966394 
L 127.096364 199.846248 
L 126.589091 192.336203 
L 126.081818 189.475349 
L 125.574545 188.314918 
L 125.067273 186.010315 
L 124.56 185.154502 
L 124.052727 186.52793 
L 123.545455 185.544891 
L 123.038182 194.979178 
L 122.530909 201.33375 
L 122.023636 198.715704 
L 121.516364 196.694562 
L 121.009091 191.04581 
L 120.501818 195.368097 
L 119.994545 179.552946 
L 119.487273 178.654978 
L 118.98 169.611925 
L 118.472727 179.972127 
L 117.965455 194.194199 
L 117.458182 185.765263 
L 116.950909 189.059381 
L 116.443636 186.857493 
L 115.936364 191.680028 
L 115.429091 190.474249 
L 114.921818 193.898835 
L 114.414545 194.251411 
L 113.907273 189.85924 
L 113.4 188.003138 
L 112.892727 183.39768 
L 112.385455 184.57724 
L 111.878182 180.534437 
L 111.370909 182.860377 
L 110.863636 182.487137 
L 110.356364 187.435039 
L 109.849091 188.770286 
L 109.341818 179.835411 
L 108.834545 182.223937 
L 108.327273 172.875249 
L 107.82 180.104565 
L 107.312727 174.694787 
L 106.805455 177.69283 
L 106.298182 179.215234 
L 105.790909 178.585305 
L 105.283636 187.367672 
L 104.776364 183.806529 
L 104.269091 184.903257 
L 103.761818 175.96122 
L 103.254545 183.741637 
L 102.747273 189.721914 
L 102.24 193.428066 
L 101.732727 186.254759 
L 101.225455 174.990126 
L 100.718182 179.260096 
L 100.210909 187.308181 
L 99.703636 198.004075 
L 99.196364 198.621355 
L 98.689091 195.947111 
L 98.181818 196.888652 
L 97.674545 202.309848 
L 97.167273 191.494264 
L 96.66 186.644396 
L 96.152727 189.434182 
L 95.645455 186.217616 
L 95.138182 190.166079 
L 94.630909 196.93117 
L 94.123636 201.955443 
L 93.616364 195.189906 
L 93.109091 200.144601 
L 92.601818 203.242211 
L 92.094545 195.75804 
L 91.587273 197.493093 
L 91.08 190.913818 
L 90.572727 184.12702 
L 90.065455 191.738625 
L 89.558182 192.94271 
L 89.050909 190.807285 
L 88.543636 194.929172 
L 88.036364 197.652199 
L 87.529091 207.597176 
L 87.021818 209.565737 
L 86.514545 213.545993 
L 86.007273 206.421929 
L 85.5 203.538544 
L 84.992727 204.250693 
L 84.485455 188.606491 
L 83.978182 188.759323 
L 83.470909 183.766001 
L 82.963636 195.005102 
L 82.456364 196.857406 
L 81.949091 200.600374 
L 81.441818 202.083593 
L 80.934545 203.188754 
L 80.427273 205.260012 
L 79.92 208.409093 
L 79.412727 209.137283 
L 78.905455 203.667709 
L 78.398182 196.898342 
L 77.890909 195.628144 
L 77.383636 187.66505 
L 76.876364 175.912825 
L 76.369091 188.711967 
L 75.861818 199.776824 
L 75.354545 196.865358 
L 74.847273 193.825252 
L 74.34 194.752249 
L 73.832727 182.5638 
z
" clip-path="url(#p7b2f474ddb)" style="fill: #1f77b4; fill-opacity: 0.3"/>
   </g>
   <g id="PathCollection_1"/>
   <g id="matplotlib.axis_1">
    <g id="xtick_1">
     <g id="line2d_1">
      <defs>
       <path id="m1797e08ef3" d="M 0 0 
L 0 3.5 
" style="stroke: #000000; stroke-width: 0.8"/>
      </defs>
      <g>
       <use xlink:href="#m1797e08ef3" x="73.832727" y="307.584" style="stroke: #000000; stroke-width: 0.8"/>
      </g>
     </g>
     <g id="text_1">
      <!-- 0.0 -->
      <g transform="translate(65.881165 322.182437) scale(0.1 -0.1)">
       <defs>
        <path id="DejaVuSans-30" d="M 2034 4250 
Q 1547 4250 1301 3770 
Q 1056 3291 1056 2328 
Q 1056 1369 1301 889 
Q 1547 409 2034 409 
Q 2525 409 2770 889 
Q 3016 1369 3016 2328 
Q 3016 3291 2770 3770 
Q 2525 4250 2034 4250 
z
M 2034 4750 
Q 2819 4750 3233 4129 
Q 3647 3509 3647 2328 
Q 3647 1150 3233 529 
Q 2819 -91 2034 -91 
Q 1250 -91 836 529 
Q 422 1150 422 2328 
Q 422 3509 836 4129 
Q 1250 4750 2034 4750 
z
" transform="scale(0.015625)"/>
        <path id="DejaVuSans-2e" d="M 684 794 
L 1344 794 
L 1344 0 
L 684 0 
L 684 794 
z
" transform="scale(0.015625)"/>
       </defs>
       <use xlink:href="#DejaVuSans-30"/>
       <use xlink:href="#DejaVuSans-2e" x="63.623047"/>
       <use xlink:href="#DejaVuSans-30" x="95.410156"/>
      </g>
     </g>
    </g>
    <g id="xtick_2">
     <g id="line2d_2">
      <g>
       <use xlink:href="#m1797e08ef3" x="138.763636" y="307.584" style="stroke: #000000; stroke-width: 0.8"/>
      </g>
     </g>
     <g id="text_2">
      <!-- 0.5 -->
      <g transform="translate(130.812074 322.182437) scale(0.1 -0.1)">
       <defs>
        <path id="DejaVuSans-35" d="M 691 4666 
L 3169 4666 
L 3169 4134 
L 1269 4134 
L 1269 2991 
Q 1406 3038 1543 3061 
Q 1681 3084 1819 3084 
Q 2600 3084 3056 2656 
Q 3513 2228 3513 1497 
Q 3513 744 3044 326 
Q 2575 -91 1722 -91 
Q 1428 -91 1123 -41 
Q 819 9 494 109 
L 494 744 
Q 775 591 1075 516 
Q 1375 441 1709 441 
Q 2250 441 2565 725 
Q 2881 1009 2881 1497 
Q 2881 1984 2565 2268 
Q 2250 2553 1709 2553 
Q 1456 2553 1204 2497 
Q 953 2441 691 2322 
L 691 4666 
z
" transform="scale(0.015625)"/>
       </defs>
       <use xlink:href="#DejaVuSans-30"/>
       <use xlink:href="#DejaVuSans-2e" x="63.623047"/>
       <use xlink:href="#DejaVuSans-35" x="95.410156"/>
      </g>
     </g>
    </g>
    <g id="xtick_3">
     <g id="line2d_3">
      <g>
       <use xlink:href="#m1797e08ef3" x="203.694545" y="307.584" style="stroke: #000000; stroke-width: 0.8"/>
      </g>
     </g>
     <g id="text_3">
      <!-- 1.0 -->
      <g transform="translate(195.742983 322.182437) scale(0.1 -0.1)">
       <defs>
        <path id="DejaVuSans-31" d="M 794 531 
L 1825 531 
L 1825 4091 
L 703 3866 
L 703 4441 
L 1819 4666 
L 2450 4666 
L 2450 531 
L 3481 531 
L 3481 0 
L 794 0 
L 794 531 
z
" transform="scale(0.015625)"/>
       </defs>
       <use xlink:href="#DejaVuSans-31"/>
       <use xlink:href="#DejaVuSans-2e" x="63.623047"/>
       <use xlink:href="#DejaVuSans-30" x="95.410156"/>
      </g>
     </g>
    </g>
    <g id="xtick_4">
     <g id="line2d_4">
      <g>
       <use xlink:href="#m1797e08ef3" x="268.625455" y="307.584" style="stroke: #000000; stroke-width: 0.8"/>
      </g>
     </g>
     <g id="text_4">
      <!-- 1.5 -->
      <g transform="translate(260.673892 322.182437) scale(0.1 -0.1)">
       <use xlink:href="#DejaVuSans-31"/>
       <use xlink:href="#DejaVuSans-2e" x="63.623047"/>
       <use xlink:href="#DejaVuSans-35" x="95.410156"/>
      </g>
     </g>
    </g>
    <g id="xtick_5">
     <g id="line2d_5">
      <g>
       <use xlink:href="#m1797e08ef3" x="333.556364" y="307.584" style="stroke: #000000; stroke-width: 0.8"/>
      </g>
     </g>
     <g id="text_5">
      <!-- 2.0 -->
      <g transform="translate(325.604801 322.182437) scale(0.1 -0.1)">
       <defs>
        <path id="DejaVuSans-32" d="M 1228 531 
L 3431 531 
L 3431 0 
L 469 0 
L 469 531 
Q 828 903 1448 1529 
Q 2069 2156 2228 2338 
Q 2531 2678 2651 2914 
Q 2772 3150 2772 3378 
Q 2772 3750 2511 3984 
Q 2250 4219 1831 4219 
Q 1534 4219 1204 4116 
Q 875 4013 500 3803 
L 500 4441 
Q 881 4594 1212 4672 
Q 1544 4750 1819 4750 
Q 2544 4750 2975 4387 
Q 3406 4025 3406 3419 
Q 3406 3131 3298 2873 
Q 3191 2616 2906 2266 
Q 2828 2175 2409 1742 
Q 1991 1309 1228 531 
z
" transform="scale(0.015625)"/>
       </defs>
       <use xlink:href="#DejaVuSans-32"/>
       <use xlink:href="#DejaVuSans-2e" x="63.623047"/>
       <use xlink:href="#DejaVuSans-30" x="95.410156"/>
      </g>
     </g>
    </g>
    <g id="xtick_6">
     <g id="line2d_6">
      <g>
       <use xlink:href="#m1797e08ef3" x="398.487273" y="307.584" style="stroke: #000000; stroke-width: 0.8"/>
      </g>
     </g>
     <g id="text_6">
      <!-- 2.5 -->
      <g transform="translate(390.53571 322.182437) scale(0.1 -0.1)">
       <use xlink:href="#DejaVuSans-32"/>
       <use xlink:href="#DejaVuSans-2e" x="63.623047"/>
       <use xlink:href="#DejaVuSans-35" x="95.410156"/>
      </g>
     </g>
    </g>
    <g id="text_7">
     <!-- Time (s) -->
     <g transform="translate(215.831094 335.860562) scale(0.1 -0.1)">
      <defs>
       <path id="DejaVuSans-54" d="M -19 4666 
L 3928 4666 
L 3928 4134 
L 2272 4134 
L 2272 0 
L 1638 0 
L 1638 4134 
L -19 4134 
L -19 4666 
z
" transform="scale(0.015625)"/>
       <path id="DejaVuSans-69" d="M 603 3500 
L 1178 3500 
L 1178 0 
L 603 0 
L 603 3500 
z
M 603 4863 
L 1178 4863 
L 1178 4134 
L 603 4134 
L 603 4863 
z
" transform="scale(0.015625)"/>
       <path id="DejaVuSans-6d" d="M 3328 2828 
Q 3544 3216 3844 3400 
Q 4144 3584 4550 3584 
Q 5097 3584 5394 3201 
Q 5691 2819 5691 2113 
L 5691 0 
L 5113 0 
L 5113 2094 
Q 5113 2597 4934 2840 
Q 4756 3084 4391 3084 
Q 3944 3084 3684 2787 
Q 3425 2491 3425 1978 
L 3425 0 
L 2847 0 
L 2847 2094 
Q 2847 2600 2669 2842 
Q 2491 3084 2119 3084 
Q 1678 3084 1418 2786 
Q 1159 2488 1159 1978 
L 1159 0 
L 581 0 
L 581 3500 
L 1159 3500 
L 1159 2956 
Q 1356 3278 1631 3431 
Q 1906 3584 2284 3584 
Q 2666 3584 2933 3390 
Q 3200 3197 3328 2828 
z
" transform="scale(0.015625)"/>
       <path id="DejaVuSans-65" d="M 3597 1894 
L 3597 1613 
L 953 1613 
Q 991 1019 1311 708 
Q 1631 397 2203 397 
Q 2534 397 2845 478 
Q 3156 559 3463 722 
L 3463 178 
Q 3153 47 2828 -22 
Q 2503 -91 2169 -91 
Q 1331 -91 842 396 
Q 353 884 353 1716 
Q 353 2575 817 3079 
Q 1281 3584 2069 3584 
Q 2775 3584 3186 3129 
Q 3597 2675 3597 1894 
z
M 3022 2063 
Q 3016 2534 2758 2815 
Q 2500 3097 2075 3097 
Q 1594 3097 1305 2825 
Q 1016 2553 972 2059 
L 3022 2063 
z
" transform="scale(0.015625)"/>
       <path id="DejaVuSans-20" transform="scale(0.015625)"/>
       <path id="DejaVuSans-28" d="M 1984 4856 
Q 1566 4138 1362 3434 
Q 1159 2731 1159 2009 
Q 1159 1288 1364 580 
Q 1569 -128 1984 -844 
L 1484 -844 
Q 1016 -109 783 600 
Q 550 1309 550 2009 
Q 550 2706 781 3412 
Q 1013 4119 1484 4856 
L 1984 4856 
z
" transform="scale(0.015625)"/>
       <path id="DejaVuSans-73" d="M 2834 3397 
L 2834 2853 
Q 2591 2978 2328 3040 
Q 2066 3103 1784 3103 
Q 1356 3103 1142 2972 
Q 928 2841 928 2578 
Q 928 2378 1081 2264 
Q 1234 2150 1697 2047 
L 1894 2003 
Q 2506 1872 2764 1633 
Q 3022 1394 3022 966 
Q 3022 478 2636 193 
Q 2250 -91 1575 -91 
Q 1294 -91 989 -36 
Q 684 19 347 128 
L 347 722 
Q 666 556 975 473 
Q 1284 391 1588 391 
Q 1994 391 2212 530 
Q 2431 669 2431 922 
Q 2431 1156 2273 1281 
Q 2116 1406 1581 1522 
L 1381 1569 
Q 847 1681 609 1914 
Q 372 2147 372 2553 
Q 372 3047 722 3315 
Q 1072 3584 1716 3584 
Q 2034 3584 2315 3537 
Q 2597 3491 2834 3397 
z
" transform="scale(0.015625)"/>
       <path id="DejaVuSans-29" d="M 513 4856 
L 1013 4856 
Q 1481 4119 1714 3412 
Q 1947 2706 1947 2009 
Q 1947 1309 1714 600 
Q 1481 -109 1013 -844 
L 513 -844 
Q 928 -128 1133 580 
Q 1338 1288 1338 2009 
Q 1338 2731 1133 3434 
Q 928 4138 513 4856 
z
" transform="scale(0.015625)"/>
      </defs>
      <use xlink:href="#DejaVuSans-54"/>
      <use xlink:href="#DejaVuSans-69" x="57.958984"/>
      <use xlink:href="#DejaVuSans-6d" x="85.742188"/>
      <use xlink:href="#DejaVuSans-65" x="183.154297"/>
      <use xlink:href="#DejaVuSans-20" x="244.677734"/>
      <use xlink:href="#DejaVuSans-28" x="276.464844"/>
      <use xlink:href="#DejaVuSans-73" x="315.478516"/>
      <use xlink:href="#DejaVuSans-29" x="367.578125"/>
     </g>
    </g>
   </g>
   <g id="matplotlib.axis_2">
    <g id="ytick_1">
     <g id="line2d_7">
      <defs>
       <path id="m5d5a130de9" d="M 0 0 
L -3.5 0 
" style="stroke: #000000; stroke-width: 0.8"/>
      </defs>
      <g>
       <use xlink:href="#m5d5a130de9" x="57.6" y="268.609421" style="stroke: #000000; stroke-width: 0.8"/>
      </g>
     </g>
     <g id="text_8">
      <!-- −0.08 -->
      <g transform="translate(19.954687 272.40864) scale(0.1 -0.1)">
       <defs>
        <path id="DejaVuSans-2212" d="M 678 2272 
L 4684 2272 
L 4684 1741 
L 678 1741 
L 678 2272 
z
" transform="scale(0.015625)"/>
        <path id="DejaVuSans-38" d="M 2034 2216 
Q 1584 2216 1326 1975 
Q 1069 1734 1069 1313 
Q 1069 891 1326 650 
Q 1584 409 2034 409 
Q 2484 409 2743 651 
Q 3003 894 3003 1313 
Q 3003 1734 2745 1975 
Q 2488 2216 2034 2216 
z
M 1403 2484 
Q 997 2584 770 2862 
Q 544 3141 544 3541 
Q 544 4100 942 4425 
Q 1341 4750 2034 4750 
Q 2731 4750 3128 4425 
Q 3525 4100 3525 3541 
Q 3525 3141 3298 2862 
Q 3072 2584 2669 2484 
Q 3125 2378 3379 2068 
Q 3634 1759 3634 1313 
Q 3634 634 3220 271 
Q 2806 -91 2034 -91 
Q 1263 -91 848 271 
Q 434 634 434 1313 
Q 434 1759 690 2068 
Q 947 2378 1403 2484 
z
M 1172 3481 
Q 1172 3119 1398 2916 
Q 1625 2713 2034 2713 
Q 2441 2713 2670 2916 
Q 2900 3119 2900 3481 
Q 2900 3844 2670 4047 
Q 2441 4250 2034 4250 
Q 1625 4250 1398 4047 
Q 1172 3844 1172 3481 
z
" transform="scale(0.015625)"/>
       </defs>
       <use xlink:href="#DejaVuSans-2212"/>
       <use xlink:href="#DejaVuSans-30" x="83.789062"/>
       <use xlink:href="#DejaVuSans-2e" x="147.412109"/>
       <use xlink:href="#DejaVuSans-30" x="179.199219"/>
       <use xlink:href="#DejaVuSans-38" x="242.822266"/>
      </g>
     </g>
    </g>
    <g id="ytick_2">
     <g id="line2d_8">
      <g>
       <use xlink:href="#m5d5a130de9" x="57.6" y="214.849066" style="stroke: #000000; stroke-width: 0.8"/>
      </g>
     </g>
     <g id="text_9">
      <!-- −0.06 -->
      <g transform="translate(19.954687 218.648284) scale(0.1 -0.1)">
       <defs>
        <path id="DejaVuSans-36" d="M 2113 2584 
Q 1688 2584 1439 2293 
Q 1191 2003 1191 1497 
Q 1191 994 1439 701 
Q 1688 409 2113 409 
Q 2538 409 2786 701 
Q 3034 994 3034 1497 
Q 3034 2003 2786 2293 
Q 2538 2584 2113 2584 
z
M 3366 4563 
L 3366 3988 
Q 3128 4100 2886 4159 
Q 2644 4219 2406 4219 
Q 1781 4219 1451 3797 
Q 1122 3375 1075 2522 
Q 1259 2794 1537 2939 
Q 1816 3084 2150 3084 
Q 2853 3084 3261 2657 
Q 3669 2231 3669 1497 
Q 3669 778 3244 343 
Q 2819 -91 2113 -91 
Q 1303 -91 875 529 
Q 447 1150 447 2328 
Q 447 3434 972 4092 
Q 1497 4750 2381 4750 
Q 2619 4750 2861 4703 
Q 3103 4656 3366 4563 
z
" transform="scale(0.015625)"/>
       </defs>
       <use xlink:href="#DejaVuSans-2212"/>
       <use xlink:href="#DejaVuSans-30" x="83.789062"/>
       <use xlink:href="#DejaVuSans-2e" x="147.412109"/>
       <use xlink:href="#DejaVuSans-30" x="179.199219"/>
       <use xlink:href="#DejaVuSans-36" x="242.822266"/>
      </g>
     </g>
    </g>
    <g id="ytick_3">
     <g id="line2d_9">
      <g>
       <use xlink:href="#m5d5a130de9" x="57.6" y="161.08871" style="stroke: #000000; stroke-width: 0.8"/>
      </g>
     </g>
     <g id="text_10">
      <!-- −0.04 -->
      <g transform="translate(19.954687 164.887929) scale(0.1 -0.1)">
       <defs>
        <path id="DejaVuSans-34" d="M 2419 4116 
L 825 1625 
L 2419 1625 
L 2419 4116 
z
M 2253 4666 
L 3047 4666 
L 3047 1625 
L 3713 1625 
L 3713 1100 
L 3047 1100 
L 3047 0 
L 2419 0 
L 2419 1100 
L 313 1100 
L 313 1709 
L 2253 4666 
z
" transform="scale(0.015625)"/>
       </defs>
       <use xlink:href="#DejaVuSans-2212"/>
       <use xlink:href="#DejaVuSans-30" x="83.789062"/>
       <use xlink:href="#DejaVuSans-2e" x="147.412109"/>
       <use xlink:href="#DejaVuSans-30" x="179.199219"/>
       <use xlink:href="#DejaVuSans-34" x="242.822266"/>
      </g>
     </g>
    </g>
    <g id="ytick_4">
     <g id="line2d_10">
      <g>
       <use xlink:href="#m5d5a130de9" x="57.6" y="107.328355" style="stroke: #000000; stroke-width: 0.8"/>
      </g>
     </g>
     <g id="text_11">
      <!-- −0.02 -->
      <g transform="translate(19.954687 111.127574) scale(0.1 -0.1)">
       <use xlink:href="#DejaVuSans-2212"/>
       <use xlink:href="#DejaVuSans-30" x="83.789062"/>
       <use xlink:href="#DejaVuSans-2e" x="147.412109"/>
       <use xlink:href="#DejaVuSans-30" x="179.199219"/>
       <use xlink:href="#DejaVuSans-32" x="242.822266"/>
      </g>
     </g>
    </g>
    <g id="ytick_5">
     <g id="line2d_11">
      <g>
       <use xlink:href="#m5d5a130de9" x="57.6" y="53.568" style="stroke: #000000; stroke-width: 0.8"/>
      </g>
     </g>
     <g id="text_12">
      <!-- 0.00 -->
      <g transform="translate(28.334375 57.367219) scale(0.1 -0.1)">
       <use xlink:href="#DejaVuSans-30"/>
       <use xlink:href="#DejaVuSans-2e" x="63.623047"/>
       <use xlink:href="#DejaVuSans-30" x="95.410156"/>
       <use xlink:href="#DejaVuSans-30" x="159.033203"/>
      </g>
     </g>
    </g>
    <g id="text_13">
     <!-- Score -->
     <g transform="translate(13.875 188.530344) rotate(-90) scale(0.1 -0.1)">
      <defs>
       <path id="DejaVuSans-53" d="M 3425 4513 
L 3425 3897 
Q 3066 4069 2747 4153 
Q 2428 4238 2131 4238 
Q 1616 4238 1336 4038 
Q 1056 3838 1056 3469 
Q 1056 3159 1242 3001 
Q 1428 2844 1947 2747 
L 2328 2669 
Q 3034 2534 3370 2195 
Q 3706 1856 3706 1288 
Q 3706 609 3251 259 
Q 2797 -91 1919 -91 
Q 1588 -91 1214 -16 
Q 841 59 441 206 
L 441 856 
Q 825 641 1194 531 
Q 1563 422 1919 422 
Q 2459 422 2753 634 
Q 3047 847 3047 1241 
Q 3047 1584 2836 1778 
Q 2625 1972 2144 2069 
L 1759 2144 
Q 1053 2284 737 2584 
Q 422 2884 422 3419 
Q 422 4038 858 4394 
Q 1294 4750 2059 4750 
Q 2388 4750 2728 4690 
Q 3069 4631 3425 4513 
z
" transform="scale(0.015625)"/>
       <path id="DejaVuSans-63" d="M 3122 3366 
L 3122 2828 
Q 2878 2963 2633 3030 
Q 2388 3097 2138 3097 
Q 1578 3097 1268 2742 
Q 959 2388 959 1747 
Q 959 1106 1268 751 
Q 1578 397 2138 397 
Q 2388 397 2633 464 
Q 2878 531 3122 666 
L 3122 134 
Q 2881 22 2623 -34 
Q 2366 -91 2075 -91 
Q 1284 -91 818 406 
Q 353 903 353 1747 
Q 353 2603 823 3093 
Q 1294 3584 2113 3584 
Q 2378 3584 2631 3529 
Q 2884 3475 3122 3366 
z
" transform="scale(0.015625)"/>
       <path id="DejaVuSans-6f" d="M 1959 3097 
Q 1497 3097 1228 2736 
Q 959 2375 959 1747 
Q 959 1119 1226 758 
Q 1494 397 1959 397 
Q 2419 397 2687 759 
Q 2956 1122 2956 1747 
Q 2956 2369 2687 2733 
Q 2419 3097 1959 3097 
z
M 1959 3584 
Q 2709 3584 3137 3096 
Q 3566 2609 3566 1747 
Q 3566 888 3137 398 
Q 2709 -91 1959 -91 
Q 1206 -91 779 398 
Q 353 888 353 1747 
Q 353 2609 779 3096 
Q 1206 3584 1959 3584 
z
" transform="scale(0.015625)"/>
       <path id="DejaVuSans-72" d="M 2631 2963 
Q 2534 3019 2420 3045 
Q 2306 3072 2169 3072 
Q 1681 3072 1420 2755 
Q 1159 2438 1159 1844 
L 1159 0 
L 581 0 
L 581 3500 
L 1159 3500 
L 1159 2956 
Q 1341 3275 1631 3429 
Q 1922 3584 2338 3584 
Q 2397 3584 2469 3576 
Q 2541 3569 2628 3553 
L 2631 2963 
z
" transform="scale(0.015625)"/>
      </defs>
      <use xlink:href="#DejaVuSans-53"/>
      <use xlink:href="#DejaVuSans-63" x="63.476562"/>
      <use xlink:href="#DejaVuSans-6f" x="118.457031"/>
      <use xlink:href="#DejaVuSans-72" x="179.638672"/>
      <use xlink:href="#DejaVuSans-65" x="218.501953"/>
     </g>
    </g>
   </g>
   <g id="line2d_12">
    <path d="M 73.832727 190.994132 
L 74.34 203.934645 
L 74.847273 203.448914 
L 75.354545 206.568792 
L 75.861818 207.177882 
L 76.369091 198.468187 
L 76.876364 186.345125 
L 77.890909 206.208758 
L 78.398182 206.204222 
L 78.905455 213.950305 
L 79.412727 219.881717 
L 79.92 218.612211 
L 80.934545 212.536638 
L 81.441818 213.527143 
L 81.949091 212.975178 
L 82.456364 208.010797 
L 82.963636 206.418935 
L 83.470909 194.993482 
L 83.978182 202.975308 
L 84.485455 201.535497 
L 84.992727 216.614233 
L 85.5 216.486326 
L 86.007273 218.130791 
L 86.514545 225.862859 
L 87.021818 221.082317 
L 87.529091 219.066689 
L 88.036364 209.288415 
L 88.543636 208.235223 
L 89.050909 206.032295 
L 89.558182 207.670461 
L 90.065455 205.829188 
L 90.572727 196.732605 
L 91.587273 207.007047 
L 92.094545 204.671607 
L 92.601818 212.764095 
L 93.109091 211.464695 
L 93.616364 206.395262 
L 94.123636 212.609721 
L 94.630909 208.905786 
L 95.138182 201.076411 
L 95.645455 198.398895 
L 96.152727 200.480404 
L 96.66 196.585031 
L 97.167273 203.074629 
L 97.674545 213.86018 
L 98.181818 207.266372 
L 98.689091 206.834517 
L 99.196364 210.243506 
L 99.703636 208.053957 
L 100.210909 197.284467 
L 100.718182 189.580133 
L 101.225455 187.028189 
L 101.732727 197.23328 
L 102.24 203.97102 
L 102.747273 199.817169 
L 103.761818 188.57833 
L 104.269091 198.400101 
L 104.776364 196.033467 
L 105.283636 198.914278 
L 105.790909 192.455071 
L 106.298182 190.63191 
L 106.805455 189.694622 
L 107.312727 187.485783 
L 107.82 189.558255 
L 108.327273 182.23614 
L 108.834545 191.263716 
L 109.341818 190.122473 
L 109.849091 199.570064 
L 110.356364 199.829079 
L 110.863636 194.922192 
L 111.370909 193.723671 
L 111.878182 191.996929 
L 112.385455 196.055054 
L 112.892727 195.293826 
L 113.4 197.151049 
L 113.907273 201.912164 
L 114.414545 204.901656 
L 114.921818 204.828962 
L 115.429091 201.21526 
L 115.936364 202.098335 
L 116.443636 199.181218 
L 116.950909 201.619738 
L 117.458182 197.395522 
L 117.965455 202.665191 
L 118.472727 189.551277 
L 118.98 181.021118 
L 119.487273 190.697616 
L 119.994545 189.156996 
L 120.501818 204.938846 
L 121.009091 200.172425 
L 121.516364 207.248654 
L 122.023636 207.560828 
L 122.530909 213.233348 
L 123.038182 207.087828 
L 123.545455 196.943017 
L 124.052727 194.514931 
L 124.56 193.35654 
L 125.067273 195.093974 
L 125.574545 198.212286 
L 126.081818 198.532488 
L 126.589091 201.706511 
L 127.096364 210.115627 
L 127.603636 213.009229 
L 128.110909 209.243375 
L 128.618182 202.750431 
L 129.125455 209.946828 
L 130.14 194.679448 
L 130.647273 202.437077 
L 131.154545 185.946673 
L 131.661818 189.436873 
L 132.169091 196.379233 
L 132.676364 199.13457 
L 133.183636 208.655903 
L 133.690909 210.078686 
L 134.198182 204.548779 
L 134.705455 205.304533 
L 135.212727 211.542094 
L 135.72 213.400471 
L 136.227273 208.810725 
L 136.734545 213.232475 
L 137.241818 224.504158 
L 138.256364 213.603837 
L 138.763636 228.372784 
L 139.270909 218.19458 
L 139.778182 216.177326 
L 140.285455 225.527005 
L 140.792727 222.16204 
L 141.3 223.364838 
L 141.807273 215.168156 
L 142.314545 202.196825 
L 143.329091 221.479539 
L 144.343636 206.203321 
L 144.850909 207.517821 
L 145.358182 206.805775 
L 145.865455 203.562651 
L 146.372727 197.872019 
L 146.88 197.480215 
L 147.387273 199.716196 
L 147.894545 211.677159 
L 148.401818 195.473178 
L 149.416364 203.146779 
L 149.923636 199.454886 
L 150.430909 197.584521 
L 150.938182 205.041304 
L 151.445455 216.981043 
L 151.952727 210.211988 
L 152.46 231.777465 
L 152.967273 214.778566 
L 153.474545 207.33136 
L 153.981818 188.792187 
L 154.489091 188.896962 
L 155.503636 210.116388 
L 156.010909 219.90274 
L 156.518182 218.759227 
L 157.532727 191.785097 
L 158.04 207.868707 
L 158.547273 193.110048 
L 159.054545 190.434296 
L 159.561818 202.82522 
L 160.069091 201.366822 
L 160.576364 206.617941 
L 161.083636 207.548585 
L 161.590909 206.690214 
L 162.098182 193.695993 
L 162.605455 201.398157 
L 163.62 234.717761 
L 164.127273 200.467696 
L 164.634545 203.875899 
L 165.141818 200.001095 
L 165.649091 194.235663 
L 166.663636 200.481637 
L 167.170909 198.640612 
L 167.678182 219.537858 
L 168.185455 201.794394 
L 168.692727 218.097787 
L 169.2 202.118619 
L 169.707273 198.954918 
L 170.214545 200.1268 
L 170.721818 214.674303 
L 171.229091 218.553804 
L 171.736364 213.472859 
L 172.243636 223.152252 
L 172.750909 227.182118 
L 173.258182 208.033681 
L 173.765455 209.224998 
L 174.272727 182.192238 
L 174.78 183.723281 
L 175.287273 196.203333 
L 175.794545 188.523589 
L 176.301818 221.003016 
L 177.316364 207.654303 
L 177.823636 207.468051 
L 178.330909 203.196081 
L 178.838182 190.219176 
L 179.345455 191.898769 
L 179.852727 187.64289 
L 180.36 214.959686 
L 180.867273 195.035082 
L 181.374545 184.546925 
L 181.881818 210.443934 
L 182.389091 213.963778 
L 182.896364 194.556705 
L 183.403636 212.73605 
L 183.910909 202.421022 
L 184.418182 205.285742 
L 184.925455 199.258478 
L 185.432727 190.243626 
L 185.94 193.995281 
L 186.447273 224.040238 
L 186.954545 241.795074 
L 187.461818 210.3889 
L 187.969091 225.782736 
L 188.476364 190.57774 
L 188.983636 183.561386 
L 189.490909 181.210111 
L 189.998182 180.178186 
L 190.505455 209.714744 
L 191.012727 208.210007 
L 191.52 205.264258 
L 192.027273 197.965241 
L 192.534545 199.570951 
L 193.549091 191.689697 
L 195.070909 203.872181 
L 195.578182 198.198248 
L 196.085455 214.005111 
L 196.592727 206.612275 
L 197.1 208.247869 
L 197.607273 199.663808 
L 198.114545 199.381792 
L 198.621818 203.624329 
L 199.129091 201.734421 
L 199.636364 200.844326 
L 200.650909 195.288805 
L 201.158182 210.039702 
L 201.665455 215.882313 
L 202.172727 214.402942 
L 202.68 218.889268 
L 203.187273 215.99712 
L 203.694545 208.795086 
L 204.201818 210.451547 
L 204.709091 209.885727 
L 205.216364 196.907949 
L 205.723636 180.655954 
L 206.230909 185.586459 
L 206.738182 195.381631 
L 207.245455 192.238863 
L 207.752727 200.468267 
L 208.26 221.919879 
L 208.767273 194.934591 
L 209.274545 194.784926 
L 209.781818 192.714672 
L 210.796364 199.704321 
L 211.810909 183.832671 
L 212.318182 193.282681 
L 212.825455 183.602105 
L 213.332727 181.119023 
L 213.84 195.852988 
L 214.347273 185.64901 
L 214.854545 188.480046 
L 215.361818 185.566415 
L 215.869091 186.853243 
L 216.376364 196.247156 
L 216.883636 197.127116 
L 217.390909 216.291671 
L 217.898182 221.258246 
L 218.405455 221.612175 
L 218.912727 205.943118 
L 219.42 209.04231 
L 219.927273 206.352614 
L 220.434545 212.256243 
L 221.449091 195.021508 
L 221.956364 199.632524 
L 222.463636 197.483382 
L 222.970909 198.451951 
L 223.478182 194.778701 
L 223.985455 200.458176 
L 224.492727 197.112695 
L 225 190.396163 
L 225.507273 204.828997 
L 226.014545 200.192523 
L 226.521818 199.590137 
L 227.029091 195.181064 
L 227.536364 194.726366 
L 228.043636 193.506141 
L 228.550909 197.802992 
L 229.565455 182.453242 
L 230.072727 196.912628 
L 230.58 197.606392 
L 231.087273 190.69027 
L 231.594545 193.510575 
L 232.609091 191.477756 
L 233.116364 197.571244 
L 233.623636 198.589545 
L 234.638182 185.06328 
L 235.145455 192.361703 
L 235.652727 194.799336 
L 236.16 187.227215 
L 236.667273 189.853849 
L 237.174545 196.752705 
L 237.681818 194.259342 
L 238.189091 197.820373 
L 238.696364 193.887793 
L 239.203636 200.264773 
L 239.710909 201.276071 
L 240.218182 201.64324 
L 240.725455 206.411468 
L 241.232727 200.352121 
L 241.74 189.533046 
L 242.754545 188.321092 
L 243.261818 192.979522 
L 243.769091 194.91794 
L 244.276364 191.753584 
L 245.290909 204.409695 
L 245.798182 200.361384 
L 246.305455 199.414724 
L 246.812727 206.649685 
L 247.32 206.604215 
L 247.827273 201.384683 
L 248.334545 188.584352 
L 248.841818 189.810744 
L 249.349091 196.435766 
L 250.363636 185.595371 
L 250.870909 198.730001 
L 251.378182 194.973107 
L 251.885455 201.531387 
L 252.392727 210.675005 
L 252.9 208.210802 
L 253.407273 206.357723 
L 253.914545 201.137016 
L 254.421818 191.862782 
L 255.943636 207.823976 
L 256.450909 199.607445 
L 256.958182 204.775077 
L 257.465455 207.116609 
L 257.972727 205.170157 
L 258.48 211.302115 
L 258.987273 214.884522 
L 259.494545 223.909691 
L 260.001818 217.892566 
L 260.509091 205.117237 
L 261.016364 206.258883 
L 261.523636 217.323984 
L 262.030909 212.10697 
L 262.538182 209.926227 
L 263.045455 209.507537 
L 263.552727 208.097894 
L 264.06 237.507887 
L 264.567273 215.709043 
L 265.074545 208.129008 
L 265.581818 217.745396 
L 266.089091 206.323843 
L 266.596364 199.279095 
L 267.103636 194.014669 
L 267.610909 205.250477 
L 268.118182 202.087687 
L 268.625455 197.270271 
L 269.132727 199.856937 
L 270.147273 209.662232 
L 270.654545 203.918381 
L 271.161818 204.779909 
L 271.669091 209.838505 
L 272.176364 212.150669 
L 272.683636 208.047154 
L 273.190909 209.695583 
L 274.205455 201.875577 
L 274.712727 213.441332 
L 276.234545 197.073884 
L 276.741818 204.563386 
L 277.249091 210.084297 
L 277.756364 205.653786 
L 278.263636 203.986883 
L 278.770909 209.120291 
L 279.278182 211.885941 
L 280.292727 213.490516 
L 280.8 217.751325 
L 281.307273 206.47771 
L 281.814545 203.900508 
L 282.321818 202.541833 
L 282.829091 218.084299 
L 283.336364 216.074845 
L 283.843636 211.536975 
L 284.350909 214.033194 
L 284.858182 218.947356 
L 285.365455 208.906803 
L 285.872727 212.171801 
L 286.38 214.521091 
L 286.887273 209.259756 
L 287.394545 213.475239 
L 287.901818 214.33003 
L 288.409091 210.503889 
L 288.916364 210.122996 
L 289.423636 203.759779 
L 289.930909 189.513883 
L 290.945455 200.847228 
L 291.452727 202.866612 
L 291.96 196.564819 
L 292.467273 188.526836 
L 292.974545 192.09852 
L 293.481818 202.665766 
L 293.989091 210.597854 
L 295.003636 194.766453 
L 295.510909 195.933335 
L 296.018182 206.208781 
L 296.525455 197.316418 
L 297.032727 196.228516 
L 297.54 190.710232 
L 298.047273 207.548327 
L 298.554545 202.016623 
L 299.061818 209.339533 
L 299.569091 211.201088 
L 300.076364 203.165259 
L 300.583636 206.274107 
L 301.090909 197.403388 
L 302.105455 203.588847 
L 302.612727 196.912293 
L 303.12 209.511978 
L 303.627273 209.606398 
L 304.641818 209.45643 
L 305.149091 215.892129 
L 305.656364 214.131597 
L 306.163636 220.230835 
L 307.178182 202.31596 
L 307.685455 201.442148 
L 308.192727 207.201297 
L 308.7 209.965941 
L 309.207273 215.275005 
L 309.714545 214.596954 
L 310.221818 212.802953 
L 310.729091 211.806648 
L 311.236364 216.611931 
L 311.743636 206.153479 
L 312.250909 205.326883 
L 312.758182 198.812959 
L 313.265455 206.522003 
L 313.772727 201.640099 
L 314.28 200.906083 
L 314.787273 200.548073 
L 315.294545 204.326003 
L 315.801818 215.594533 
L 316.309091 210.618917 
L 316.816364 204.527878 
L 317.323636 216.982093 
L 317.830909 212.835413 
L 318.338182 210.30926 
L 318.845455 209.81075 
L 319.352727 213.338895 
L 319.86 212.685729 
L 320.367273 207.141249 
L 320.874545 206.196557 
L 322.396364 212.277137 
L 322.903636 219.859764 
L 323.410909 222.04123 
L 323.918182 215.39439 
L 324.425455 216.326466 
L 324.932727 224.178008 
L 325.44 217.119191 
L 325.947273 215.866428 
L 326.454545 209.141496 
L 326.961818 204.441006 
L 327.469091 202.690671 
L 327.976364 203.411128 
L 328.483636 208.72642 
L 328.990909 209.058609 
L 329.498182 205.215029 
L 330.005455 203.071323 
L 331.527273 187.703775 
L 332.034545 195.009191 
L 332.541818 206.79034 
L 333.049091 205.490034 
L 333.556364 199.639447 
L 334.063636 199.254339 
L 334.570909 195.112706 
L 335.078182 198.013613 
L 335.585455 204.81683 
L 336.092727 203.02734 
L 336.6 200.099591 
L 337.107273 199.196868 
L 337.614545 192.606419 
L 338.121818 188.830276 
L 338.629091 199.961247 
L 339.136364 200.249491 
L 339.643636 201.190539 
L 340.150909 193.730137 
L 341.165455 215.299732 
L 341.672727 204.222222 
L 342.18 207.186057 
L 342.687273 211.591618 
L 343.701818 216.801104 
L 344.209091 217.186483 
L 344.716364 204.818902 
L 345.223636 204.7968 
L 345.730909 204.333795 
L 346.238182 204.2025 
L 346.745455 207.958186 
L 347.252727 217.83738 
L 347.76 214.983549 
L 348.267273 198.850599 
L 348.774545 204.890739 
L 349.281818 221.611598 
L 349.789091 224.950062 
L 350.296364 218.997871 
L 350.803636 205.770949 
L 351.310909 199.048228 
L 351.818182 202.140403 
L 352.325455 206.501235 
L 352.832727 206.343453 
L 353.34 200.149661 
L 353.847273 214.964725 
L 354.354545 207.942399 
L 354.861818 204.837493 
L 355.369091 211.9155 
L 355.876364 221.251119 
L 356.383636 224.897757 
L 356.890909 219.830469 
L 357.398182 210.461823 
L 357.905455 206.054146 
L 358.412727 204.912221 
L 358.92 199.271829 
L 359.427273 208.048755 
L 359.934545 212.419538 
L 360.441818 212.464653 
L 361.456364 198.555959 
L 361.963636 195.202288 
L 362.470909 197.768328 
L 362.978182 186.358785 
L 363.485455 190.464502 
L 363.992727 207.149103 
L 364.5 209.804632 
L 365.007273 207.902784 
L 365.514545 221.570826 
L 366.021818 224.315472 
L 366.529091 209.037795 
L 367.036364 215.950655 
L 367.543636 215.232173 
L 368.050909 202.783692 
L 368.558182 203.844369 
L 369.065455 216.268119 
L 369.572727 217.941898 
L 370.08 216.184261 
L 370.587273 212.212591 
L 371.094545 214.071215 
L 371.601818 220.220733 
L 372.109091 217.846802 
L 372.616364 228.953365 
L 373.123636 226.154718 
L 373.630909 205.808682 
L 374.138182 195.152954 
L 374.645455 199.083825 
L 375.152727 206.23812 
L 375.66 206.327923 
L 376.167273 196.076218 
L 376.674545 202.004694 
L 377.181818 205.575617 
L 378.196364 220.424871 
L 378.703636 218.158167 
L 379.210909 212.595359 
L 379.718182 218.535307 
L 380.225455 213.801533 
L 380.732727 202.671988 
L 381.24 207.434906 
L 381.747273 209.675088 
L 382.254545 207.468498 
L 383.269091 197.834771 
L 383.776364 205.703965 
L 384.283636 205.233458 
L 384.790909 189.459538 
L 385.298182 193.901676 
L 385.805455 189.505193 
L 386.312727 201.08524 
L 386.82 195.603501 
L 387.327273 195.16578 
L 387.834545 194.4823 
L 388.341818 194.262672 
L 388.849091 195.012842 
L 389.356364 203.101199 
L 389.863636 199.02606 
L 390.370909 189.688116 
L 390.878182 187.454206 
L 391.385455 191.175252 
L 391.892727 186.110668 
L 392.4 186.270811 
L 392.907273 191.516787 
L 393.414545 182.180248 
L 393.921818 185.299866 
L 394.429091 177.447958 
L 394.936364 176.926386 
L 395.443636 175.727329 
L 395.950909 167.125422 
L 396.458182 162.345023 
L 396.965455 167.597185 
L 397.472727 168.743377 
L 397.98 168.046347 
L 398.487273 173.621731 
L 398.487273 173.621731 
" clip-path="url(#p7b2f474ddb)" style="fill: none; stroke: #1f77b4; stroke-width: 1.5; stroke-linecap: square"/>
   </g>
   <g id="line2d_13">
    <path d="M 57.6 53.568 
L 414.72 53.568 
" clip-path="url(#p7b2f474ddb)" style="fill: none; stroke-dasharray: 5.55,2.4; stroke-dashoffset: 0; stroke: #000000; stroke-width: 1.5"/>
   </g>
   <g id="patch_3">
    <path d="M 57.6 307.584 
L 57.6 41.472 
" style="fill: none; stroke: #000000; stroke-width: 0.8; stroke-linejoin: miter; stroke-linecap: square"/>
   </g>
   <g id="patch_4">
    <path d="M 414.72 307.584 
L 414.72 41.472 
" style="fill: none; stroke: #000000; stroke-width: 0.8; stroke-linejoin: miter; stroke-linecap: square"/>
   </g>
   <g id="patch_5">
    <path d="M 57.6 307.584 
L 414.72 307.584 
" style="fill: none; stroke: #000000; stroke-width: 0.8; stroke-linejoin: miter; stroke-linecap: square"/>
   </g>
   <g id="patch_6">
    <path d="M 57.6 41.472 
L 414.72 41.472 
" style="fill: none; stroke: #000000; stroke-width: 0.8; stroke-linejoin: miter; stroke-linecap: square"/>
   </g>
   <g id="text_14">
    <!-- ERP Sliding R2 (Frontal Region) -->
    <g transform="translate(142.997813 35.472) scale(0.12 -0.12)">
     <defs>
      <path id="DejaVuSans-45" d="M 628 4666 
L 3578 4666 
L 3578 4134 
L 1259 4134 
L 1259 2753 
L 3481 2753 
L 3481 2222 
L 1259 2222 
L 1259 531 
L 3634 531 
L 3634 0 
L 628 0 
L 628 4666 
z
" transform="scale(0.015625)"/>
      <path id="DejaVuSans-52" d="M 2841 2188 
Q 3044 2119 3236 1894 
Q 3428 1669 3622 1275 
L 4263 0 
L 3584 0 
L 2988 1197 
Q 2756 1666 2539 1819 
Q 2322 1972 1947 1972 
L 1259 1972 
L 1259 0 
L 628 0 
L 628 4666 
L 2053 4666 
Q 2853 4666 3247 4331 
Q 3641 3997 3641 3322 
Q 3641 2881 3436 2590 
Q 3231 2300 2841 2188 
z
M 1259 4147 
L 1259 2491 
L 2053 2491 
Q 2509 2491 2742 2702 
Q 2975 2913 2975 3322 
Q 2975 3731 2742 3939 
Q 2509 4147 2053 4147 
L 1259 4147 
z
" transform="scale(0.015625)"/>
      <path id="DejaVuSans-50" d="M 1259 4147 
L 1259 2394 
L 2053 2394 
Q 2494 2394 2734 2622 
Q 2975 2850 2975 3272 
Q 2975 3691 2734 3919 
Q 2494 4147 2053 4147 
L 1259 4147 
z
M 628 4666 
L 2053 4666 
Q 2838 4666 3239 4311 
Q 3641 3956 3641 3272 
Q 3641 2581 3239 2228 
Q 2838 1875 2053 1875 
L 1259 1875 
L 1259 0 
L 628 0 
L 628 4666 
z
" transform="scale(0.015625)"/>
      <path id="DejaVuSans-6c" d="M 603 4863 
L 1178 4863 
L 1178 0 
L 603 0 
L 603 4863 
z
" transform="scale(0.015625)"/>
      <path id="DejaVuSans-64" d="M 2906 2969 
L 2906 4863 
L 3481 4863 
L 3481 0 
L 2906 0 
L 2906 525 
Q 2725 213 2448 61 
Q 2172 -91 1784 -91 
Q 1150 -91 751 415 
Q 353 922 353 1747 
Q 353 2572 751 3078 
Q 1150 3584 1784 3584 
Q 2172 3584 2448 3432 
Q 2725 3281 2906 2969 
z
M 947 1747 
Q 947 1113 1208 752 
Q 1469 391 1925 391 
Q 2381 391 2643 752 
Q 2906 1113 2906 1747 
Q 2906 2381 2643 2742 
Q 2381 3103 1925 3103 
Q 1469 3103 1208 2742 
Q 947 2381 947 1747 
z
" transform="scale(0.015625)"/>
      <path id="DejaVuSans-6e" d="M 3513 2113 
L 3513 0 
L 2938 0 
L 2938 2094 
Q 2938 2591 2744 2837 
Q 2550 3084 2163 3084 
Q 1697 3084 1428 2787 
Q 1159 2491 1159 1978 
L 1159 0 
L 581 0 
L 581 3500 
L 1159 3500 
L 1159 2956 
Q 1366 3272 1645 3428 
Q 1925 3584 2291 3584 
Q 2894 3584 3203 3211 
Q 3513 2838 3513 2113 
z
" transform="scale(0.015625)"/>
      <path id="DejaVuSans-67" d="M 2906 1791 
Q 2906 2416 2648 2759 
Q 2391 3103 1925 3103 
Q 1463 3103 1205 2759 
Q 947 2416 947 1791 
Q 947 1169 1205 825 
Q 1463 481 1925 481 
Q 2391 481 2648 825 
Q 2906 1169 2906 1791 
z
M 3481 434 
Q 3481 -459 3084 -895 
Q 2688 -1331 1869 -1331 
Q 1566 -1331 1297 -1286 
Q 1028 -1241 775 -1147 
L 775 -588 
Q 1028 -725 1275 -790 
Q 1522 -856 1778 -856 
Q 2344 -856 2625 -561 
Q 2906 -266 2906 331 
L 2906 616 
Q 2728 306 2450 153 
Q 2172 0 1784 0 
Q 1141 0 747 490 
Q 353 981 353 1791 
Q 353 2603 747 3093 
Q 1141 3584 1784 3584 
Q 2172 3584 2450 3431 
Q 2728 3278 2906 2969 
L 2906 3500 
L 3481 3500 
L 3481 434 
z
" transform="scale(0.015625)"/>
      <path id="DejaVuSans-46" d="M 628 4666 
L 3309 4666 
L 3309 4134 
L 1259 4134 
L 1259 2759 
L 3109 2759 
L 3109 2228 
L 1259 2228 
L 1259 0 
L 628 0 
L 628 4666 
z
" transform="scale(0.015625)"/>
      <path id="DejaVuSans-74" d="M 1172 4494 
L 1172 3500 
L 2356 3500 
L 2356 3053 
L 1172 3053 
L 1172 1153 
Q 1172 725 1289 603 
Q 1406 481 1766 481 
L 2356 481 
L 2356 0 
L 1766 0 
Q 1100 0 847 248 
Q 594 497 594 1153 
L 594 3053 
L 172 3053 
L 172 3500 
L 594 3500 
L 594 4494 
L 1172 4494 
z
" transform="scale(0.015625)"/>
      <path id="DejaVuSans-61" d="M 2194 1759 
Q 1497 1759 1228 1600 
Q 959 1441 959 1056 
Q 959 750 1161 570 
Q 1363 391 1709 391 
Q 2188 391 2477 730 
Q 2766 1069 2766 1631 
L 2766 1759 
L 2194 1759 
z
M 3341 1997 
L 3341 0 
L 2766 0 
L 2766 531 
Q 2569 213 2275 61 
Q 1981 -91 1556 -91 
Q 1019 -91 701 211 
Q 384 513 384 1019 
Q 384 1609 779 1909 
Q 1175 2209 1959 2209 
L 2766 2209 
L 2766 2266 
Q 2766 2663 2505 2880 
Q 2244 3097 1772 3097 
Q 1472 3097 1187 3025 
Q 903 2953 641 2809 
L 641 3341 
Q 956 3463 1253 3523 
Q 1550 3584 1831 3584 
Q 2591 3584 2966 3190 
Q 3341 2797 3341 1997 
z
" transform="scale(0.015625)"/>
     </defs>
     <use xlink:href="#DejaVuSans-45"/>
     <use xlink:href="#DejaVuSans-52" x="63.183594"/>
     <use xlink:href="#DejaVuSans-50" x="132.666016"/>
     <use xlink:href="#DejaVuSans-20" x="192.96875"/>
     <use xlink:href="#DejaVuSans-53" x="224.755859"/>
     <use xlink:href="#DejaVuSans-6c" x="288.232422"/>
     <use xlink:href="#DejaVuSans-69" x="316.015625"/>
     <use xlink:href="#DejaVuSans-64" x="343.798828"/>
     <use xlink:href="#DejaVuSans-69" x="407.275391"/>
     <use xlink:href="#DejaVuSans-6e" x="435.058594"/>
     <use xlink:href="#DejaVuSans-67" x="498.4375"/>
     <use xlink:href="#DejaVuSans-20" x="561.914062"/>
     <use xlink:href="#DejaVuSans-52" x="593.701172"/>
     <use xlink:href="#DejaVuSans-32" x="663.183594"/>
     <use xlink:href="#DejaVuSans-20" x="726.806641"/>
     <use xlink:href="#DejaVuSans-28" x="758.59375"/>
     <use xlink:href="#DejaVuSans-46" x="797.607422"/>
     <use xlink:href="#DejaVuSans-72" x="847.876953"/>
     <use xlink:href="#DejaVuSans-6f" x="886.740234"/>
     <use xlink:href="#DejaVuSans-6e" x="947.921875"/>
     <use xlink:href="#DejaVuSans-74" x="1011.300781"/>
     <use xlink:href="#DejaVuSans-61" x="1050.509766"/>
     <use xlink:href="#DejaVuSans-6c" x="1111.789062"/>
     <use xlink:href="#DejaVuSans-20" x="1139.572266"/>
     <use xlink:href="#DejaVuSans-52" x="1171.359375"/>
     <use xlink:href="#DejaVuSans-65" x="1236.341797"/>
     <use xlink:href="#DejaVuSans-67" x="1297.865234"/>
     <use xlink:href="#DejaVuSans-69" x="1361.341797"/>
     <use xlink:href="#DejaVuSans-6f" x="1389.125"/>
     <use xlink:href="#DejaVuSans-6e" x="1450.306641"/>
     <use xlink:href="#DejaVuSans-29" x="1513.685547"/>
    </g>
   </g>
  </g>
 </g>
 <defs>
  <clipPath id="p7b2f474ddb">
   <rect x="57.6" y="41.472" width="357.12" height="266.112"/>
  </clipPath>
 </defs>
</svg>
