<?xml version="1.0" encoding="utf-8" standalone="no"?>
<!DOCTYPE svg PUBLIC "-//W3C//DTD SVG 1.1//EN"
  "http://www.w3.org/Graphics/SVG/1.1/DTD/svg11.dtd">
<svg xmlns:xlink="http://www.w3.org/1999/xlink" width="460.8pt" height="345.6pt" viewBox="0 0 460.8 345.6" xmlns="http://www.w3.org/2000/svg" version="1.1">
 <metadata>
  <rdf:RDF xmlns:dc="http://purl.org/dc/elements/1.1/" xmlns:cc="http://creativecommons.org/ns#" xmlns:rdf="http://www.w3.org/1999/02/22-rdf-syntax-ns#">
   <cc:Work>
    <dc:type rdf:resource="http://purl.org/dc/dcmitype/StillImage"/>
    <dc:date>2025-07-04T03:18:26.044259</dc:date>
    <dc:format>image/svg+xml</dc:format>
    <dc:creator>
     <cc:Agent>
      <dc:title>Matplotlib v3.9.4, https://matplotlib.org/</dc:title>
     </cc:Agent>
    </dc:creator>
   </cc:Work>
  </rdf:RDF>
 </metadata>
 <defs>
  <style type="text/css">*{stroke-linejoin: round; stroke-linecap: butt}</style>
 </defs>
 <g id="figure_1">
  <g id="patch_1">
   <path d="M 0 345.6 
L 460.8 345.6 
L 460.8 0 
L 0 0 
z
" style="fill: #ffffff"/>
  </g>
  <g id="axes_1">
   <g id="patch_2">
    <path d="M 57.6 307.584 
L 414.72 307.584 
L 414.72 41.472 
L 57.6 41.472 
z
" style="fill: #ffffff"/>
   </g>
   <g id="PolyCollection_1">
    <path d="M 73.832727 237.645639 
L 73.832727 263.209311 
L 74.34 264.855721 
L 74.847273 276.710798 
L 75.354545 282.309167 
L 75.861818 275.709363 
L 76.369091 280.453657 
L 76.876364 276.042925 
L 77.383636 275.210874 
L 77.890909 280.238798 
L 78.398182 278.257408 
L 78.905455 280.105031 
L 79.412727 278.808131 
L 79.92 277.864356 
L 80.427273 272.480693 
L 80.934545 270.267367 
L 81.441818 261.406849 
L 81.949091 250.097417 
L 82.456364 260.560472 
L 82.963636 263.872555 
L 83.470909 262.375236 
L 83.978182 260.335307 
L 84.485455 261.387313 
L 84.992727 267.353112 
L 85.5 268.437579 
L 86.007273 254.570887 
L 86.514545 261.537008 
L 87.021818 253.71387 
L 87.529091 253.802586 
L 88.036364 261.073635 
L 88.543636 261.516966 
L 89.050909 262.134496 
L 89.558182 254.360244 
L 90.065455 259.102177 
L 90.572727 257.791358 
L 91.08 245.879831 
L 91.587273 251.176584 
L 92.094545 266.087766 
L 92.601818 274.484976 
L 93.109091 270.107332 
L 93.616364 265.146897 
L 94.123636 271.528864 
L 94.630909 269.086971 
L 95.138182 272.070847 
L 95.645455 267.807968 
L 96.152727 257.452312 
L 96.66 253.58003 
L 97.167273 257.499019 
L 97.674545 255.677784 
L 98.181818 257.26682 
L 98.689091 260.873523 
L 99.196364 256.547471 
L 99.703636 246.60483 
L 100.210909 250.47044 
L 100.718182 246.107035 
L 101.225455 240.101701 
L 101.732727 241.102507 
L 102.24 241.815057 
L 102.747273 236.267742 
L 103.254545 238.098526 
L 103.761818 223.585514 
L 104.269091 232.047793 
L 104.776364 239.78363 
L 105.283636 237.24025 
L 105.790909 231.287195 
L 106.298182 240.900703 
L 106.805455 234.087029 
L 107.312727 229.933283 
L 107.82 228.408603 
L 108.327273 225.469071 
L 108.834545 222.890683 
L 109.341818 225.373908 
L 109.849091 216.528976 
L 110.356364 216.020555 
L 110.863636 220.004549 
L 111.370909 220.177785 
L 111.878182 217.241044 
L 112.385455 222.49638 
L 112.892727 226.213033 
L 113.4 220.662941 
L 113.907273 222.721664 
L 114.414545 237.09446 
L 114.921818 243.094617 
L 115.429091 250.649762 
L 115.936364 248.877767 
L 116.443636 239.250912 
L 116.950909 240.763534 
L 117.458182 245.030588 
L 117.965455 240.902265 
L 118.472727 224.746743 
L 118.98 220.103655 
L 119.487273 225.384823 
L 119.994545 229.986099 
L 120.501818 236.452832 
L 121.009091 241.260182 
L 121.516364 238.041649 
L 122.023636 238.097976 
L 122.530909 228.983674 
L 123.038182 233.291846 
L 123.545455 237.394267 
L 124.052727 231.65998 
L 124.56 228.594706 
L 125.067273 235.748304 
L 125.574545 239.923941 
L 126.081818 245.204965 
L 126.589091 252.770463 
L 127.096364 248.944109 
L 127.603636 253.054954 
L 128.110909 256.592346 
L 128.618182 252.681929 
L 129.125455 241.41484 
L 129.632727 229.778797 
L 130.14 231.9992 
L 130.647273 235.250061 
L 131.154545 236.803754 
L 131.661818 241.868363 
L 132.169091 237.823927 
L 132.676364 231.740086 
L 133.183636 245.770423 
L 133.690909 248.266813 
L 134.198182 256.884377 
L 134.705455 248.022971 
L 135.212727 244.859589 
L 135.72 247.442859 
L 136.227273 245.896195 
L 136.734545 239.67827 
L 137.241818 249.659723 
L 137.749091 246.701271 
L 138.256364 246.329557 
L 138.763636 260.073273 
L 139.270909 264.743982 
L 139.778182 272.766808 
L 140.285455 273.397172 
L 140.792727 272.773214 
L 141.3 273.065432 
L 141.807273 268.65492 
L 142.314545 275.870027 
L 142.821818 274.727514 
L 143.329091 277.930122 
L 143.836364 261.422107 
L 144.343636 257.799103 
L 144.850909 267.50102 
L 145.358182 266.305766 
L 145.865455 252.199487 
L 146.372727 250.554166 
L 146.88 267.176494 
L 147.387273 267.092262 
L 147.894545 259.510892 
L 148.401818 253.958507 
L 148.909091 246.81927 
L 149.416364 254.29338 
L 149.923636 249.706655 
L 150.430909 247.8483 
L 150.938182 252.127582 
L 151.445455 270.995963 
L 151.952727 259.25947 
L 152.46 259.574678 
L 152.967273 276.496401 
L 153.474545 261.87382 
L 153.981818 246.366975 
L 154.489091 228.953535 
L 154.996364 231.43463 
L 155.503636 240.420591 
L 156.010909 245.273249 
L 156.518182 237.80546 
L 157.025455 242.508321 
L 157.532727 252.452771 
L 158.04 241.065011 
L 158.547273 238.294999 
L 159.054545 249.508712 
L 159.561818 253.702053 
L 160.069091 256.815169 
L 160.576364 261.231575 
L 161.083636 256.865862 
L 161.590909 263.140782 
L 162.098182 264.503427 
L 162.605455 265.863678 
L 163.112727 260.10456 
L 163.62 241.062437 
L 164.127273 235.720332 
L 164.634545 248.58462 
L 165.141818 245.962843 
L 165.649091 244.59764 
L 166.156364 235.362844 
L 166.663636 207.933634 
L 167.170909 193.939586 
L 167.678182 200.465106 
L 168.185455 214.208716 
L 168.692727 220.165898 
L 169.2 213.714839 
L 169.707273 240.660247 
L 170.214545 249.448312 
L 170.721818 241.203422 
L 171.229091 228.044519 
L 171.736364 225.208279 
L 172.243636 225.119845 
L 172.750909 239.695122 
L 173.258182 248.9366 
L 173.765455 243.60228 
L 174.272727 230.613788 
L 174.78 229.630432 
L 175.287273 238.255866 
L 175.794545 249.190051 
L 176.301818 230.809491 
L 176.809091 220.134908 
L 177.316364 224.458136 
L 177.823636 226.489214 
L 178.330909 224.43436 
L 178.838182 223.514458 
L 179.345455 226.078488 
L 179.852727 219.665119 
L 180.36 215.008527 
L 180.867273 222.213395 
L 181.374545 228.86701 
L 181.881818 226.877247 
L 182.389091 224.058101 
L 182.896364 233.806809 
L 183.403636 235.568423 
L 183.910909 230.886113 
L 184.418182 235.125897 
L 184.925455 223.859871 
L 185.432727 224.995581 
L 185.94 230.482425 
L 186.447273 230.867716 
L 186.954545 232.640231 
L 187.461818 241.404535 
L 187.969091 236.186365 
L 188.476364 226.93951 
L 188.983636 227.979591 
L 189.490909 242.866146 
L 189.998182 247.028244 
L 190.505455 248.64001 
L 191.012727 253.868571 
L 191.52 251.55284 
L 192.027273 247.384146 
L 192.534545 249.865915 
L 193.041818 257.925918 
L 193.549091 253.081618 
L 194.056364 253.068895 
L 194.563636 248.54557 
L 195.070909 235.044035 
L 195.578182 238.65926 
L 196.085455 246.259822 
L 196.592727 254.311186 
L 197.1 256.874993 
L 197.607273 245.772692 
L 198.114545 248.538483 
L 198.621818 250.446348 
L 199.129091 253.788839 
L 199.636364 253.64736 
L 200.143636 252.150898 
L 200.650909 244.790534 
L 201.158182 256.593702 
L 201.665455 257.056256 
L 202.172727 258.299021 
L 202.68 259.633617 
L 203.187273 255.412096 
L 203.694545 261.759435 
L 204.201818 256.674718 
L 204.709091 249.83114 
L 205.216364 228.481802 
L 205.723636 226.296746 
L 206.230909 236.23381 
L 206.738182 239.508765 
L 207.245455 234.240437 
L 207.752727 243.294738 
L 208.26 245.823934 
L 208.767273 239.467964 
L 209.274545 234.353989 
L 209.781818 243.485423 
L 210.289091 248.455098 
L 210.796364 255.012488 
L 211.303636 250.78546 
L 211.810909 236.624963 
L 212.318182 240.185236 
L 212.825455 247.38632 
L 213.332727 245.061087 
L 213.84 247.241926 
L 214.347273 252.0377 
L 214.854545 259.198754 
L 215.361818 260.35942 
L 215.869091 256.43248 
L 216.376364 254.647906 
L 216.883636 249.274934 
L 217.390909 246.854247 
L 217.898182 254.283821 
L 218.405455 263.911659 
L 218.912727 264.745808 
L 219.42 261.883898 
L 219.927273 257.829594 
L 220.434545 251.862707 
L 220.941818 237.415688 
L 221.449091 230.70283 
L 221.956364 228.716443 
L 222.463636 234.338156 
L 222.970909 244.356902 
L 223.478182 251.220781 
L 223.985455 262.455396 
L 224.492727 265.685543 
L 225 269.625111 
L 225.507273 268.329471 
L 226.014545 271.034529 
L 226.521818 271.210441 
L 227.029091 264.308346 
L 227.536364 258.502494 
L 228.043636 260.821485 
L 228.550909 258.274634 
L 229.058182 246.003149 
L 229.565455 256.671513 
L 230.072727 265.78883 
L 230.58 264.13639 
L 231.087273 266.222844 
L 231.594545 271.168465 
L 232.101818 271.053427 
L 232.609091 270.207257 
L 233.116364 265.413153 
L 233.623636 264.482947 
L 234.130909 256.612239 
L 234.638182 255.368248 
L 235.145455 256.239475 
L 235.652727 258.204812 
L 236.16 258.756603 
L 236.667273 262.762874 
L 237.174545 270.137939 
L 237.681818 262.951677 
L 238.189091 267.52925 
L 238.696364 259.192971 
L 239.203636 252.382241 
L 239.710909 249.183996 
L 240.218182 255.103227 
L 240.725455 256.77586 
L 241.232727 258.185722 
L 241.74 243.202003 
L 242.247273 238.348617 
L 242.754545 256.06165 
L 243.261818 254.015741 
L 243.769091 257.143994 
L 244.276364 261.366833 
L 244.783636 266.030395 
L 245.290909 269.156676 
L 245.798182 275.145327 
L 246.305455 271.119915 
L 246.812727 274.910259 
L 247.32 272.420771 
L 247.827273 278.81352 
L 248.334545 274.662204 
L 248.841818 282.454379 
L 249.349091 278.675075 
L 249.856364 269.110361 
L 250.363636 261.343693 
L 250.870909 253.600401 
L 251.378182 264.82769 
L 251.885455 273.641931 
L 252.392727 278.26913 
L 252.9 270.349297 
L 253.407273 262.813736 
L 253.914545 259.598592 
L 254.421818 263.574087 
L 254.929091 263.335334 
L 255.436364 257.815596 
L 255.943636 252.806529 
L 256.450909 257.797259 
L 256.958182 260.73406 
L 257.465455 247.503961 
L 257.972727 253.524295 
L 258.48 285.630164 
L 258.987273 272.783565 
L 259.494545 276.138682 
L 260.001818 282.17077 
L 260.509091 282.1984 
L 261.016364 264.737906 
L 261.523636 258.600401 
L 262.030909 258.902366 
L 262.538182 259.092703 
L 263.045455 258.061389 
L 263.552727 253.313862 
L 264.06 251.49936 
L 264.567273 262.813341 
L 265.074545 263.454125 
L 265.581818 253.365065 
L 266.089091 260.1575 
L 266.596364 251.00183 
L 267.103636 243.752188 
L 267.610909 248.79894 
L 268.118182 247.779111 
L 268.625455 250.033791 
L 269.132727 257.438724 
L 269.64 262.272451 
L 270.147273 273.17374 
L 270.654545 271.327394 
L 271.161818 265.303838 
L 271.669091 265.899818 
L 272.176364 261.448931 
L 272.683636 254.858152 
L 273.190909 252.598019 
L 273.698182 250.356775 
L 274.205455 246.964444 
L 274.712727 247.195157 
L 275.22 243.774383 
L 275.727273 243.042898 
L 276.234545 243.730944 
L 276.741818 238.57042 
L 277.249091 244.993002 
L 277.756364 242.169235 
L 278.263636 242.954114 
L 278.770909 244.930199 
L 279.278182 261.655269 
L 279.785455 270.77976 
L 280.292727 257.175612 
L 280.8 266.750933 
L 281.307273 269.899365 
L 281.814545 273.293105 
L 282.321818 288.631669 
L 282.829091 287.162612 
L 283.336364 283.878447 
L 283.843636 274.956297 
L 284.350909 275.114113 
L 284.858182 267.884615 
L 285.365455 271.979132 
L 285.872727 295.488 
L 286.38 290.582149 
L 286.887273 277.546076 
L 287.394545 266.999254 
L 287.901818 273.528518 
L 288.409091 270.476837 
L 288.916364 261.619109 
L 289.423636 258.731989 
L 289.930909 271.634228 
L 290.438182 274.814257 
L 290.945455 266.675364 
L 291.452727 266.457367 
L 291.96 258.64793 
L 292.467273 262.597384 
L 292.974545 259.916785 
L 293.481818 249.910508 
L 293.989091 256.712305 
L 294.496364 251.00836 
L 295.003636 257.1552 
L 295.510909 260.715634 
L 296.018182 263.361449 
L 296.525455 273.358553 
L 297.032727 283.33867 
L 297.54 269.288332 
L 298.047273 262.322041 
L 298.554545 258.170344 
L 299.061818 260.109002 
L 299.569091 265.476458 
L 300.076364 264.806498 
L 300.583636 265.785976 
L 301.090909 257.991966 
L 301.598182 246.825454 
L 302.105455 255.154877 
L 302.612727 261.310103 
L 303.12 259.476181 
L 303.627273 259.083485 
L 304.134545 258.759918 
L 304.641818 262.995333 
L 305.149091 267.032225 
L 305.656364 259.251696 
L 306.163636 254.318782 
L 306.670909 252.161706 
L 307.178182 233.935638 
L 307.685455 238.493368 
L 308.192727 251.393863 
L 308.7 256.022705 
L 309.207273 265.428007 
L 309.714545 259.531048 
L 310.221818 251.176237 
L 310.729091 260.936564 
L 311.236364 277.419443 
L 311.743636 261.703653 
L 312.250909 256.253544 
L 312.758182 243.407923 
L 313.265455 240.201417 
L 313.772727 234.943024 
L 314.28 243.650795 
L 314.787273 240.880549 
L 315.294545 240.88068 
L 315.801818 256.492846 
L 316.309091 256.335636 
L 316.816364 263.424944 
L 317.323636 272.202871 
L 317.830909 265.147832 
L 318.338182 252.624158 
L 318.845455 251.926205 
L 319.352727 251.278135 
L 319.86 256.664655 
L 320.367273 257.303682 
L 320.874545 254.682774 
L 321.381818 256.000076 
L 321.889091 256.277312 
L 322.396364 264.41526 
L 322.903636 268.671892 
L 323.410909 269.275856 
L 323.918182 259.67984 
L 324.425455 254.078139 
L 324.932727 257.022567 
L 325.44 260.605914 
L 325.947273 272.347083 
L 326.454545 261.487887 
L 326.961818 257.081106 
L 327.469091 251.940341 
L 327.976364 245.53338 
L 328.483636 252.21847 
L 328.990909 250.769091 
L 329.498182 251.494686 
L 330.005455 259.403497 
L 330.512727 259.564644 
L 331.02 257.558041 
L 331.527273 252.705167 
L 332.034545 271.465346 
L 332.541818 273.966971 
L 333.049091 267.7719 
L 333.556364 252.145084 
L 334.063636 238.446565 
L 334.570909 240.65532 
L 335.078182 253.481456 
L 335.585455 260.344577 
L 336.092727 258.905484 
L 336.6 248.227076 
L 337.107273 253.251522 
L 337.614545 261.9826 
L 338.121818 269.542782 
L 338.629091 265.017109 
L 339.136364 252.470131 
L 339.643636 250.827364 
L 340.150909 251.839496 
L 340.658182 250.027399 
L 341.165455 256.087992 
L 341.672727 266.790367 
L 342.18 265.124249 
L 342.687273 277.788637 
L 343.194545 286.315692 
L 343.701818 285.475202 
L 344.209091 284.384617 
L 344.716364 277.757586 
L 345.223636 273.794006 
L 345.730909 266.180548 
L 346.238182 265.623256 
L 346.745455 279.751528 
L 347.252727 279.995311 
L 347.76 271.762574 
L 348.267273 271.327412 
L 348.774545 277.861618 
L 349.281818 280.266107 
L 349.789091 285.963988 
L 350.296364 277.039655 
L 350.803636 270.51586 
L 351.310909 266.125396 
L 351.818182 262.223245 
L 352.325455 262.605543 
L 352.832727 251.540313 
L 353.34 253.586742 
L 353.847273 258.212897 
L 354.354545 259.290878 
L 354.861818 261.022094 
L 355.369091 260.031709 
L 355.876364 256.63493 
L 356.383636 251.266439 
L 356.890909 258.434177 
L 357.398182 274.022194 
L 357.905455 278.788365 
L 358.412727 269.574761 
L 358.92 258.919829 
L 359.427273 259.967655 
L 359.934545 265.116541 
L 360.441818 268.007522 
L 360.949091 262.987188 
L 361.456364 260.346307 
L 361.963636 256.781485 
L 362.470909 258.354605 
L 362.978182 258.318187 
L 363.485455 256.692877 
L 363.992727 258.617934 
L 364.5 259.014112 
L 365.007273 269.248534 
L 365.514545 260.22956 
L 366.021818 257.964492 
L 366.529091 253.464673 
L 367.036364 255.887879 
L 367.543636 263.077412 
L 368.050909 268.067638 
L 368.558182 271.036111 
L 369.065455 278.090268 
L 369.572727 271.567135 
L 370.08 272.006406 
L 370.587273 264.400949 
L 371.094545 260.516737 
L 371.601818 247.321825 
L 372.109091 244.439184 
L 372.616364 242.524833 
L 373.123636 243.202536 
L 373.630909 228.267893 
L 374.138182 234.405164 
L 374.645455 243.995458 
L 375.152727 251.959407 
L 375.66 241.517647 
L 376.167273 231.906134 
L 376.674545 235.61725 
L 377.181818 233.969551 
L 377.689091 241.799615 
L 378.196364 249.689653 
L 378.703636 246.243699 
L 379.210909 237.641318 
L 379.718182 230.637711 
L 380.225455 240.720361 
L 380.732727 249.65243 
L 381.24 252.037176 
L 381.747273 257.18661 
L 382.254545 255.851371 
L 382.761818 252.585883 
L 383.269091 253.470926 
L 383.776364 263.78211 
L 384.283636 256.01232 
L 384.790909 237.946827 
L 385.298182 231.245303 
L 385.805455 236.760546 
L 386.312727 233.314795 
L 386.82 225.88737 
L 387.327273 230.269529 
L 387.834545 230.502148 
L 388.341818 238.612964 
L 388.849091 236.634167 
L 389.356364 241.795555 
L 389.863636 251.836279 
L 390.370909 246.779322 
L 390.878182 242.629933 
L 391.385455 228.717845 
L 391.892727 224.062286 
L 392.4 233.989869 
L 392.907273 232.203414 
L 393.414545 235.003544 
L 393.921818 248.414994 
L 394.429091 239.703893 
L 394.936364 232.404574 
L 395.443636 228.506549 
L 395.950909 225.519369 
L 396.458182 218.631527 
L 396.965455 226.339325 
L 397.472727 217.915031 
L 397.98 211.668692 
L 398.487273 208.499149 
L 398.487273 170.135266 
L 398.487273 170.135266 
L 397.98 170.282324 
L 397.472727 169.17384 
L 396.965455 172.330427 
L 396.458182 165.206135 
L 395.950909 173.574589 
L 395.443636 182.103482 
L 394.936364 187.871112 
L 394.429091 197.083648 
L 393.921818 203.277302 
L 393.414545 197.441539 
L 392.907273 198.464188 
L 392.4 195.339112 
L 391.892727 187.612094 
L 391.385455 192.954133 
L 390.878182 203.631712 
L 390.370909 208.371513 
L 389.863636 213.436739 
L 389.356364 207.836071 
L 388.849091 197.719807 
L 388.341818 194.448956 
L 387.834545 192.337782 
L 387.327273 199.997446 
L 386.82 196.491883 
L 386.312727 204.609474 
L 385.805455 210.490481 
L 385.298182 206.543891 
L 384.790909 210.537629 
L 384.283636 217.434272 
L 383.776364 224.855378 
L 383.269091 221.09793 
L 382.761818 222.297013 
L 382.254545 224.433786 
L 381.747273 224.331414 
L 381.24 221.66841 
L 380.732727 219.917151 
L 380.225455 211.946777 
L 379.718182 200.798322 
L 379.210909 207.714009 
L 378.703636 220.072139 
L 378.196364 228.288384 
L 377.689091 216.547781 
L 377.181818 207.531235 
L 376.674545 206.375988 
L 376.167273 205.347436 
L 375.66 213.490653 
L 375.152727 222.275028 
L 374.645455 217.096636 
L 374.138182 206.839855 
L 373.630909 199.203179 
L 373.123636 209.989979 
L 372.616364 216.475744 
L 372.109091 216.38409 
L 371.601818 220.130804 
L 371.094545 234.365151 
L 370.587273 236.764503 
L 370.08 243.140793 
L 369.572727 242.556582 
L 369.065455 245.344832 
L 368.558182 241.767973 
L 368.050909 236.666646 
L 367.543636 231.940363 
L 367.036364 228.456833 
L 366.529091 226.034659 
L 366.021818 232.179963 
L 365.514545 238.136933 
L 365.007273 238.545484 
L 364.5 229.187063 
L 363.992727 229.178865 
L 363.485455 229.518561 
L 362.978182 231.915327 
L 362.470909 229.324837 
L 361.963636 225.87223 
L 361.456364 224.77572 
L 360.949091 227.110014 
L 360.441818 235.806754 
L 359.934545 239.621164 
L 359.427273 234.163858 
L 358.92 231.578652 
L 358.412727 246.376386 
L 357.905455 250.136107 
L 357.398182 247.187492 
L 356.890909 232.382362 
L 356.383636 229.821602 
L 355.876364 233.844634 
L 355.369091 235.889262 
L 354.861818 235.589995 
L 354.354545 233.092111 
L 353.847273 230.152501 
L 353.34 228.807085 
L 352.832727 230.047658 
L 352.325455 235.807988 
L 351.818182 233.917056 
L 351.310909 242.109049 
L 350.803636 244.254992 
L 350.296364 246.560987 
L 349.789091 256.554067 
L 349.281818 248.457029 
L 348.774545 247.805694 
L 348.267273 245.161135 
L 347.76 241.771157 
L 347.252727 245.686992 
L 346.745455 244.722023 
L 346.238182 235.479362 
L 345.730909 237.225952 
L 345.223636 247.323289 
L 344.716364 254.823145 
L 344.209091 257.393912 
L 343.701818 251.649349 
L 343.194545 249.402009 
L 342.687273 240.443513 
L 342.18 235.666114 
L 341.672727 234.330114 
L 341.165455 228.285382 
L 340.658182 223.485901 
L 340.150909 226.281386 
L 339.643636 227.210535 
L 339.136364 227.11354 
L 338.629091 237.86079 
L 338.121818 243.799758 
L 337.614545 236.553392 
L 337.107273 225.382764 
L 336.6 221.691278 
L 336.092727 230.264845 
L 335.585455 235.442521 
L 335.078182 228.796336 
L 334.570909 220.884535 
L 334.063636 220.33142 
L 333.556364 231.891595 
L 333.049091 245.589275 
L 332.541818 252.652902 
L 332.034545 247.106946 
L 331.527273 234.055706 
L 331.02 236.908309 
L 330.512727 236.70087 
L 330.005455 230.859742 
L 329.498182 223.174565 
L 328.990909 227.477787 
L 328.483636 231.093777 
L 327.976364 225.859324 
L 327.469091 225.595051 
L 326.961818 231.901272 
L 326.454545 237.334906 
L 325.947273 246.531032 
L 325.44 235.176491 
L 324.932727 228.685781 
L 324.425455 230.971642 
L 323.918182 234.706056 
L 323.410909 239.184775 
L 322.903636 243.713876 
L 322.396364 236.339485 
L 321.889091 227.474065 
L 321.381818 227.081611 
L 320.874545 222.021558 
L 320.367273 229.470883 
L 319.86 231.530841 
L 319.352727 225.594667 
L 318.845455 224.593567 
L 318.338182 223.99651 
L 317.830909 227.91453 
L 317.323636 231.567442 
L 316.816364 221.458872 
L 316.309091 217.840742 
L 315.801818 220.132094 
L 315.294545 211.509035 
L 314.787273 207.810344 
L 314.28 209.193697 
L 313.772727 199.891838 
L 313.265455 206.192698 
L 312.758182 214.068306 
L 312.250909 222.075492 
L 311.743636 227.384743 
L 311.236364 242.448256 
L 310.729091 227.79266 
L 310.221818 220.256284 
L 309.714545 225.939663 
L 309.207273 232.184274 
L 308.7 223.947168 
L 308.192727 219.170104 
L 307.685455 206.645166 
L 307.178182 202.833007 
L 306.670909 220.613317 
L 306.163636 226.429857 
L 305.656364 229.723456 
L 305.149091 232.215642 
L 304.641818 227.246313 
L 304.134545 225.03002 
L 303.627273 231.165667 
L 303.12 234.068901 
L 302.612727 234.388799 
L 302.105455 225.591755 
L 301.598182 218.569173 
L 301.090909 228.025089 
L 300.583636 228.284161 
L 300.076364 226.088594 
L 299.569091 228.966646 
L 299.061818 230.243495 
L 298.554545 229.20853 
L 298.047273 226.261091 
L 297.54 232.77783 
L 297.032727 247.42939 
L 296.525455 237.654421 
L 296.018182 227.985967 
L 295.510909 224.969009 
L 295.003636 222.523015 
L 294.496364 221.824045 
L 293.989091 221.763679 
L 293.481818 213.416655 
L 292.974545 222.267154 
L 292.467273 233.111333 
L 291.96 234.661861 
L 291.452727 237.770767 
L 290.945455 237.740827 
L 290.438182 241.450588 
L 289.930909 234.376401 
L 289.423636 222.997772 
L 288.916364 227.136342 
L 288.409091 236.638042 
L 287.901818 240.326717 
L 287.394545 239.657815 
L 286.887273 240.617179 
L 286.38 254.185333 
L 285.872727 260.716788 
L 285.365455 243.617721 
L 284.858182 243.008209 
L 284.350909 249.652881 
L 283.843636 243.172435 
L 283.336364 251.281876 
L 282.829091 255.898951 
L 282.321818 260.493334 
L 281.814545 245.829919 
L 281.307273 244.513481 
L 280.8 240.329301 
L 280.292727 229.197068 
L 279.785455 240.905703 
L 279.278182 235.696403 
L 278.770909 222.166291 
L 278.263636 222.719911 
L 277.756364 218.138413 
L 277.249091 219.635103 
L 276.741818 212.099114 
L 276.234545 214.259941 
L 275.727273 217.801331 
L 275.22 216.309312 
L 274.712727 221.054501 
L 274.205455 224.659142 
L 273.698182 231.289792 
L 273.190909 229.822297 
L 272.683636 229.496916 
L 272.176364 237.135512 
L 271.669091 240.982955 
L 271.161818 240.851534 
L 270.654545 243.986016 
L 270.147273 244.332086 
L 269.64 234.649515 
L 269.132727 230.960398 
L 268.625455 223.415799 
L 268.118182 219.901738 
L 267.610909 221.555845 
L 267.103636 217.847222 
L 266.596364 226.926851 
L 266.089091 232.381975 
L 265.581818 224.430835 
L 265.074545 235.605772 
L 264.567273 235.873125 
L 264.06 230.679317 
L 263.552727 230.636772 
L 263.045455 227.691122 
L 262.538182 233.180312 
L 262.030909 232.650438 
L 261.523636 232.979017 
L 261.016364 237.274831 
L 260.509091 252.315135 
L 260.001818 252.304677 
L 259.494545 244.627447 
L 258.987273 240.976037 
L 258.48 250.479034 
L 257.972727 224.701893 
L 257.465455 217.838388 
L 256.958182 225.561423 
L 256.450909 223.121682 
L 255.943636 216.078297 
L 255.436364 220.372583 
L 254.929091 226.006046 
L 254.421818 225.846162 
L 253.914545 228.561557 
L 253.407273 233.012952 
L 252.9 240.869759 
L 252.392727 242.522445 
L 251.885455 244.096555 
L 251.378182 238.170289 
L 250.870909 221.009201 
L 250.363636 231.851762 
L 249.856364 243.087735 
L 249.349091 245.702579 
L 248.841818 243.753932 
L 248.334545 238.37067 
L 247.827273 243.395412 
L 247.32 236.960341 
L 246.812727 240.206649 
L 246.305455 240.222348 
L 245.798182 246.026027 
L 245.290909 240.357965 
L 244.783636 237.211159 
L 244.276364 233.535269 
L 243.769091 226.05311 
L 243.261818 223.521894 
L 242.754545 223.789075 
L 242.247273 211.658931 
L 241.74 220.943438 
L 241.232727 230.54879 
L 240.725455 226.812616 
L 240.218182 225.221435 
L 239.710909 221.735787 
L 239.203636 220.791906 
L 238.696364 225.838213 
L 238.189091 232.839774 
L 237.681818 234.403952 
L 237.174545 242.224977 
L 236.667273 230.783096 
L 236.16 225.366549 
L 235.652727 226.137623 
L 235.145455 228.211447 
L 234.638182 226.762368 
L 234.130909 226.20053 
L 233.623636 233.069284 
L 233.116364 231.104144 
L 232.609091 242.197101 
L 232.101818 242.799232 
L 231.594545 238.22494 
L 231.087273 232.49754 
L 230.58 234.591433 
L 230.072727 232.320213 
L 229.565455 225.971387 
L 229.058182 214.619772 
L 228.550909 225.274154 
L 228.043636 229.302871 
L 227.536364 234.332784 
L 227.029091 237.291274 
L 226.521818 239.71279 
L 226.014545 237.234508 
L 225.507273 234.258716 
L 225 233.946473 
L 224.492727 233.321034 
L 223.985455 227.99179 
L 223.478182 218.216764 
L 222.970909 217.614701 
L 222.463636 209.274651 
L 221.956364 202.918096 
L 221.449091 207.473321 
L 220.941818 209.944995 
L 220.434545 222.274001 
L 219.927273 230.300143 
L 219.42 234.843559 
L 218.912727 238.768669 
L 218.405455 241.532491 
L 217.898182 228.535486 
L 217.390909 219.565791 
L 216.883636 220.088001 
L 216.376364 222.15901 
L 215.869091 220.734997 
L 215.361818 226.38977 
L 214.854545 225.502424 
L 214.347273 219.694249 
L 213.84 216.407317 
L 213.332727 214.670684 
L 212.825455 220.212412 
L 212.318182 214.023479 
L 211.810909 213.592206 
L 211.303636 230.569969 
L 210.796364 231.549079 
L 210.289091 219.77686 
L 209.781818 213.774273 
L 209.274545 202.184569 
L 208.767273 207.611639 
L 208.26 213.165259 
L 207.752727 208.805367 
L 207.245455 199.626925 
L 206.738182 210.133217 
L 206.230909 209.474427 
L 205.723636 202.87172 
L 205.216364 206.912037 
L 204.709091 219.83259 
L 204.201818 225.02972 
L 203.694545 225.794548 
L 203.187273 223.323882 
L 202.68 230.238097 
L 202.172727 232.72111 
L 201.665455 231.184664 
L 201.158182 232.62293 
L 200.650909 217.759584 
L 200.143636 222.936316 
L 199.636364 227.485609 
L 199.129091 225.142362 
L 198.621818 220.926382 
L 198.114545 214.529274 
L 197.607273 214.972949 
L 197.1 223.647739 
L 196.592727 214.904204 
L 196.085455 206.72022 
L 195.578182 204.374816 
L 195.070909 209.81247 
L 194.563636 222.27418 
L 194.056364 222.889931 
L 193.549091 222.775136 
L 193.041818 230.721218 
L 192.534545 226.667772 
L 192.027273 225.290564 
L 191.52 228.543049 
L 191.012727 228.384292 
L 190.505455 220.66023 
L 189.998182 210.45537 
L 189.490909 208.430628 
L 188.983636 196.406497 
L 188.476364 191.690228 
L 187.969091 200.039999 
L 187.461818 202.90281 
L 186.954545 197.688049 
L 186.447273 202.050176 
L 185.94 195.439051 
L 185.432727 185.918247 
L 184.925455 184.729151 
L 184.418182 202.615657 
L 183.910909 204.346322 
L 183.403636 212.006385 
L 182.896364 208.773845 
L 182.389091 197.984443 
L 181.881818 200.564145 
L 181.374545 204.81664 
L 180.867273 199.717842 
L 180.36 190.731922 
L 179.852727 196.518157 
L 179.345455 203.067486 
L 178.838182 198.066425 
L 178.330909 197.204851 
L 177.823636 197.204067 
L 177.316364 190.270004 
L 176.809091 187.527851 
L 176.301818 199.482014 
L 175.794545 214.653329 
L 175.287273 205.079325 
L 174.78 193.731385 
L 174.272727 189.548187 
L 173.765455 200.120291 
L 173.258182 202.166965 
L 172.750909 200.135222 
L 172.243636 191.67089 
L 171.736364 198.210383 
L 171.229091 205.23844 
L 170.721818 213.827283 
L 170.214545 218.588683 
L 169.707273 206.822891 
L 169.2 185.825963 
L 168.692727 192.562738 
L 168.185455 185.3575 
L 167.678182 171.256457 
L 167.170909 161.142854 
L 166.663636 176.01474 
L 166.156364 209.10275 
L 165.649091 216.854891 
L 165.141818 221.982936 
L 164.634545 221.965828 
L 164.127273 209.148316 
L 163.62 216.482617 
L 163.112727 232.976786 
L 162.605455 236.650495 
L 162.098182 237.584015 
L 161.590909 234.486702 
L 161.083636 224.032724 
L 160.576364 225.076891 
L 160.069091 215.513239 
L 159.561818 217.32892 
L 159.054545 216.321032 
L 158.547273 202.363227 
L 158.04 205.991906 
L 157.532727 225.805974 
L 157.025455 215.271567 
L 156.518182 211.81765 
L 156.010909 218.15838 
L 155.503636 211.594473 
L 154.996364 201.582404 
L 154.489091 203.447975 
L 153.981818 219.113735 
L 153.474545 234.927786 
L 152.967273 244.213548 
L 152.46 237.014187 
L 151.952727 237.129336 
L 151.445455 239.697362 
L 150.938182 228.257102 
L 150.430909 221.071342 
L 149.923636 220.999447 
L 149.416364 223.893543 
L 148.909091 219.455379 
L 148.401818 231.609712 
L 147.894545 237.403668 
L 147.387273 242.334012 
L 146.88 237.886597 
L 146.372727 220.458533 
L 145.865455 224.35711 
L 145.358182 234.153948 
L 144.850909 237.068132 
L 144.343636 229.566743 
L 143.836364 230.321768 
L 143.329091 242.470232 
L 142.821818 239.16858 
L 142.314545 242.665098 
L 141.807273 238.767036 
L 141.3 240.579392 
L 140.792727 239.786847 
L 140.285455 246.164887 
L 139.778182 246.523895 
L 139.270909 239.735417 
L 138.763636 231.504397 
L 138.256364 212.691503 
L 137.749091 216.556634 
L 137.241818 215.243256 
L 136.734545 208.295058 
L 136.227273 215.670048 
L 135.72 222.530303 
L 135.212727 221.42936 
L 134.705455 219.097346 
L 134.198182 227.458802 
L 133.690909 213.881982 
L 133.183636 204.884768 
L 132.676364 193.496452 
L 132.169091 198.789662 
L 131.661818 204.727143 
L 131.154545 202.528915 
L 130.647273 205.327408 
L 130.14 209.774687 
L 129.632727 210.640337 
L 129.125455 217.2664 
L 128.618182 221.291407 
L 128.110909 217.850653 
L 127.603636 213.502568 
L 127.096364 213.969745 
L 126.589091 219.873887 
L 126.081818 212.266693 
L 125.574545 206.264404 
L 125.067273 212.285646 
L 124.56 203.785207 
L 124.052727 209.647569 
L 123.545455 217.846038 
L 123.038182 213.669091 
L 122.530909 201.848511 
L 122.023636 212.471224 
L 121.516364 213.939211 
L 121.009091 213.79509 
L 120.501818 204.317731 
L 119.994545 195.453129 
L 119.487273 189.502181 
L 118.98 185.703503 
L 118.472727 193.203616 
L 117.965455 201.680906 
L 117.458182 204.421903 
L 116.950909 196.99695 
L 116.443636 205.871311 
L 115.936364 214.400121 
L 115.429091 211.625569 
L 114.921818 207.156239 
L 114.414545 203.32946 
L 113.907273 188.33848 
L 113.4 192.060141 
L 112.892727 196.562099 
L 112.385455 191.900252 
L 111.878182 186.955145 
L 111.370909 187.013692 
L 110.863636 186.186811 
L 110.356364 181.957875 
L 109.849091 187.54283 
L 109.341818 193.871285 
L 108.834545 196.905247 
L 108.327273 199.274439 
L 107.82 202.022311 
L 107.312727 204.799504 
L 106.805455 204.030298 
L 106.298182 205.56328 
L 105.790909 193.113278 
L 105.283636 197.837313 
L 104.776364 202.664432 
L 104.269091 193.244348 
L 103.761818 187.146726 
L 103.254545 202.368239 
L 102.747273 207.428224 
L 102.24 212.924954 
L 101.732727 215.504113 
L 101.225455 208.674807 
L 100.718182 219.785055 
L 100.210909 222.085333 
L 99.703636 217.570142 
L 99.196364 225.353205 
L 98.689091 228.22381 
L 98.181818 224.101904 
L 97.674545 220.547622 
L 97.167273 216.171135 
L 96.66 214.913216 
L 96.152727 217.757303 
L 95.645455 230.317256 
L 95.138182 236.531475 
L 94.630909 231.210948 
L 94.123636 231.394159 
L 93.616364 227.14782 
L 93.109091 230.182182 
L 92.601818 236.750046 
L 92.094545 229.738224 
L 91.587273 218.376316 
L 91.08 215.894789 
L 90.572727 227.48251 
L 90.065455 224.631162 
L 89.558182 219.925936 
L 89.050909 228.8596 
L 88.543636 227.7881 
L 88.036364 228.722857 
L 87.529091 230.117367 
L 87.021818 229.195797 
L 86.514545 238.202513 
L 86.007273 233.501792 
L 85.5 242.202625 
L 84.992727 240.007042 
L 84.485455 234.869721 
L 83.978182 232.334891 
L 83.470909 238.123678 
L 82.963636 234.074784 
L 82.456364 230.663793 
L 81.949091 221.579284 
L 81.441818 232.212017 
L 80.934545 238.229077 
L 80.427273 236.303547 
L 79.92 241.023565 
L 79.412727 249.553309 
L 78.905455 251.650749 
L 78.398182 248.337217 
L 77.890909 252.518468 
L 77.383636 254.770923 
L 76.876364 250.585416 
L 76.369091 250.84682 
L 75.861818 246.254585 
L 75.354545 247.897687 
L 74.847273 242.660073 
L 74.34 236.173311 
L 73.832727 237.645639 
z
" clip-path="url(#p6b2efd3552)" style="fill: #1f77b4; fill-opacity: 0.3"/>
   </g>
   <g id="PathCollection_1"/>
   <g id="matplotlib.axis_1">
    <g id="xtick_1">
     <g id="line2d_1">
      <defs>
       <path id="m1cd9565f3a" d="M 0 0 
L 0 3.5 
" style="stroke: #000000; stroke-width: 0.8"/>
      </defs>
      <g>
       <use xlink:href="#m1cd9565f3a" x="73.832727" y="307.584" style="stroke: #000000; stroke-width: 0.8"/>
      </g>
     </g>
     <g id="text_1">
      <!-- 0.0 -->
      <g transform="translate(65.881165 322.182437) scale(0.1 -0.1)">
       <defs>
        <path id="DejaVuSans-30" d="M 2034 4250 
Q 1547 4250 1301 3770 
Q 1056 3291 1056 2328 
Q 1056 1369 1301 889 
Q 1547 409 2034 409 
Q 2525 409 2770 889 
Q 3016 1369 3016 2328 
Q 3016 3291 2770 3770 
Q 2525 4250 2034 4250 
z
M 2034 4750 
Q 2819 4750 3233 4129 
Q 3647 3509 3647 2328 
Q 3647 1150 3233 529 
Q 2819 -91 2034 -91 
Q 1250 -91 836 529 
Q 422 1150 422 2328 
Q 422 3509 836 4129 
Q 1250 4750 2034 4750 
z
" transform="scale(0.015625)"/>
        <path id="DejaVuSans-2e" d="M 684 794 
L 1344 794 
L 1344 0 
L 684 0 
L 684 794 
z
" transform="scale(0.015625)"/>
       </defs>
       <use xlink:href="#DejaVuSans-30"/>
       <use xlink:href="#DejaVuSans-2e" x="63.623047"/>
       <use xlink:href="#DejaVuSans-30" x="95.410156"/>
      </g>
     </g>
    </g>
    <g id="xtick_2">
     <g id="line2d_2">
      <g>
       <use xlink:href="#m1cd9565f3a" x="138.763636" y="307.584" style="stroke: #000000; stroke-width: 0.8"/>
      </g>
     </g>
     <g id="text_2">
      <!-- 0.5 -->
      <g transform="translate(130.812074 322.182437) scale(0.1 -0.1)">
       <defs>
        <path id="DejaVuSans-35" d="M 691 4666 
L 3169 4666 
L 3169 4134 
L 1269 4134 
L 1269 2991 
Q 1406 3038 1543 3061 
Q 1681 3084 1819 3084 
Q 2600 3084 3056 2656 
Q 3513 2228 3513 1497 
Q 3513 744 3044 326 
Q 2575 -91 1722 -91 
Q 1428 -91 1123 -41 
Q 819 9 494 109 
L 494 744 
Q 775 591 1075 516 
Q 1375 441 1709 441 
Q 2250 441 2565 725 
Q 2881 1009 2881 1497 
Q 2881 1984 2565 2268 
Q 2250 2553 1709 2553 
Q 1456 2553 1204 2497 
Q 953 2441 691 2322 
L 691 4666 
z
" transform="scale(0.015625)"/>
       </defs>
       <use xlink:href="#DejaVuSans-30"/>
       <use xlink:href="#DejaVuSans-2e" x="63.623047"/>
       <use xlink:href="#DejaVuSans-35" x="95.410156"/>
      </g>
     </g>
    </g>
    <g id="xtick_3">
     <g id="line2d_3">
      <g>
       <use xlink:href="#m1cd9565f3a" x="203.694545" y="307.584" style="stroke: #000000; stroke-width: 0.8"/>
      </g>
     </g>
     <g id="text_3">
      <!-- 1.0 -->
      <g transform="translate(195.742983 322.182437) scale(0.1 -0.1)">
       <defs>
        <path id="DejaVuSans-31" d="M 794 531 
L 1825 531 
L 1825 4091 
L 703 3866 
L 703 4441 
L 1819 4666 
L 2450 4666 
L 2450 531 
L 3481 531 
L 3481 0 
L 794 0 
L 794 531 
z
" transform="scale(0.015625)"/>
       </defs>
       <use xlink:href="#DejaVuSans-31"/>
       <use xlink:href="#DejaVuSans-2e" x="63.623047"/>
       <use xlink:href="#DejaVuSans-30" x="95.410156"/>
      </g>
     </g>
    </g>
    <g id="xtick_4">
     <g id="line2d_4">
      <g>
       <use xlink:href="#m1cd9565f3a" x="268.625455" y="307.584" style="stroke: #000000; stroke-width: 0.8"/>
      </g>
     </g>
     <g id="text_4">
      <!-- 1.5 -->
      <g transform="translate(260.673892 322.182437) scale(0.1 -0.1)">
       <use xlink:href="#DejaVuSans-31"/>
       <use xlink:href="#DejaVuSans-2e" x="63.623047"/>
       <use xlink:href="#DejaVuSans-35" x="95.410156"/>
      </g>
     </g>
    </g>
    <g id="xtick_5">
     <g id="line2d_5">
      <g>
       <use xlink:href="#m1cd9565f3a" x="333.556364" y="307.584" style="stroke: #000000; stroke-width: 0.8"/>
      </g>
     </g>
     <g id="text_5">
      <!-- 2.0 -->
      <g transform="translate(325.604801 322.182437) scale(0.1 -0.1)">
       <defs>
        <path id="DejaVuSans-32" d="M 1228 531 
L 3431 531 
L 3431 0 
L 469 0 
L 469 531 
Q 828 903 1448 1529 
Q 2069 2156 2228 2338 
Q 2531 2678 2651 2914 
Q 2772 3150 2772 3378 
Q 2772 3750 2511 3984 
Q 2250 4219 1831 4219 
Q 1534 4219 1204 4116 
Q 875 4013 500 3803 
L 500 4441 
Q 881 4594 1212 4672 
Q 1544 4750 1819 4750 
Q 2544 4750 2975 4387 
Q 3406 4025 3406 3419 
Q 3406 3131 3298 2873 
Q 3191 2616 2906 2266 
Q 2828 2175 2409 1742 
Q 1991 1309 1228 531 
z
" transform="scale(0.015625)"/>
       </defs>
       <use xlink:href="#DejaVuSans-32"/>
       <use xlink:href="#DejaVuSans-2e" x="63.623047"/>
       <use xlink:href="#DejaVuSans-30" x="95.410156"/>
      </g>
     </g>
    </g>
    <g id="xtick_6">
     <g id="line2d_6">
      <g>
       <use xlink:href="#m1cd9565f3a" x="398.487273" y="307.584" style="stroke: #000000; stroke-width: 0.8"/>
      </g>
     </g>
     <g id="text_6">
      <!-- 2.5 -->
      <g transform="translate(390.53571 322.182437) scale(0.1 -0.1)">
       <use xlink:href="#DejaVuSans-32"/>
       <use xlink:href="#DejaVuSans-2e" x="63.623047"/>
       <use xlink:href="#DejaVuSans-35" x="95.410156"/>
      </g>
     </g>
    </g>
    <g id="text_7">
     <!-- Time (s) -->
     <g transform="translate(215.831094 335.860562) scale(0.1 -0.1)">
      <defs>
       <path id="DejaVuSans-54" d="M -19 4666 
L 3928 4666 
L 3928 4134 
L 2272 4134 
L 2272 0 
L 1638 0 
L 1638 4134 
L -19 4134 
L -19 4666 
z
" transform="scale(0.015625)"/>
       <path id="DejaVuSans-69" d="M 603 3500 
L 1178 3500 
L 1178 0 
L 603 0 
L 603 3500 
z
M 603 4863 
L 1178 4863 
L 1178 4134 
L 603 4134 
L 603 4863 
z
" transform="scale(0.015625)"/>
       <path id="DejaVuSans-6d" d="M 3328 2828 
Q 3544 3216 3844 3400 
Q 4144 3584 4550 3584 
Q 5097 3584 5394 3201 
Q 5691 2819 5691 2113 
L 5691 0 
L 5113 0 
L 5113 2094 
Q 5113 2597 4934 2840 
Q 4756 3084 4391 3084 
Q 3944 3084 3684 2787 
Q 3425 2491 3425 1978 
L 3425 0 
L 2847 0 
L 2847 2094 
Q 2847 2600 2669 2842 
Q 2491 3084 2119 3084 
Q 1678 3084 1418 2786 
Q 1159 2488 1159 1978 
L 1159 0 
L 581 0 
L 581 3500 
L 1159 3500 
L 1159 2956 
Q 1356 3278 1631 3431 
Q 1906 3584 2284 3584 
Q 2666 3584 2933 3390 
Q 3200 3197 3328 2828 
z
" transform="scale(0.015625)"/>
       <path id="DejaVuSans-65" d="M 3597 1894 
L 3597 1613 
L 953 1613 
Q 991 1019 1311 708 
Q 1631 397 2203 397 
Q 2534 397 2845 478 
Q 3156 559 3463 722 
L 3463 178 
Q 3153 47 2828 -22 
Q 2503 -91 2169 -91 
Q 1331 -91 842 396 
Q 353 884 353 1716 
Q 353 2575 817 3079 
Q 1281 3584 2069 3584 
Q 2775 3584 3186 3129 
Q 3597 2675 3597 1894 
z
M 3022 2063 
Q 3016 2534 2758 2815 
Q 2500 3097 2075 3097 
Q 1594 3097 1305 2825 
Q 1016 2553 972 2059 
L 3022 2063 
z
" transform="scale(0.015625)"/>
       <path id="DejaVuSans-20" transform="scale(0.015625)"/>
       <path id="DejaVuSans-28" d="M 1984 4856 
Q 1566 4138 1362 3434 
Q 1159 2731 1159 2009 
Q 1159 1288 1364 580 
Q 1569 -128 1984 -844 
L 1484 -844 
Q 1016 -109 783 600 
Q 550 1309 550 2009 
Q 550 2706 781 3412 
Q 1013 4119 1484 4856 
L 1984 4856 
z
" transform="scale(0.015625)"/>
       <path id="DejaVuSans-73" d="M 2834 3397 
L 2834 2853 
Q 2591 2978 2328 3040 
Q 2066 3103 1784 3103 
Q 1356 3103 1142 2972 
Q 928 2841 928 2578 
Q 928 2378 1081 2264 
Q 1234 2150 1697 2047 
L 1894 2003 
Q 2506 1872 2764 1633 
Q 3022 1394 3022 966 
Q 3022 478 2636 193 
Q 2250 -91 1575 -91 
Q 1294 -91 989 -36 
Q 684 19 347 128 
L 347 722 
Q 666 556 975 473 
Q 1284 391 1588 391 
Q 1994 391 2212 530 
Q 2431 669 2431 922 
Q 2431 1156 2273 1281 
Q 2116 1406 1581 1522 
L 1381 1569 
Q 847 1681 609 1914 
Q 372 2147 372 2553 
Q 372 3047 722 3315 
Q 1072 3584 1716 3584 
Q 2034 3584 2315 3537 
Q 2597 3491 2834 3397 
z
" transform="scale(0.015625)"/>
       <path id="DejaVuSans-29" d="M 513 4856 
L 1013 4856 
Q 1481 4119 1714 3412 
Q 1947 2706 1947 2009 
Q 1947 1309 1714 600 
Q 1481 -109 1013 -844 
L 513 -844 
Q 928 -128 1133 580 
Q 1338 1288 1338 2009 
Q 1338 2731 1133 3434 
Q 928 4138 513 4856 
z
" transform="scale(0.015625)"/>
      </defs>
      <use xlink:href="#DejaVuSans-54"/>
      <use xlink:href="#DejaVuSans-69" x="57.958984"/>
      <use xlink:href="#DejaVuSans-6d" x="85.742188"/>
      <use xlink:href="#DejaVuSans-65" x="183.154297"/>
      <use xlink:href="#DejaVuSans-20" x="244.677734"/>
      <use xlink:href="#DejaVuSans-28" x="276.464844"/>
      <use xlink:href="#DejaVuSans-73" x="315.478516"/>
      <use xlink:href="#DejaVuSans-29" x="367.578125"/>
     </g>
    </g>
   </g>
   <g id="matplotlib.axis_2">
    <g id="ytick_1">
     <g id="line2d_7">
      <defs>
       <path id="maf6edf0603" d="M 0 0 
L -3.5 0 
" style="stroke: #000000; stroke-width: 0.8"/>
      </defs>
      <g>
       <use xlink:href="#maf6edf0603" x="57.6" y="274.560783" style="stroke: #000000; stroke-width: 0.8"/>
      </g>
     </g>
     <g id="text_8">
      <!-- −0.06 -->
      <g transform="translate(19.954687 278.360002) scale(0.1 -0.1)">
       <defs>
        <path id="DejaVuSans-2212" d="M 678 2272 
L 4684 2272 
L 4684 1741 
L 678 1741 
L 678 2272 
z
" transform="scale(0.015625)"/>
        <path id="DejaVuSans-36" d="M 2113 2584 
Q 1688 2584 1439 2293 
Q 1191 2003 1191 1497 
Q 1191 994 1439 701 
Q 1688 409 2113 409 
Q 2538 409 2786 701 
Q 3034 994 3034 1497 
Q 3034 2003 2786 2293 
Q 2538 2584 2113 2584 
z
M 3366 4563 
L 3366 3988 
Q 3128 4100 2886 4159 
Q 2644 4219 2406 4219 
Q 1781 4219 1451 3797 
Q 1122 3375 1075 2522 
Q 1259 2794 1537 2939 
Q 1816 3084 2150 3084 
Q 2853 3084 3261 2657 
Q 3669 2231 3669 1497 
Q 3669 778 3244 343 
Q 2819 -91 2113 -91 
Q 1303 -91 875 529 
Q 447 1150 447 2328 
Q 447 3434 972 4092 
Q 1497 4750 2381 4750 
Q 2619 4750 2861 4703 
Q 3103 4656 3366 4563 
z
" transform="scale(0.015625)"/>
       </defs>
       <use xlink:href="#DejaVuSans-2212"/>
       <use xlink:href="#DejaVuSans-30" x="83.789062"/>
       <use xlink:href="#DejaVuSans-2e" x="147.412109"/>
       <use xlink:href="#DejaVuSans-30" x="179.199219"/>
       <use xlink:href="#DejaVuSans-36" x="242.822266"/>
      </g>
     </g>
    </g>
    <g id="ytick_2">
     <g id="line2d_8">
      <g>
       <use xlink:href="#maf6edf0603" x="57.6" y="237.728652" style="stroke: #000000; stroke-width: 0.8"/>
      </g>
     </g>
     <g id="text_9">
      <!-- −0.05 -->
      <g transform="translate(19.954687 241.527871) scale(0.1 -0.1)">
       <use xlink:href="#DejaVuSans-2212"/>
       <use xlink:href="#DejaVuSans-30" x="83.789062"/>
       <use xlink:href="#DejaVuSans-2e" x="147.412109"/>
       <use xlink:href="#DejaVuSans-30" x="179.199219"/>
       <use xlink:href="#DejaVuSans-35" x="242.822266"/>
      </g>
     </g>
    </g>
    <g id="ytick_3">
     <g id="line2d_9">
      <g>
       <use xlink:href="#maf6edf0603" x="57.6" y="200.896522" style="stroke: #000000; stroke-width: 0.8"/>
      </g>
     </g>
     <g id="text_10">
      <!-- −0.04 -->
      <g transform="translate(19.954687 204.695741) scale(0.1 -0.1)">
       <defs>
        <path id="DejaVuSans-34" d="M 2419 4116 
L 825 1625 
L 2419 1625 
L 2419 4116 
z
M 2253 4666 
L 3047 4666 
L 3047 1625 
L 3713 1625 
L 3713 1100 
L 3047 1100 
L 3047 0 
L 2419 0 
L 2419 1100 
L 313 1100 
L 313 1709 
L 2253 4666 
z
" transform="scale(0.015625)"/>
       </defs>
       <use xlink:href="#DejaVuSans-2212"/>
       <use xlink:href="#DejaVuSans-30" x="83.789062"/>
       <use xlink:href="#DejaVuSans-2e" x="147.412109"/>
       <use xlink:href="#DejaVuSans-30" x="179.199219"/>
       <use xlink:href="#DejaVuSans-34" x="242.822266"/>
      </g>
     </g>
    </g>
    <g id="ytick_4">
     <g id="line2d_10">
      <g>
       <use xlink:href="#maf6edf0603" x="57.6" y="164.064391" style="stroke: #000000; stroke-width: 0.8"/>
      </g>
     </g>
     <g id="text_11">
      <!-- −0.03 -->
      <g transform="translate(19.954687 167.86361) scale(0.1 -0.1)">
       <defs>
        <path id="DejaVuSans-33" d="M 2597 2516 
Q 3050 2419 3304 2112 
Q 3559 1806 3559 1356 
Q 3559 666 3084 287 
Q 2609 -91 1734 -91 
Q 1441 -91 1130 -33 
Q 819 25 488 141 
L 488 750 
Q 750 597 1062 519 
Q 1375 441 1716 441 
Q 2309 441 2620 675 
Q 2931 909 2931 1356 
Q 2931 1769 2642 2001 
Q 2353 2234 1838 2234 
L 1294 2234 
L 1294 2753 
L 1863 2753 
Q 2328 2753 2575 2939 
Q 2822 3125 2822 3475 
Q 2822 3834 2567 4026 
Q 2313 4219 1838 4219 
Q 1578 4219 1281 4162 
Q 984 4106 628 3988 
L 628 4550 
Q 988 4650 1302 4700 
Q 1616 4750 1894 4750 
Q 2613 4750 3031 4423 
Q 3450 4097 3450 3541 
Q 3450 3153 3228 2886 
Q 3006 2619 2597 2516 
z
" transform="scale(0.015625)"/>
       </defs>
       <use xlink:href="#DejaVuSans-2212"/>
       <use xlink:href="#DejaVuSans-30" x="83.789062"/>
       <use xlink:href="#DejaVuSans-2e" x="147.412109"/>
       <use xlink:href="#DejaVuSans-30" x="179.199219"/>
       <use xlink:href="#DejaVuSans-33" x="242.822266"/>
      </g>
     </g>
    </g>
    <g id="ytick_5">
     <g id="line2d_11">
      <g>
       <use xlink:href="#maf6edf0603" x="57.6" y="127.232261" style="stroke: #000000; stroke-width: 0.8"/>
      </g>
     </g>
     <g id="text_12">
      <!-- −0.02 -->
      <g transform="translate(19.954687 131.03148) scale(0.1 -0.1)">
       <use xlink:href="#DejaVuSans-2212"/>
       <use xlink:href="#DejaVuSans-30" x="83.789062"/>
       <use xlink:href="#DejaVuSans-2e" x="147.412109"/>
       <use xlink:href="#DejaVuSans-30" x="179.199219"/>
       <use xlink:href="#DejaVuSans-32" x="242.822266"/>
      </g>
     </g>
    </g>
    <g id="ytick_6">
     <g id="line2d_12">
      <g>
       <use xlink:href="#maf6edf0603" x="57.6" y="90.40013" style="stroke: #000000; stroke-width: 0.8"/>
      </g>
     </g>
     <g id="text_13">
      <!-- −0.01 -->
      <g transform="translate(19.954687 94.199349) scale(0.1 -0.1)">
       <use xlink:href="#DejaVuSans-2212"/>
       <use xlink:href="#DejaVuSans-30" x="83.789062"/>
       <use xlink:href="#DejaVuSans-2e" x="147.412109"/>
       <use xlink:href="#DejaVuSans-30" x="179.199219"/>
       <use xlink:href="#DejaVuSans-31" x="242.822266"/>
      </g>
     </g>
    </g>
    <g id="ytick_7">
     <g id="line2d_13">
      <g>
       <use xlink:href="#maf6edf0603" x="57.6" y="53.568" style="stroke: #000000; stroke-width: 0.8"/>
      </g>
     </g>
     <g id="text_14">
      <!-- 0.00 -->
      <g transform="translate(28.334375 57.367219) scale(0.1 -0.1)">
       <use xlink:href="#DejaVuSans-30"/>
       <use xlink:href="#DejaVuSans-2e" x="63.623047"/>
       <use xlink:href="#DejaVuSans-30" x="95.410156"/>
       <use xlink:href="#DejaVuSans-30" x="159.033203"/>
      </g>
     </g>
    </g>
    <g id="text_15">
     <!-- Score -->
     <g transform="translate(13.875 188.530344) rotate(-90) scale(0.1 -0.1)">
      <defs>
       <path id="DejaVuSans-53" d="M 3425 4513 
L 3425 3897 
Q 3066 4069 2747 4153 
Q 2428 4238 2131 4238 
Q 1616 4238 1336 4038 
Q 1056 3838 1056 3469 
Q 1056 3159 1242 3001 
Q 1428 2844 1947 2747 
L 2328 2669 
Q 3034 2534 3370 2195 
Q 3706 1856 3706 1288 
Q 3706 609 3251 259 
Q 2797 -91 1919 -91 
Q 1588 -91 1214 -16 
Q 841 59 441 206 
L 441 856 
Q 825 641 1194 531 
Q 1563 422 1919 422 
Q 2459 422 2753 634 
Q 3047 847 3047 1241 
Q 3047 1584 2836 1778 
Q 2625 1972 2144 2069 
L 1759 2144 
Q 1053 2284 737 2584 
Q 422 2884 422 3419 
Q 422 4038 858 4394 
Q 1294 4750 2059 4750 
Q 2388 4750 2728 4690 
Q 3069 4631 3425 4513 
z
" transform="scale(0.015625)"/>
       <path id="DejaVuSans-63" d="M 3122 3366 
L 3122 2828 
Q 2878 2963 2633 3030 
Q 2388 3097 2138 3097 
Q 1578 3097 1268 2742 
Q 959 2388 959 1747 
Q 959 1106 1268 751 
Q 1578 397 2138 397 
Q 2388 397 2633 464 
Q 2878 531 3122 666 
L 3122 134 
Q 2881 22 2623 -34 
Q 2366 -91 2075 -91 
Q 1284 -91 818 406 
Q 353 903 353 1747 
Q 353 2603 823 3093 
Q 1294 3584 2113 3584 
Q 2378 3584 2631 3529 
Q 2884 3475 3122 3366 
z
" transform="scale(0.015625)"/>
       <path id="DejaVuSans-6f" d="M 1959 3097 
Q 1497 3097 1228 2736 
Q 959 2375 959 1747 
Q 959 1119 1226 758 
Q 1494 397 1959 397 
Q 2419 397 2687 759 
Q 2956 1122 2956 1747 
Q 2956 2369 2687 2733 
Q 2419 3097 1959 3097 
z
M 1959 3584 
Q 2709 3584 3137 3096 
Q 3566 2609 3566 1747 
Q 3566 888 3137 398 
Q 2709 -91 1959 -91 
Q 1206 -91 779 398 
Q 353 888 353 1747 
Q 353 2609 779 3096 
Q 1206 3584 1959 3584 
z
" transform="scale(0.015625)"/>
       <path id="DejaVuSans-72" d="M 2631 2963 
Q 2534 3019 2420 3045 
Q 2306 3072 2169 3072 
Q 1681 3072 1420 2755 
Q 1159 2438 1159 1844 
L 1159 0 
L 581 0 
L 581 3500 
L 1159 3500 
L 1159 2956 
Q 1341 3275 1631 3429 
Q 1922 3584 2338 3584 
Q 2397 3584 2469 3576 
Q 2541 3569 2628 3553 
L 2631 2963 
z
" transform="scale(0.015625)"/>
      </defs>
      <use xlink:href="#DejaVuSans-53"/>
      <use xlink:href="#DejaVuSans-63" x="63.476562"/>
      <use xlink:href="#DejaVuSans-6f" x="118.457031"/>
      <use xlink:href="#DejaVuSans-72" x="179.638672"/>
      <use xlink:href="#DejaVuSans-65" x="218.501953"/>
     </g>
    </g>
   </g>
   <g id="line2d_14">
    <path d="M 73.832727 250.427475 
L 74.34 250.514516 
L 74.847273 259.685435 
L 75.354545 265.103427 
L 75.861818 260.981974 
L 76.369091 265.650238 
L 76.876364 263.31417 
L 77.890909 266.378633 
L 78.398182 263.297313 
L 78.905455 265.87789 
L 79.412727 264.18072 
L 80.427273 254.39212 
L 80.934545 254.248222 
L 81.441818 246.809433 
L 81.949091 235.83835 
L 82.456364 245.612132 
L 82.963636 248.97367 
L 83.470909 250.249457 
L 83.978182 246.335099 
L 84.485455 248.128517 
L 84.992727 253.680077 
L 85.5 255.320102 
L 86.007273 244.036339 
L 86.514545 249.86976 
L 87.021818 241.454833 
L 87.529091 241.959976 
L 88.036364 244.898246 
L 88.543636 244.652533 
L 89.050909 245.497048 
L 89.558182 237.14309 
L 90.065455 241.86667 
L 90.572727 242.636934 
L 91.08 230.88731 
L 91.587273 234.77645 
L 92.094545 247.912995 
L 92.601818 255.617511 
L 93.109091 250.144757 
L 93.616364 246.147358 
L 94.123636 251.461511 
L 94.630909 250.148959 
L 95.138182 254.301161 
L 95.645455 249.062612 
L 96.152727 237.604807 
L 96.66 234.246623 
L 97.167273 236.835077 
L 97.674545 238.112703 
L 98.181818 240.684362 
L 98.689091 244.548667 
L 99.196364 240.950338 
L 99.703636 232.087486 
L 100.210909 236.277887 
L 100.718182 232.946045 
L 101.225455 224.388254 
L 101.732727 228.30331 
L 102.24 227.370005 
L 102.747273 221.847983 
L 103.254545 220.233383 
L 103.761818 205.36612 
L 104.776364 221.224031 
L 105.283636 217.538781 
L 105.790909 212.200237 
L 106.298182 223.231991 
L 106.805455 219.058663 
L 107.312727 217.366394 
L 107.82 215.215457 
L 108.834545 209.897965 
L 109.341818 209.622597 
L 109.849091 202.035903 
L 110.356364 198.989215 
L 110.863636 203.09568 
L 111.370909 203.595739 
L 111.878182 202.098094 
L 112.892727 211.387566 
L 113.4 206.361541 
L 113.907273 205.530072 
L 114.414545 220.21196 
L 114.921818 225.125428 
L 115.429091 231.137666 
L 115.936364 231.638944 
L 116.443636 222.561111 
L 116.950909 218.880242 
L 117.458182 224.726245 
L 117.965455 221.291586 
L 118.472727 208.975179 
L 118.98 202.903579 
L 119.994545 212.719614 
L 121.009091 227.527636 
L 121.516364 225.99043 
L 122.023636 225.2846 
L 122.530909 215.416092 
L 123.038182 223.480469 
L 123.545455 227.620153 
L 124.052727 220.653774 
L 124.56 216.189956 
L 125.067273 224.016975 
L 125.574545 223.094172 
L 126.081818 228.735829 
L 126.589091 236.322175 
L 127.096364 231.456927 
L 127.603636 233.278761 
L 128.110909 237.221499 
L 128.618182 236.986668 
L 129.632727 220.209567 
L 130.14 220.886943 
L 131.154545 219.666335 
L 131.661818 223.297753 
L 132.676364 212.618269 
L 133.183636 225.327596 
L 133.690909 231.074398 
L 134.198182 242.171589 
L 134.705455 233.560158 
L 135.212727 233.144474 
L 135.72 234.986581 
L 136.227273 230.783122 
L 136.734545 223.986664 
L 137.241818 232.45149 
L 137.749091 231.628952 
L 138.256364 229.51053 
L 138.763636 245.788835 
L 139.778182 259.645352 
L 140.285455 259.78103 
L 140.792727 256.28003 
L 141.3 256.822412 
L 141.807273 253.710978 
L 142.314545 259.267563 
L 142.821818 256.948047 
L 143.329091 260.200177 
L 143.836364 245.871937 
L 144.343636 243.682923 
L 144.850909 252.284576 
L 145.358182 250.229857 
L 145.865455 238.278299 
L 146.372727 235.506349 
L 146.88 252.531546 
L 147.387273 254.713137 
L 148.401818 242.78411 
L 148.909091 233.137325 
L 149.416364 239.093461 
L 149.923636 235.353051 
L 150.430909 234.459821 
L 150.938182 240.192342 
L 151.445455 255.346662 
L 151.952727 248.194403 
L 152.46 248.294432 
L 152.967273 260.354974 
L 153.474545 248.400803 
L 154.489091 216.200755 
L 154.996364 216.508517 
L 155.503636 226.007532 
L 156.010909 231.715814 
L 156.518182 224.811555 
L 157.025455 228.889944 
L 157.532727 239.129373 
L 158.04 223.528458 
L 158.547273 220.329113 
L 159.054545 232.914872 
L 159.561818 235.515487 
L 160.069091 236.164204 
L 160.576364 243.154233 
L 161.083636 240.449293 
L 161.590909 248.813742 
L 162.098182 251.043721 
L 162.605455 251.257086 
L 163.112727 246.540673 
L 163.62 228.772527 
L 164.127273 222.434324 
L 164.634545 235.275224 
L 165.141818 233.972889 
L 165.649091 230.726266 
L 166.156364 222.232797 
L 166.663636 191.974187 
L 167.170909 177.54122 
L 167.678182 185.860782 
L 168.185455 199.783108 
L 168.692727 206.364318 
L 169.2 199.770401 
L 169.707273 223.741569 
L 170.214545 234.018498 
L 170.721818 227.515352 
L 171.229091 216.64148 
L 171.736364 211.709331 
L 172.243636 208.395368 
L 172.750909 219.915172 
L 173.258182 225.551783 
L 173.765455 221.861286 
L 174.272727 210.080987 
L 174.78 211.680908 
L 175.794545 231.92169 
L 176.301818 215.145753 
L 176.809091 203.831379 
L 177.316364 207.36407 
L 177.823636 211.846641 
L 178.330909 210.819605 
L 178.838182 210.790441 
L 179.345455 214.572987 
L 180.36 202.870224 
L 180.867273 210.965619 
L 181.374545 216.841825 
L 182.389091 211.021272 
L 182.896364 221.290327 
L 183.403636 223.787404 
L 183.910909 217.616217 
L 184.418182 218.870777 
L 184.925455 204.294511 
L 185.432727 205.456914 
L 185.94 212.960738 
L 186.447273 216.458946 
L 186.954545 215.16414 
L 187.461818 222.153672 
L 187.969091 218.113182 
L 188.476364 209.314869 
L 188.983636 212.193044 
L 189.490909 225.648387 
L 189.998182 228.741807 
L 191.012727 241.126432 
L 191.52 240.047944 
L 192.027273 236.337355 
L 192.534545 238.266844 
L 193.041818 244.323568 
L 193.549091 237.928377 
L 194.056364 237.979413 
L 194.563636 235.409875 
L 195.070909 222.428253 
L 195.578182 221.517038 
L 196.085455 226.490021 
L 196.592727 234.607695 
L 197.1 240.261366 
L 197.607273 230.37282 
L 198.114545 231.533879 
L 199.129091 239.4656 
L 199.636364 240.566484 
L 200.143636 237.543607 
L 200.650909 231.275059 
L 201.158182 244.608316 
L 201.665455 244.12046 
L 202.172727 245.510065 
L 202.68 244.935857 
L 203.187273 239.367989 
L 203.694545 243.776991 
L 204.201818 240.852219 
L 204.709091 234.831865 
L 205.216364 217.69692 
L 205.723636 214.584233 
L 206.230909 222.854119 
L 206.738182 224.820991 
L 207.245455 216.933681 
L 207.752727 226.050052 
L 208.26 229.494597 
L 209.274545 218.269279 
L 209.781818 228.629848 
L 210.289091 234.115979 
L 210.796364 243.280784 
L 211.303636 240.677715 
L 211.810909 225.108585 
L 212.318182 227.104358 
L 212.825455 233.799366 
L 213.332727 229.865886 
L 213.84 231.824622 
L 214.347273 235.865974 
L 214.854545 242.350589 
L 215.361818 243.374595 
L 215.869091 238.583739 
L 216.376364 238.403458 
L 216.883636 234.681468 
L 217.390909 233.210019 
L 217.898182 241.409654 
L 218.405455 252.722075 
L 218.912727 251.757238 
L 219.42 248.363729 
L 219.927273 244.064869 
L 220.434545 237.068354 
L 220.941818 223.680342 
L 221.449091 219.088075 
L 221.956364 215.81727 
L 222.463636 221.806403 
L 222.970909 230.985802 
L 223.478182 234.718772 
L 223.985455 245.223593 
L 224.492727 249.503289 
L 225 251.785792 
L 225.507273 251.294093 
L 226.014545 254.134519 
L 226.521818 255.461616 
L 227.536364 246.417639 
L 228.043636 245.062178 
L 228.550909 241.774394 
L 229.058182 230.311461 
L 229.565455 241.32145 
L 230.072727 249.054522 
L 230.58 249.363911 
L 231.087273 249.360192 
L 231.594545 254.696702 
L 232.101818 256.92633 
L 232.609091 256.202179 
L 233.116364 248.258648 
L 233.623636 248.776115 
L 234.130909 241.406385 
L 234.638182 241.065308 
L 235.145455 242.225461 
L 236.16 242.061576 
L 236.667273 246.772985 
L 237.174545 256.181458 
L 237.681818 248.677815 
L 238.189091 250.184512 
L 238.696364 242.515592 
L 239.203636 236.587073 
L 239.710909 235.459891 
L 240.218182 240.162331 
L 240.725455 241.794238 
L 241.232727 244.367256 
L 241.74 232.07272 
L 242.247273 225.003774 
L 242.754545 239.925362 
L 243.261818 238.768818 
L 243.769091 241.598552 
L 244.276364 247.451051 
L 244.783636 251.620777 
L 245.290909 254.757321 
L 245.798182 260.585677 
L 246.305455 255.671131 
L 246.812727 257.558454 
L 247.32 254.690556 
L 247.827273 261.104466 
L 248.334545 256.516437 
L 248.841818 263.104155 
L 249.349091 262.188827 
L 249.856364 256.099048 
L 250.870909 237.304801 
L 251.378182 251.498989 
L 251.885455 258.869243 
L 252.392727 260.395788 
L 252.9 255.609528 
L 253.407273 247.913344 
L 253.914545 244.080075 
L 254.421818 244.710124 
L 254.929091 244.67069 
L 255.943636 234.442413 
L 256.450909 240.459471 
L 256.958182 243.147741 
L 257.465455 232.671174 
L 257.972727 239.113094 
L 258.48 268.054599 
L 258.987273 256.879801 
L 259.494545 260.383065 
L 260.001818 267.237724 
L 260.509091 267.256767 
L 261.016364 251.006368 
L 261.523636 245.789709 
L 262.030909 245.776402 
L 262.538182 246.136507 
L 263.045455 242.876256 
L 264.06 241.089338 
L 264.567273 249.343233 
L 265.074545 249.529948 
L 265.581818 238.89795 
L 266.089091 246.269737 
L 267.103636 230.799705 
L 267.610909 235.177392 
L 268.118182 233.840424 
L 268.625455 236.724795 
L 269.132727 244.199561 
L 269.64 248.460983 
L 270.147273 258.752913 
L 270.654545 257.656705 
L 271.161818 253.077686 
L 271.669091 253.441387 
L 272.176364 249.292222 
L 272.683636 242.177534 
L 273.190909 241.210158 
L 273.698182 240.823284 
L 274.205455 235.811793 
L 274.712727 234.124829 
L 275.22 230.041848 
L 275.727273 230.422115 
L 276.234545 228.995442 
L 276.741818 225.334767 
L 277.249091 232.314053 
L 277.756364 230.153824 
L 278.263636 232.837012 
L 278.770909 233.548245 
L 279.278182 248.675836 
L 279.785455 255.842732 
L 280.292727 243.18634 
L 280.8 253.540117 
L 281.307273 257.206423 
L 281.814545 259.561512 
L 282.321818 274.562501 
L 282.829091 271.530781 
L 283.336364 267.580161 
L 283.843636 259.064366 
L 284.350909 262.383497 
L 284.858182 255.446412 
L 285.365455 257.798427 
L 285.872727 278.102394 
L 286.38 272.383741 
L 286.887273 259.081627 
L 287.394545 253.328534 
L 287.901818 256.927617 
L 288.409091 253.55744 
L 288.916364 244.377725 
L 289.423636 240.864881 
L 289.930909 253.005315 
L 290.438182 258.132422 
L 290.945455 252.208096 
L 291.452727 252.114067 
L 291.96 246.654896 
L 292.467273 247.854359 
L 292.974545 241.091969 
L 293.481818 231.663582 
L 293.989091 239.237992 
L 294.496364 236.416202 
L 295.510909 242.842322 
L 296.018182 245.673708 
L 297.032727 265.38403 
L 297.54 251.033081 
L 298.047273 244.291566 
L 298.554545 243.689437 
L 299.061818 245.176248 
L 299.569091 247.221552 
L 300.076364 245.447546 
L 300.583636 247.035069 
L 301.090909 243.008527 
L 301.598182 232.697314 
L 302.612727 247.849451 
L 303.12 246.772541 
L 303.627273 245.124576 
L 304.134545 241.894969 
L 304.641818 245.120823 
L 305.149091 249.623933 
L 306.163636 240.374319 
L 306.670909 236.387512 
L 307.178182 218.384323 
L 307.685455 222.569267 
L 308.192727 235.281984 
L 308.7 239.984936 
L 309.207273 248.806141 
L 310.221818 235.71626 
L 310.729091 244.364612 
L 311.236364 259.933849 
L 311.743636 244.544198 
L 312.250909 239.164518 
L 312.758182 228.738115 
L 313.772727 217.417431 
L 314.28 226.422246 
L 314.787273 224.345447 
L 315.294545 226.194857 
L 315.801818 238.31247 
L 316.309091 237.088189 
L 316.816364 242.441908 
L 317.323636 251.885156 
L 317.830909 246.531181 
L 318.338182 238.310334 
L 318.845455 238.259886 
L 319.352727 238.436401 
L 319.86 244.097748 
L 320.367273 243.387282 
L 320.874545 238.352166 
L 321.381818 241.540844 
L 321.889091 241.875688 
L 322.396364 250.377372 
L 322.903636 256.192884 
L 323.410909 254.230316 
L 323.918182 247.192948 
L 324.425455 242.52489 
L 324.932727 242.854174 
L 325.44 247.891202 
L 325.947273 259.439058 
L 326.454545 249.411397 
L 327.976364 235.696352 
L 328.483636 241.656124 
L 328.990909 239.123439 
L 329.498182 237.334625 
L 330.005455 245.131619 
L 330.512727 248.132757 
L 331.02 247.233175 
L 331.527273 243.380437 
L 332.034545 259.286146 
L 332.541818 263.309937 
L 333.049091 256.680587 
L 334.063636 229.388993 
L 334.570909 230.769928 
L 335.078182 241.138896 
L 335.585455 247.893549 
L 336.092727 244.585165 
L 336.6 234.959177 
L 337.107273 239.317143 
L 337.614545 249.267996 
L 338.121818 256.67127 
L 338.629091 251.438949 
L 339.136364 239.791836 
L 339.643636 239.01895 
L 340.150909 239.060441 
L 340.658182 236.75665 
L 341.165455 242.186687 
L 341.672727 250.56024 
L 342.18 250.395181 
L 343.194545 267.858851 
L 343.701818 268.562275 
L 344.209091 270.889264 
L 344.716364 266.290366 
L 345.223636 260.558647 
L 345.730909 251.70325 
L 346.238182 250.551309 
L 346.745455 262.236775 
L 347.252727 262.841152 
L 347.76 256.766865 
L 348.267273 258.244274 
L 348.774545 262.833656 
L 349.281818 264.361568 
L 349.789091 271.259027 
L 350.296364 261.800321 
L 350.803636 257.385426 
L 351.310909 254.117222 
L 351.818182 248.070151 
L 352.325455 249.206765 
L 352.832727 240.793985 
L 353.34 241.196913 
L 353.847273 244.182699 
L 354.861818 248.306045 
L 355.369091 247.960486 
L 355.876364 245.239782 
L 356.383636 240.54402 
L 356.890909 245.408269 
L 357.398182 260.604843 
L 357.905455 264.462236 
L 358.412727 257.975574 
L 358.92 245.24924 
L 359.427273 247.065756 
L 359.934545 252.368852 
L 360.441818 251.907138 
L 360.949091 245.048601 
L 361.456364 242.561014 
L 361.963636 241.326857 
L 362.470909 243.839721 
L 362.978182 245.116757 
L 363.485455 243.105719 
L 363.992727 243.8984 
L 364.5 244.100588 
L 365.007273 253.897009 
L 366.529091 239.749666 
L 367.036364 242.172356 
L 368.050909 252.367142 
L 368.558182 256.402042 
L 369.065455 261.71755 
L 369.572727 257.061858 
L 370.08 257.5736 
L 370.587273 250.582726 
L 371.094545 247.440944 
L 371.601818 233.726315 
L 372.109091 230.411637 
L 372.616364 229.500289 
L 373.123636 226.596258 
L 373.630909 213.735536 
L 374.138182 220.622509 
L 374.645455 230.546047 
L 375.152727 237.117218 
L 376.167273 218.626785 
L 376.674545 220.996619 
L 377.181818 220.750393 
L 378.196364 238.989018 
L 378.703636 233.157919 
L 379.210909 222.677664 
L 379.718182 215.718017 
L 380.732727 234.784791 
L 381.24 236.852793 
L 381.747273 240.759012 
L 382.254545 240.142579 
L 382.761818 237.441448 
L 383.269091 237.284428 
L 383.776364 244.318744 
L 384.283636 236.723296 
L 384.790909 224.242228 
L 385.298182 218.894597 
L 385.805455 223.625513 
L 386.312727 218.962135 
L 386.82 211.189626 
L 387.327273 215.133487 
L 387.834545 211.419965 
L 388.341818 216.53096 
L 388.849091 217.176987 
L 389.863636 232.636509 
L 390.878182 223.130823 
L 391.385455 210.835989 
L 391.892727 205.83719 
L 392.4 214.66449 
L 392.907273 215.333801 
L 393.414545 216.222542 
L 393.921818 225.846148 
L 394.936364 210.137843 
L 395.950909 199.546979 
L 396.458182 191.918831 
L 396.965455 199.334876 
L 397.472727 193.544436 
L 397.98 190.975508 
L 398.487273 189.317208 
L 398.487273 189.317208 
" clip-path="url(#p6b2efd3552)" style="fill: none; stroke: #1f77b4; stroke-width: 1.5; stroke-linecap: square"/>
   </g>
   <g id="line2d_15">
    <path d="M 57.6 53.568 
L 414.72 53.568 
" clip-path="url(#p6b2efd3552)" style="fill: none; stroke-dasharray: 5.55,2.4; stroke-dashoffset: 0; stroke: #000000; stroke-width: 1.5"/>
   </g>
   <g id="patch_3">
    <path d="M 57.6 307.584 
L 57.6 41.472 
" style="fill: none; stroke: #000000; stroke-width: 0.8; stroke-linejoin: miter; stroke-linecap: square"/>
   </g>
   <g id="patch_4">
    <path d="M 414.72 307.584 
L 414.72 41.472 
" style="fill: none; stroke: #000000; stroke-width: 0.8; stroke-linejoin: miter; stroke-linecap: square"/>
   </g>
   <g id="patch_5">
    <path d="M 57.6 307.584 
L 414.72 307.584 
" style="fill: none; stroke: #000000; stroke-width: 0.8; stroke-linejoin: miter; stroke-linecap: square"/>
   </g>
   <g id="patch_6">
    <path d="M 57.6 41.472 
L 414.72 41.472 
" style="fill: none; stroke: #000000; stroke-width: 0.8; stroke-linejoin: miter; stroke-linecap: square"/>
   </g>
   <g id="text_16">
    <!-- ERP Sliding R2 (Occipital Region) -->
    <g transform="translate(137.355 35.472) scale(0.12 -0.12)">
     <defs>
      <path id="DejaVuSans-45" d="M 628 4666 
L 3578 4666 
L 3578 4134 
L 1259 4134 
L 1259 2753 
L 3481 2753 
L 3481 2222 
L 1259 2222 
L 1259 531 
L 3634 531 
L 3634 0 
L 628 0 
L 628 4666 
z
" transform="scale(0.015625)"/>
      <path id="DejaVuSans-52" d="M 2841 2188 
Q 3044 2119 3236 1894 
Q 3428 1669 3622 1275 
L 4263 0 
L 3584 0 
L 2988 1197 
Q 2756 1666 2539 1819 
Q 2322 1972 1947 1972 
L 1259 1972 
L 1259 0 
L 628 0 
L 628 4666 
L 2053 4666 
Q 2853 4666 3247 4331 
Q 3641 3997 3641 3322 
Q 3641 2881 3436 2590 
Q 3231 2300 2841 2188 
z
M 1259 4147 
L 1259 2491 
L 2053 2491 
Q 2509 2491 2742 2702 
Q 2975 2913 2975 3322 
Q 2975 3731 2742 3939 
Q 2509 4147 2053 4147 
L 1259 4147 
z
" transform="scale(0.015625)"/>
      <path id="DejaVuSans-50" d="M 1259 4147 
L 1259 2394 
L 2053 2394 
Q 2494 2394 2734 2622 
Q 2975 2850 2975 3272 
Q 2975 3691 2734 3919 
Q 2494 4147 2053 4147 
L 1259 4147 
z
M 628 4666 
L 2053 4666 
Q 2838 4666 3239 4311 
Q 3641 3956 3641 3272 
Q 3641 2581 3239 2228 
Q 2838 1875 2053 1875 
L 1259 1875 
L 1259 0 
L 628 0 
L 628 4666 
z
" transform="scale(0.015625)"/>
      <path id="DejaVuSans-6c" d="M 603 4863 
L 1178 4863 
L 1178 0 
L 603 0 
L 603 4863 
z
" transform="scale(0.015625)"/>
      <path id="DejaVuSans-64" d="M 2906 2969 
L 2906 4863 
L 3481 4863 
L 3481 0 
L 2906 0 
L 2906 525 
Q 2725 213 2448 61 
Q 2172 -91 1784 -91 
Q 1150 -91 751 415 
Q 353 922 353 1747 
Q 353 2572 751 3078 
Q 1150 3584 1784 3584 
Q 2172 3584 2448 3432 
Q 2725 3281 2906 2969 
z
M 947 1747 
Q 947 1113 1208 752 
Q 1469 391 1925 391 
Q 2381 391 2643 752 
Q 2906 1113 2906 1747 
Q 2906 2381 2643 2742 
Q 2381 3103 1925 3103 
Q 1469 3103 1208 2742 
Q 947 2381 947 1747 
z
" transform="scale(0.015625)"/>
      <path id="DejaVuSans-6e" d="M 3513 2113 
L 3513 0 
L 2938 0 
L 2938 2094 
Q 2938 2591 2744 2837 
Q 2550 3084 2163 3084 
Q 1697 3084 1428 2787 
Q 1159 2491 1159 1978 
L 1159 0 
L 581 0 
L 581 3500 
L 1159 3500 
L 1159 2956 
Q 1366 3272 1645 3428 
Q 1925 3584 2291 3584 
Q 2894 3584 3203 3211 
Q 3513 2838 3513 2113 
z
" transform="scale(0.015625)"/>
      <path id="DejaVuSans-67" d="M 2906 1791 
Q 2906 2416 2648 2759 
Q 2391 3103 1925 3103 
Q 1463 3103 1205 2759 
Q 947 2416 947 1791 
Q 947 1169 1205 825 
Q 1463 481 1925 481 
Q 2391 481 2648 825 
Q 2906 1169 2906 1791 
z
M 3481 434 
Q 3481 -459 3084 -895 
Q 2688 -1331 1869 -1331 
Q 1566 -1331 1297 -1286 
Q 1028 -1241 775 -1147 
L 775 -588 
Q 1028 -725 1275 -790 
Q 1522 -856 1778 -856 
Q 2344 -856 2625 -561 
Q 2906 -266 2906 331 
L 2906 616 
Q 2728 306 2450 153 
Q 2172 0 1784 0 
Q 1141 0 747 490 
Q 353 981 353 1791 
Q 353 2603 747 3093 
Q 1141 3584 1784 3584 
Q 2172 3584 2450 3431 
Q 2728 3278 2906 2969 
L 2906 3500 
L 3481 3500 
L 3481 434 
z
" transform="scale(0.015625)"/>
      <path id="DejaVuSans-4f" d="M 2522 4238 
Q 1834 4238 1429 3725 
Q 1025 3213 1025 2328 
Q 1025 1447 1429 934 
Q 1834 422 2522 422 
Q 3209 422 3611 934 
Q 4013 1447 4013 2328 
Q 4013 3213 3611 3725 
Q 3209 4238 2522 4238 
z
M 2522 4750 
Q 3503 4750 4090 4092 
Q 4678 3434 4678 2328 
Q 4678 1225 4090 567 
Q 3503 -91 2522 -91 
Q 1538 -91 948 565 
Q 359 1222 359 2328 
Q 359 3434 948 4092 
Q 1538 4750 2522 4750 
z
" transform="scale(0.015625)"/>
      <path id="DejaVuSans-70" d="M 1159 525 
L 1159 -1331 
L 581 -1331 
L 581 3500 
L 1159 3500 
L 1159 2969 
Q 1341 3281 1617 3432 
Q 1894 3584 2278 3584 
Q 2916 3584 3314 3078 
Q 3713 2572 3713 1747 
Q 3713 922 3314 415 
Q 2916 -91 2278 -91 
Q 1894 -91 1617 61 
Q 1341 213 1159 525 
z
M 3116 1747 
Q 3116 2381 2855 2742 
Q 2594 3103 2138 3103 
Q 1681 3103 1420 2742 
Q 1159 2381 1159 1747 
Q 1159 1113 1420 752 
Q 1681 391 2138 391 
Q 2594 391 2855 752 
Q 3116 1113 3116 1747 
z
" transform="scale(0.015625)"/>
      <path id="DejaVuSans-74" d="M 1172 4494 
L 1172 3500 
L 2356 3500 
L 2356 3053 
L 1172 3053 
L 1172 1153 
Q 1172 725 1289 603 
Q 1406 481 1766 481 
L 2356 481 
L 2356 0 
L 1766 0 
Q 1100 0 847 248 
Q 594 497 594 1153 
L 594 3053 
L 172 3053 
L 172 3500 
L 594 3500 
L 594 4494 
L 1172 4494 
z
" transform="scale(0.015625)"/>
      <path id="DejaVuSans-61" d="M 2194 1759 
Q 1497 1759 1228 1600 
Q 959 1441 959 1056 
Q 959 750 1161 570 
Q 1363 391 1709 391 
Q 2188 391 2477 730 
Q 2766 1069 2766 1631 
L 2766 1759 
L 2194 1759 
z
M 3341 1997 
L 3341 0 
L 2766 0 
L 2766 531 
Q 2569 213 2275 61 
Q 1981 -91 1556 -91 
Q 1019 -91 701 211 
Q 384 513 384 1019 
Q 384 1609 779 1909 
Q 1175 2209 1959 2209 
L 2766 2209 
L 2766 2266 
Q 2766 2663 2505 2880 
Q 2244 3097 1772 3097 
Q 1472 3097 1187 3025 
Q 903 2953 641 2809 
L 641 3341 
Q 956 3463 1253 3523 
Q 1550 3584 1831 3584 
Q 2591 3584 2966 3190 
Q 3341 2797 3341 1997 
z
" transform="scale(0.015625)"/>
     </defs>
     <use xlink:href="#DejaVuSans-45"/>
     <use xlink:href="#DejaVuSans-52" x="63.183594"/>
     <use xlink:href="#DejaVuSans-50" x="132.666016"/>
     <use xlink:href="#DejaVuSans-20" x="192.96875"/>
     <use xlink:href="#DejaVuSans-53" x="224.755859"/>
     <use xlink:href="#DejaVuSans-6c" x="288.232422"/>
     <use xlink:href="#DejaVuSans-69" x="316.015625"/>
     <use xlink:href="#DejaVuSans-64" x="343.798828"/>
     <use xlink:href="#DejaVuSans-69" x="407.275391"/>
     <use xlink:href="#DejaVuSans-6e" x="435.058594"/>
     <use xlink:href="#DejaVuSans-67" x="498.4375"/>
     <use xlink:href="#DejaVuSans-20" x="561.914062"/>
     <use xlink:href="#DejaVuSans-52" x="593.701172"/>
     <use xlink:href="#DejaVuSans-32" x="663.183594"/>
     <use xlink:href="#DejaVuSans-20" x="726.806641"/>
     <use xlink:href="#DejaVuSans-28" x="758.59375"/>
     <use xlink:href="#DejaVuSans-4f" x="797.607422"/>
     <use xlink:href="#DejaVuSans-63" x="876.318359"/>
     <use xlink:href="#DejaVuSans-63" x="931.298828"/>
     <use xlink:href="#DejaVuSans-69" x="986.279297"/>
     <use xlink:href="#DejaVuSans-70" x="1014.0625"/>
     <use xlink:href="#DejaVuSans-69" x="1077.539062"/>
     <use xlink:href="#DejaVuSans-74" x="1105.322266"/>
     <use xlink:href="#DejaVuSans-61" x="1144.53125"/>
     <use xlink:href="#DejaVuSans-6c" x="1205.810547"/>
     <use xlink:href="#DejaVuSans-20" x="1233.59375"/>
     <use xlink:href="#DejaVuSans-52" x="1265.380859"/>
     <use xlink:href="#DejaVuSans-65" x="1330.363281"/>
     <use xlink:href="#DejaVuSans-67" x="1391.886719"/>
     <use xlink:href="#DejaVuSans-69" x="1455.363281"/>
     <use xlink:href="#DejaVuSans-6f" x="1483.146484"/>
     <use xlink:href="#DejaVuSans-6e" x="1544.328125"/>
     <use xlink:href="#DejaVuSans-29" x="1607.707031"/>
    </g>
   </g>
  </g>
 </g>
 <defs>
  <clipPath id="p6b2efd3552">
   <rect x="57.6" y="41.472" width="357.12" height="266.112"/>
  </clipPath>
 </defs>
</svg>
