<?xml version="1.0" encoding="utf-8" standalone="no"?>
<!DOCTYPE svg PUBLIC "-//W3C//DTD SVG 1.1//EN"
  "http://www.w3.org/Graphics/SVG/1.1/DTD/svg11.dtd">
<svg xmlns:xlink="http://www.w3.org/1999/xlink" width="460.8pt" height="345.6pt" viewBox="0 0 460.8 345.6" xmlns="http://www.w3.org/2000/svg" version="1.1">
 <metadata>
  <rdf:RDF xmlns:dc="http://purl.org/dc/elements/1.1/" xmlns:cc="http://creativecommons.org/ns#" xmlns:rdf="http://www.w3.org/1999/02/22-rdf-syntax-ns#">
   <cc:Work>
    <dc:type rdf:resource="http://purl.org/dc/dcmitype/StillImage"/>
    <dc:date>2025-07-04T03:21:42.807185</dc:date>
    <dc:format>image/svg+xml</dc:format>
    <dc:creator>
     <cc:Agent>
      <dc:title>Matplotlib v3.9.4, https://matplotlib.org/</dc:title>
     </cc:Agent>
    </dc:creator>
   </cc:Work>
  </rdf:RDF>
 </metadata>
 <defs>
  <style type="text/css">*{stroke-linejoin: round; stroke-linecap: butt}</style>
 </defs>
 <g id="figure_1">
  <g id="patch_1">
   <path d="M 0 345.6 
L 460.8 345.6 
L 460.8 0 
L 0 0 
z
" style="fill: #ffffff"/>
  </g>
  <g id="axes_1">
   <g id="patch_2">
    <path d="M 57.6 307.584 
L 414.72 307.584 
L 414.72 41.472 
L 57.6 41.472 
z
" style="fill: #ffffff"/>
   </g>
   <g id="PolyCollection_1">
    <path d="M 73.832727 188.619604 
L 73.832727 203.491258 
L 74.34 205.295234 
L 74.847273 202.569997 
L 75.354545 205.625227 
L 75.861818 295.488 
L 76.369091 219.020929 
L 76.876364 218.327353 
L 77.383636 217.819215 
L 77.890909 220.731391 
L 78.398182 233.52066 
L 78.905455 242.884313 
L 79.412727 222.853288 
L 79.92 217.740929 
L 80.427273 226.797887 
L 80.934545 215.841722 
L 81.441818 217.627964 
L 81.949091 217.831741 
L 82.456364 214.378756 
L 82.963636 206.412798 
L 83.470909 203.281094 
L 83.978182 214.016869 
L 84.485455 216.742879 
L 84.992727 225.217114 
L 85.5 213.075888 
L 86.007273 215.838938 
L 86.514545 225.255596 
L 87.021818 220.741569 
L 87.529091 221.56867 
L 88.036364 207.145113 
L 88.543636 209.358737 
L 89.050909 219.996137 
L 89.558182 223.666208 
L 90.065455 219.88448 
L 90.572727 213.890693 
L 91.08 200.006909 
L 91.587273 200.75918 
L 92.094545 214.222382 
L 92.601818 210.601404 
L 93.109091 203.804983 
L 93.616364 198.013995 
L 94.123636 208.096038 
L 94.630909 207.189037 
L 95.138182 196.252666 
L 95.645455 193.773814 
L 96.152727 200.087537 
L 96.66 204.974021 
L 97.167273 202.032567 
L 97.674545 200.677781 
L 98.181818 206.452329 
L 98.689091 203.830991 
L 99.196364 205.482442 
L 99.703636 197.581876 
L 100.210909 207.359503 
L 100.718182 202.266261 
L 101.225455 206.449164 
L 101.732727 204.642184 
L 102.24 209.489856 
L 102.747273 211.776257 
L 103.254545 208.924988 
L 103.761818 199.237808 
L 104.269091 209.879639 
L 104.776364 208.305535 
L 105.283636 207.873978 
L 105.790909 212.415769 
L 106.298182 209.80388 
L 106.805455 204.969696 
L 107.312727 202.660677 
L 107.82 201.770654 
L 108.327273 196.526737 
L 108.834545 199.271822 
L 109.341818 203.927777 
L 109.849091 205.239492 
L 110.356364 188.075372 
L 110.863636 176.751361 
L 111.370909 178.585137 
L 111.878182 194.833829 
L 112.385455 214.307869 
L 112.892727 203.412052 
L 113.4 192.591399 
L 113.907273 199.713927 
L 114.414545 197.375418 
L 114.921818 201.913364 
L 115.429091 208.216139 
L 115.936364 205.100757 
L 116.443636 199.194085 
L 116.950909 192.67788 
L 117.458182 201.360627 
L 117.965455 201.415525 
L 118.472727 212.754028 
L 118.98 181.336424 
L 119.487273 192.943507 
L 119.994545 190.307178 
L 120.501818 188.495091 
L 121.009091 187.647767 
L 121.516364 211.805489 
L 122.023636 197.707411 
L 122.530909 196.60212 
L 123.038182 191.715628 
L 123.545455 188.742909 
L 124.052727 199.829646 
L 124.56 198.976393 
L 125.067273 195.267167 
L 125.574545 199.564278 
L 126.081818 198.992776 
L 126.589091 200.297134 
L 127.096364 212.129194 
L 127.603636 219.155419 
L 128.110909 218.497697 
L 128.618182 210.531978 
L 129.125455 202.750548 
L 129.632727 215.5587 
L 130.14 198.925923 
L 130.647273 195.170995 
L 131.154545 202.11426 
L 131.661818 199.673901 
L 132.169091 200.068889 
L 132.676364 202.315924 
L 133.183636 200.152477 
L 133.690909 211.836824 
L 134.198182 215.982433 
L 134.705455 204.43608 
L 135.212727 208.301415 
L 135.72 205.29938 
L 136.227273 205.055424 
L 136.734545 217.634515 
L 137.241818 213.025503 
L 137.749091 202.736735 
L 138.256364 209.40757 
L 138.763636 222.362631 
L 139.270909 216.830267 
L 139.778182 217.082165 
L 140.285455 207.603866 
L 140.792727 208.042086 
L 141.3 201.949028 
L 141.807273 203.222359 
L 142.314545 217.027348 
L 142.821818 239.56326 
L 143.329091 229.680852 
L 143.836364 219.869278 
L 144.343636 216.100989 
L 144.850909 221.281787 
L 145.358182 229.862289 
L 145.865455 221.802677 
L 146.372727 218.997959 
L 146.88 220.014539 
L 147.387273 224.574244 
L 147.894545 223.767875 
L 148.401818 216.644216 
L 148.909091 217.016872 
L 149.416364 199.553725 
L 149.923636 205.483485 
L 150.430909 201.560897 
L 150.938182 201.740204 
L 151.445455 204.56015 
L 151.952727 215.880817 
L 152.46 221.829994 
L 152.967273 212.204011 
L 153.474545 216.028353 
L 153.981818 214.486994 
L 154.489091 207.365 
L 154.996364 219.686423 
L 155.503636 218.926286 
L 156.010909 221.128877 
L 156.518182 228.463017 
L 157.025455 218.925673 
L 157.532727 208.576943 
L 158.04 209.843024 
L 158.547273 217.182578 
L 159.054545 212.575347 
L 159.561818 222.158657 
L 160.069091 219.783695 
L 160.576364 212.71221 
L 161.083636 214.339553 
L 161.590909 219.695239 
L 162.098182 220.252822 
L 162.605455 214.553221 
L 163.112727 216.579604 
L 163.62 209.869847 
L 164.127273 217.115449 
L 164.634545 219.423407 
L 165.141818 221.261589 
L 165.649091 228.380891 
L 166.156364 232.087012 
L 166.663636 224.63118 
L 167.170909 234.262201 
L 167.678182 229.333772 
L 168.185455 233.08498 
L 168.692727 237.568057 
L 169.2 225.400505 
L 169.707273 229.186171 
L 170.214545 226.717585 
L 170.721818 219.301763 
L 171.229091 217.565599 
L 171.736364 218.423996 
L 172.243636 213.050729 
L 172.750909 219.824285 
L 173.258182 223.761655 
L 173.765455 214.77609 
L 174.272727 206.280238 
L 174.78 203.728482 
L 175.287273 211.701434 
L 175.794545 213.133109 
L 176.301818 224.174122 
L 176.809091 223.987978 
L 177.316364 218.647613 
L 177.823636 219.731048 
L 178.330909 225.984374 
L 178.838182 228.747781 
L 179.345455 219.628596 
L 179.852727 200.293266 
L 180.36 187.870541 
L 180.867273 189.748785 
L 181.374545 193.931096 
L 181.881818 211.813188 
L 182.389091 210.23669 
L 182.896364 214.104569 
L 183.403636 217.600931 
L 183.910909 211.902488 
L 184.418182 208.463086 
L 184.925455 197.701759 
L 185.432727 196.95037 
L 185.94 201.917348 
L 186.447273 205.315508 
L 186.954545 216.998141 
L 187.461818 223.262233 
L 187.969091 219.531378 
L 188.476364 212.544595 
L 188.983636 210.920092 
L 189.490909 211.947854 
L 189.998182 208.37272 
L 190.505455 220.182019 
L 191.012727 227.9025 
L 191.52 217.659196 
L 192.027273 215.631271 
L 192.534545 227.354718 
L 193.041818 221.078465 
L 193.549091 229.754944 
L 194.056364 213.868607 
L 194.563636 209.616593 
L 195.070909 206.618525 
L 195.578182 206.409261 
L 196.085455 219.916039 
L 196.592727 217.774622 
L 197.1 212.962956 
L 197.607273 222.232531 
L 198.114545 230.719253 
L 198.621818 232.884756 
L 199.129091 213.480866 
L 199.636364 204.021192 
L 200.143636 206.485835 
L 200.650909 202.58849 
L 201.158182 209.230814 
L 201.665455 218.891216 
L 202.172727 209.86674 
L 202.68 208.322784 
L 203.187273 220.607156 
L 203.694545 222.224665 
L 204.201818 218.502522 
L 204.709091 206.994825 
L 205.216364 212.276424 
L 205.723636 210.154888 
L 206.230909 205.493423 
L 206.738182 201.120621 
L 207.245455 209.680178 
L 207.752727 208.298086 
L 208.26 203.476817 
L 208.767273 209.889786 
L 209.274545 215.843735 
L 209.781818 210.263826 
L 210.289091 211.731825 
L 210.796364 210.482447 
L 211.303636 208.899835 
L 211.810909 210.933733 
L 212.318182 208.689994 
L 212.825455 200.749563 
L 213.332727 207.952731 
L 213.84 203.7504 
L 214.347273 198.611831 
L 214.854545 206.698941 
L 215.361818 211.144839 
L 215.869091 209.266026 
L 216.376364 215.111705 
L 216.883636 220.456413 
L 217.390909 215.245049 
L 217.898182 218.106968 
L 218.405455 235.859449 
L 218.912727 228.51164 
L 219.42 228.411901 
L 219.927273 231.88118 
L 220.434545 216.406533 
L 220.941818 221.733414 
L 221.449091 226.145978 
L 221.956364 216.766958 
L 222.463636 214.306618 
L 222.970909 206.570177 
L 223.478182 209.287022 
L 223.985455 209.901658 
L 224.492727 212.4971 
L 225 212.124603 
L 225.507273 213.96833 
L 226.014545 211.869755 
L 226.521818 207.539741 
L 227.029091 209.117533 
L 227.536364 213.68025 
L 228.043636 219.053063 
L 228.550909 213.783299 
L 229.058182 203.736542 
L 229.565455 201.062369 
L 230.072727 207.881143 
L 230.58 216.7492 
L 231.087273 216.981646 
L 231.594545 215.628843 
L 232.101818 214.153711 
L 232.609091 211.251578 
L 233.116364 216.927578 
L 233.623636 211.334657 
L 234.130909 207.39403 
L 234.638182 217.447089 
L 235.145455 220.922993 
L 235.652727 221.781956 
L 236.16 222.112678 
L 236.667273 217.334143 
L 237.174545 211.979378 
L 237.681818 199.70554 
L 238.189091 199.476648 
L 238.696364 203.738353 
L 239.203636 202.305842 
L 239.710909 213.101833 
L 240.218182 232.12887 
L 240.725455 197.523886 
L 241.232727 206.425933 
L 241.74 198.607379 
L 242.247273 201.193099 
L 242.754545 192.327851 
L 243.261818 199.993263 
L 243.769091 207.321553 
L 244.276364 205.693231 
L 244.783636 217.840113 
L 245.290909 218.880285 
L 245.798182 208.677431 
L 246.305455 214.465396 
L 246.812727 238.998371 
L 247.32 238.011553 
L 247.827273 212.090812 
L 248.334545 202.976016 
L 248.841818 205.526741 
L 249.349091 212.639105 
L 249.856364 215.624485 
L 250.363636 215.201973 
L 250.870909 213.73573 
L 251.378182 220.72414 
L 251.885455 233.127554 
L 252.392727 223.286949 
L 252.9 216.264396 
L 253.407273 213.899174 
L 253.914545 205.5577 
L 254.421818 208.579831 
L 254.929091 217.185614 
L 255.436364 224.55938 
L 255.943636 219.770058 
L 256.450909 219.349175 
L 256.958182 224.497685 
L 257.465455 216.281351 
L 257.972727 207.066538 
L 258.48 208.227729 
L 258.987273 215.699823 
L 259.494545 214.796022 
L 260.001818 215.20485 
L 260.509091 215.42098 
L 261.016364 222.641217 
L 261.523636 214.174837 
L 262.030909 226.345867 
L 262.538182 214.20807 
L 263.045455 204.558463 
L 263.552727 200.197454 
L 264.06 209.726624 
L 264.567273 197.563849 
L 265.074545 197.037666 
L 265.581818 214.154431 
L 266.089091 203.402693 
L 266.596364 196.083607 
L 267.103636 199.006128 
L 267.610909 196.279144 
L 268.118182 203.648797 
L 268.625455 207.667299 
L 269.132727 211.854299 
L 269.64 206.872827 
L 270.147273 203.419507 
L 270.654545 192.002821 
L 271.161818 187.225433 
L 271.669091 195.961272 
L 272.176364 196.912573 
L 272.683636 198.304014 
L 273.190909 206.037869 
L 273.698182 210.497143 
L 274.205455 209.996894 
L 274.712727 217.578488 
L 275.22 228.34617 
L 275.727273 222.775151 
L 276.234545 217.032943 
L 276.741818 214.827447 
L 277.249091 217.148268 
L 277.756364 214.423824 
L 278.263636 219.358766 
L 278.770909 216.986517 
L 279.278182 218.410714 
L 279.785455 219.757927 
L 280.292727 201.842118 
L 280.8 209.434237 
L 281.307273 218.761809 
L 281.814545 219.732265 
L 282.321818 215.091496 
L 282.829091 223.91844 
L 283.336364 226.418379 
L 283.843636 226.508831 
L 284.350909 220.439584 
L 284.858182 226.788624 
L 285.365455 212.730572 
L 285.872727 218.87321 
L 286.38 215.170564 
L 286.887273 212.80931 
L 287.394545 218.59072 
L 287.901818 211.134769 
L 288.409091 203.208559 
L 288.916364 211.133808 
L 289.423636 215.837745 
L 289.930909 215.699504 
L 290.438182 216.303852 
L 290.945455 214.488666 
L 291.452727 213.960094 
L 291.96 203.646489 
L 292.467273 214.874728 
L 292.974545 217.048045 
L 293.481818 213.756594 
L 293.989091 215.099498 
L 294.496364 210.660242 
L 295.003636 222.468572 
L 295.510909 230.440589 
L 296.018182 226.790932 
L 296.525455 231.410161 
L 297.032727 212.052458 
L 297.54 200.009276 
L 298.047273 211.046644 
L 298.554545 216.310049 
L 299.061818 216.290572 
L 299.569091 213.693453 
L 300.076364 215.594054 
L 300.583636 201.973762 
L 301.090909 218.010067 
L 301.598182 218.466212 
L 302.105455 212.395133 
L 302.612727 205.510739 
L 303.12 210.932867 
L 303.627273 209.847929 
L 304.134545 213.465536 
L 304.641818 214.991839 
L 305.149091 220.128572 
L 305.656364 217.583099 
L 306.163636 228.36566 
L 306.670909 229.603712 
L 307.178182 225.090975 
L 307.685455 218.14746 
L 308.192727 220.933011 
L 308.7 234.67562 
L 309.207273 229.110053 
L 309.714545 229.902329 
L 310.221818 234.34728 
L 310.729091 238.244975 
L 311.236364 234.651247 
L 311.743636 226.990198 
L 312.250909 224.471637 
L 312.758182 222.507653 
L 313.265455 220.856368 
L 313.772727 212.889723 
L 314.28 206.050882 
L 314.787273 206.792415 
L 315.294545 211.643824 
L 315.801818 218.11322 
L 316.309091 216.609299 
L 316.816364 216.795922 
L 317.323636 207.896778 
L 317.830909 218.014749 
L 318.338182 227.522339 
L 318.845455 223.661484 
L 319.352727 213.116206 
L 319.86 211.591281 
L 320.367273 219.180912 
L 320.874545 214.959341 
L 321.381818 207.09035 
L 321.889091 204.996515 
L 322.396364 204.191135 
L 322.903636 208.109969 
L 323.410909 214.574458 
L 323.918182 213.706642 
L 324.425455 217.749947 
L 324.932727 222.244525 
L 325.44 206.896746 
L 325.947273 208.390968 
L 326.454545 208.284562 
L 326.961818 203.86007 
L 327.469091 212.208212 
L 327.976364 215.911203 
L 328.483636 215.230919 
L 328.990909 212.45551 
L 329.498182 205.423188 
L 330.005455 207.654966 
L 330.512727 209.213834 
L 331.02 217.260437 
L 331.527273 216.933752 
L 332.034545 238.032708 
L 332.541818 243.637901 
L 333.049091 235.352435 
L 333.556364 226.363237 
L 334.063636 215.509353 
L 334.570909 212.921271 
L 335.078182 214.349579 
L 335.585455 224.797737 
L 336.092727 224.70774 
L 336.6 212.490438 
L 337.107273 208.734804 
L 337.614545 214.631762 
L 338.121818 212.499376 
L 338.629091 206.542601 
L 339.136364 204.673155 
L 339.643636 203.344314 
L 340.150909 201.229309 
L 340.658182 202.321193 
L 341.165455 200.248853 
L 341.672727 196.875218 
L 342.18 199.987023 
L 342.687273 213.682356 
L 343.194545 220.110985 
L 343.701818 221.71894 
L 344.209091 221.112852 
L 344.716364 207.796387 
L 345.223636 216.449523 
L 345.730909 213.13892 
L 346.238182 220.563791 
L 346.745455 215.95403 
L 347.252727 222.415169 
L 347.76 212.476046 
L 348.267273 215.296281 
L 348.774545 222.115133 
L 349.281818 210.326817 
L 349.789091 200.188826 
L 350.296364 210.382345 
L 350.803636 228.924278 
L 351.310909 220.04854 
L 351.818182 210.638772 
L 352.325455 208.106502 
L 352.832727 201.415563 
L 353.34 203.623948 
L 353.847273 212.396831 
L 354.354545 214.18593 
L 354.861818 206.927156 
L 355.369091 216.153339 
L 355.876364 220.603237 
L 356.383636 227.548132 
L 356.890909 228.685366 
L 357.398182 225.426214 
L 357.905455 219.411664 
L 358.412727 221.573562 
L 358.92 214.197074 
L 359.427273 210.651342 
L 359.934545 209.671603 
L 360.441818 213.496183 
L 360.949091 216.572938 
L 361.456364 210.123526 
L 361.963636 224.469261 
L 362.470909 218.666887 
L 362.978182 214.429814 
L 363.485455 208.136269 
L 363.992727 209.786562 
L 364.5 210.907848 
L 365.007273 210.539391 
L 365.514545 207.863824 
L 366.021818 206.110901 
L 366.529091 201.438436 
L 367.036364 204.441684 
L 367.543636 212.911381 
L 368.050909 215.421452 
L 368.558182 212.039265 
L 369.065455 201.122672 
L 369.572727 201.149911 
L 370.08 204.087693 
L 370.587273 196.701544 
L 371.094545 201.965948 
L 371.601818 202.370952 
L 372.109091 201.507421 
L 372.616364 195.759463 
L 373.123636 185.186172 
L 373.630909 204.986503 
L 374.138182 217.798086 
L 374.645455 211.541192 
L 375.152727 210.828928 
L 375.66 208.287755 
L 376.167273 203.809622 
L 376.674545 202.776119 
L 377.181818 205.653625 
L 377.689091 206.659326 
L 378.196364 212.319244 
L 378.703636 204.583184 
L 379.210909 204.881201 
L 379.718182 204.06372 
L 380.225455 206.984995 
L 380.732727 200.396208 
L 381.24 204.743715 
L 381.747273 199.606115 
L 382.254545 204.785784 
L 382.761818 210.939578 
L 383.269091 216.766829 
L 383.776364 207.860577 
L 384.283636 201.040163 
L 384.790909 210.423044 
L 385.298182 218.05054 
L 385.805455 209.598564 
L 386.312727 195.389805 
L 386.82 191.317985 
L 387.327273 205.558726 
L 387.834545 208.618779 
L 388.341818 207.912879 
L 388.849091 222.601971 
L 389.356364 226.039704 
L 389.863636 206.300379 
L 390.370909 204.360916 
L 390.878182 199.408516 
L 391.385455 200.378177 
L 391.892727 198.722038 
L 392.4 208.701429 
L 392.907273 196.027973 
L 393.414545 196.967053 
L 393.921818 194.140337 
L 394.429091 195.254444 
L 394.936364 196.148765 
L 395.443636 192.784752 
L 395.950909 197.495396 
L 396.458182 188.229474 
L 396.965455 185.023778 
L 397.472727 195.182469 
L 397.98 188.95121 
L 398.487273 192.263928 
L 398.487273 164.075932 
L 398.487273 164.075932 
L 397.98 163.052508 
L 397.472727 171.622378 
L 396.965455 164.912083 
L 396.458182 161.352201 
L 395.950909 175.658546 
L 395.443636 169.032451 
L 394.936364 169.765411 
L 394.429091 171.394701 
L 393.921818 172.768339 
L 393.414545 171.059619 
L 392.907273 175.793938 
L 392.4 183.650081 
L 391.892727 177.494009 
L 391.385455 182.044146 
L 390.878182 177.55645 
L 390.370909 182.335094 
L 389.863636 186.631235 
L 389.356364 202.870432 
L 388.849091 196.406457 
L 388.341818 181.992682 
L 387.834545 181.190486 
L 387.327273 177.906775 
L 386.82 170.333188 
L 386.312727 173.8064 
L 385.805455 190.507964 
L 385.298182 202.040573 
L 384.790909 191.898207 
L 384.283636 184.08618 
L 383.776364 189.346437 
L 383.269091 194.366995 
L 382.761818 193.926513 
L 382.254545 185.794118 
L 381.747273 178.708424 
L 381.24 180.41561 
L 380.732727 180.882749 
L 380.225455 191.350968 
L 379.718182 187.645459 
L 379.210909 191.879318 
L 378.703636 189.365028 
L 378.196364 197.144223 
L 377.689091 185.952278 
L 377.181818 184.802608 
L 376.674545 179.223144 
L 376.167273 178.15318 
L 375.66 182.202996 
L 375.152727 186.516042 
L 374.645455 189.770156 
L 374.138182 194.256011 
L 373.630909 180.848273 
L 373.123636 163.429671 
L 372.616364 178.364806 
L 372.109091 184.350505 
L 371.601818 186.016071 
L 371.094545 183.858004 
L 370.587273 175.544109 
L 370.08 184.086363 
L 369.572727 183.952807 
L 369.065455 177.109764 
L 368.558182 190.772891 
L 368.050909 199.739181 
L 367.543636 192.134331 
L 367.036364 187.449607 
L 366.529091 180.549695 
L 366.021818 186.781723 
L 365.514545 188.163516 
L 365.007273 188.525444 
L 364.5 188.614548 
L 363.992727 184.736736 
L 363.485455 184.883659 
L 362.978182 191.665823 
L 362.470909 201.654141 
L 361.963636 200.36875 
L 361.456364 187.493087 
L 360.949091 194.424798 
L 360.441818 191.860628 
L 359.934545 188.366616 
L 359.427273 189.472106 
L 358.92 191.434444 
L 358.412727 199.480735 
L 357.905455 198.74715 
L 357.398182 206.559138 
L 356.890909 208.318022 
L 356.383636 206.414125 
L 355.876364 197.13239 
L 355.369091 191.8705 
L 354.861818 184.432109 
L 354.354545 185.246207 
L 353.847273 185.413392 
L 353.34 182.503415 
L 352.832727 184.220608 
L 352.325455 188.084808 
L 351.818182 186.101395 
L 351.310909 197.263787 
L 350.803636 204.112632 
L 350.296364 191.67119 
L 349.789091 186.038754 
L 349.281818 190.684568 
L 348.774545 200.098091 
L 348.267273 196.022562 
L 347.76 196.889468 
L 347.252727 202.366982 
L 346.745455 198.161886 
L 346.238182 204.943254 
L 345.730909 196.905937 
L 345.223636 202.195995 
L 344.716364 192.310446 
L 344.209091 198.791515 
L 343.701818 195.467028 
L 343.194545 197.14622 
L 342.687273 192.988859 
L 342.18 178.966677 
L 341.672727 178.537871 
L 341.165455 182.653517 
L 340.658182 184.173252 
L 340.150909 183.524855 
L 339.643636 186.494657 
L 339.136364 187.742466 
L 338.629091 192.140383 
L 338.121818 194.750102 
L 337.614545 195.524824 
L 337.107273 186.182077 
L 336.6 186.694824 
L 336.092727 203.017986 
L 335.585455 208.06712 
L 335.078182 191.357172 
L 334.570909 188.741989 
L 334.063636 198.07936 
L 333.556364 210.550753 
L 333.049091 220.14823 
L 332.541818 224.980182 
L 332.034545 223.068932 
L 331.527273 201.498581 
L 331.02 196.402599 
L 330.512727 189.491032 
L 330.005455 186.723677 
L 329.498182 187.491698 
L 328.990909 189.981428 
L 328.483636 191.54408 
L 327.976364 194.443094 
L 327.469091 190.640196 
L 326.961818 183.242714 
L 326.454545 191.85502 
L 325.947273 193.284186 
L 325.44 191.602365 
L 324.932727 202.64282 
L 324.425455 198.446889 
L 323.918182 193.204932 
L 323.410909 195.599553 
L 322.903636 191.782019 
L 322.396364 190.157805 
L 321.889091 188.941372 
L 321.381818 194.090238 
L 320.874545 200.244741 
L 320.367273 200.961554 
L 319.86 194.993356 
L 319.352727 197.285615 
L 318.845455 203.104932 
L 318.338182 207.905193 
L 317.830909 197.721396 
L 317.323636 188.010465 
L 316.816364 196.746891 
L 316.309091 194.976489 
L 315.801818 197.964498 
L 315.294545 193.557377 
L 314.787273 185.715978 
L 314.28 186.626639 
L 313.772727 191.933402 
L 313.265455 197.214868 
L 312.758182 194.77012 
L 312.250909 199.418857 
L 311.743636 206.996032 
L 311.236364 215.764974 
L 310.729091 214.066845 
L 310.221818 207.915863 
L 309.714545 202.472198 
L 309.207273 208.134884 
L 308.7 209.571332 
L 308.192727 197.417288 
L 307.685455 198.537308 
L 307.178182 203.174759 
L 306.670909 205.146147 
L 306.163636 209.410882 
L 305.656364 200.956956 
L 305.149091 204.958012 
L 304.641818 196.846367 
L 304.134545 194.103764 
L 303.627273 189.31688 
L 303.12 191.038128 
L 302.612727 181.728175 
L 302.105455 188.302618 
L 301.598182 197.712639 
L 301.090909 195.276576 
L 300.583636 177.264216 
L 300.076364 189.534036 
L 299.569091 187.871444 
L 299.061818 191.601745 
L 298.554545 191.086719 
L 298.047273 183.697508 
L 297.54 174.920408 
L 297.032727 188.753837 
L 296.525455 210.376147 
L 296.018182 200.92151 
L 295.510909 206.769113 
L 295.003636 193.165085 
L 294.496364 184.955739 
L 293.989091 190.906441 
L 293.481818 189.302736 
L 292.974545 191.882446 
L 292.467273 191.174175 
L 291.96 177.916751 
L 291.452727 191.289123 
L 290.945455 192.608359 
L 290.438182 192.84353 
L 289.930909 189.915682 
L 289.423636 185.662241 
L 288.916364 187.653702 
L 288.409091 176.519037 
L 287.901818 184.656067 
L 287.394545 193.833006 
L 286.887273 193.101435 
L 286.38 196.225662 
L 285.872727 198.987398 
L 285.365455 191.447598 
L 284.858182 201.23828 
L 284.350909 201.338451 
L 283.843636 201.349889 
L 283.336364 200.16559 
L 282.829091 200.323891 
L 282.321818 197.249705 
L 281.814545 200.955116 
L 281.307273 199.04407 
L 280.8 190.952373 
L 280.292727 183.809831 
L 279.785455 197.116425 
L 279.278182 196.010729 
L 278.770909 193.685915 
L 278.263636 196.520916 
L 277.756364 195.410388 
L 277.249091 195.863915 
L 276.741818 193.771294 
L 276.234545 197.587311 
L 275.727273 205.267836 
L 275.22 209.683421 
L 274.712727 197.396298 
L 274.205455 191.566004 
L 273.698182 192.223362 
L 273.190909 185.578034 
L 272.683636 181.251399 
L 272.176364 178.19693 
L 271.669091 174.76941 
L 271.161818 169.298136 
L 270.654545 175.11883 
L 270.147273 185.009658 
L 269.64 188.703656 
L 269.132727 192.047741 
L 268.625455 187.932118 
L 268.118182 185.238909 
L 267.610909 181.617209 
L 267.103636 182.847347 
L 266.596364 180.880962 
L 266.089091 187.695459 
L 265.581818 191.794777 
L 265.074545 176.056057 
L 264.567273 175.904193 
L 264.06 186.689262 
L 263.552727 180.018883 
L 263.045455 189.507383 
L 262.538182 196.527567 
L 262.030909 205.976479 
L 261.523636 199.711063 
L 261.016364 204.302768 
L 260.509091 196.771759 
L 260.001818 198.048732 
L 259.494545 195.272671 
L 258.987273 191.53402 
L 258.48 183.881141 
L 257.972727 184.967736 
L 257.465455 194.276264 
L 256.958182 198.480392 
L 256.450909 196.838534 
L 255.943636 197.342981 
L 255.436364 201.744043 
L 254.929091 198.558623 
L 254.421818 184.975626 
L 253.914545 185.275514 
L 253.407273 195.127331 
L 252.9 198.809371 
L 252.392727 205.439841 
L 251.885455 209.437301 
L 251.378182 202.245343 
L 250.870909 195.219493 
L 250.363636 199.965086 
L 249.856364 195.243081 
L 249.349091 186.942623 
L 248.841818 186.905252 
L 248.334545 187.274242 
L 247.827273 192.896878 
L 247.32 205.565855 
L 246.812727 199.310487 
L 246.305455 193.980393 
L 245.798182 191.444327 
L 245.290909 196.831902 
L 244.783636 198.970218 
L 244.276364 186.710423 
L 243.769091 185.792499 
L 243.261818 179.027471 
L 242.754545 174.344371 
L 242.247273 182.094022 
L 241.74 178.885218 
L 241.232727 181.32508 
L 240.725455 173.894686 
L 240.218182 187.216621 
L 239.710909 193.577916 
L 239.203636 186.892364 
L 238.696364 186.599479 
L 238.189091 181.909425 
L 237.681818 182.986225 
L 237.174545 191.853943 
L 236.667273 198.447982 
L 236.16 200.729631 
L 235.652727 195.928589 
L 235.145455 196.111636 
L 234.638182 195.809317 
L 234.130909 187.849448 
L 233.623636 191.171857 
L 233.116364 200.717323 
L 232.609091 194.835175 
L 232.101818 196.638365 
L 231.594545 199.996048 
L 231.087273 200.401892 
L 230.58 200.974523 
L 230.072727 192.188478 
L 229.565455 184.025151 
L 229.058182 184.659119 
L 228.550909 194.175076 
L 228.043636 197.063748 
L 227.536364 190.102018 
L 227.029091 185.53555 
L 226.521818 185.405204 
L 226.014545 185.358942 
L 225.507273 189.480802 
L 225 185.271797 
L 224.492727 186.551446 
L 223.985455 188.953458 
L 223.478182 191.178994 
L 222.970909 182.771355 
L 222.463636 186.953505 
L 221.956364 192.644874 
L 221.449091 201.773343 
L 220.941818 200.013896 
L 220.434545 195.841951 
L 219.927273 213.902137 
L 219.42 210.909963 
L 218.912727 207.994382 
L 218.405455 208.993952 
L 217.898182 198.629295 
L 217.390909 198.003853 
L 216.883636 199.640775 
L 216.376364 191.487881 
L 215.869091 186.250711 
L 215.361818 190.649218 
L 214.854545 189.455791 
L 214.347273 183.129858 
L 213.84 191.462838 
L 213.332727 192.385699 
L 212.825455 184.606263 
L 212.318182 193.089787 
L 211.810909 196.833348 
L 211.303636 194.751579 
L 210.796364 190.027344 
L 210.289091 189.487304 
L 209.781818 184.494006 
L 209.274545 191.572975 
L 208.767273 186.916251 
L 208.26 177.656657 
L 207.752727 180.350984 
L 207.245455 186.113778 
L 206.738182 181.343599 
L 206.230909 185.606487 
L 205.723636 187.411199 
L 205.216364 188.507574 
L 204.709091 186.163816 
L 204.201818 201.05672 
L 203.694545 201.899379 
L 203.187273 200.974981 
L 202.68 191.439249 
L 202.172727 189.090803 
L 201.665455 198.073577 
L 201.158182 187.7736 
L 200.650909 181.626789 
L 200.143636 190.528705 
L 199.636364 183.380403 
L 199.129091 188.844103 
L 198.621818 201.296928 
L 198.114545 198.077773 
L 197.607273 200.89873 
L 197.1 191.803604 
L 196.592727 200.239418 
L 196.085455 199.458065 
L 195.578182 185.679477 
L 195.070909 185.554163 
L 194.563636 192.192997 
L 194.056364 185.553288 
L 193.549091 200.580955 
L 193.041818 196.965447 
L 192.534545 206.11804 
L 192.027273 195.04015 
L 191.52 193.772585 
L 191.012727 200.102409 
L 190.505455 193.251601 
L 189.998182 181.07149 
L 189.490909 183.040655 
L 188.983636 184.503668 
L 188.476364 185.050432 
L 187.969091 190.024919 
L 187.461818 198.296268 
L 186.954545 193.389189 
L 186.447273 184.737686 
L 185.94 173.80072 
L 185.432727 165.631882 
L 184.925455 170.590358 
L 184.418182 183.621142 
L 183.910909 186.834931 
L 183.403636 197.388198 
L 182.896364 193.691457 
L 182.389091 185.421708 
L 181.881818 187.234788 
L 181.374545 163.342577 
L 180.867273 160.630963 
L 180.36 162.706099 
L 179.852727 174.145783 
L 179.345455 193.902761 
L 178.838182 203.815052 
L 178.330909 199.827173 
L 177.823636 192.270384 
L 177.316364 195.151969 
L 176.809091 200.673785 
L 176.301818 199.612083 
L 175.794545 188.224148 
L 175.287273 191.333356 
L 174.78 184.282525 
L 174.272727 181.348961 
L 173.765455 190.795638 
L 173.258182 196.102785 
L 172.750909 194.030915 
L 172.243636 193.401041 
L 171.736364 195.880701 
L 171.229091 194.103857 
L 170.721818 196.668487 
L 170.214545 196.366982 
L 169.707273 200.976995 
L 169.2 204.89573 
L 168.692727 218.975862 
L 168.185455 213.582688 
L 167.678182 205.003484 
L 167.170909 206.766298 
L 166.663636 201.448922 
L 166.156364 214.584596 
L 165.649091 208.288479 
L 165.141818 201.973026 
L 164.634545 198.760984 
L 164.127273 199.284548 
L 163.62 189.340664 
L 163.112727 192.613899 
L 162.605455 190.00724 
L 162.098182 197.086317 
L 161.590909 195.177143 
L 161.083636 192.526251 
L 160.576364 195.438365 
L 160.069091 196.500029 
L 159.561818 197.506763 
L 159.054545 193.900227 
L 158.547273 195.011171 
L 158.04 188.911335 
L 157.532727 189.088624 
L 157.025455 197.258817 
L 156.518182 205.828793 
L 156.010909 200.538756 
L 155.503636 198.249247 
L 154.996364 196.050474 
L 154.489091 186.145076 
L 153.981818 191.024479 
L 153.474545 192.525697 
L 152.967273 192.398951 
L 152.46 198.265297 
L 151.952727 194.931651 
L 151.445455 187.054971 
L 150.938182 183.140218 
L 150.430909 185.278244 
L 149.923636 184.870329 
L 149.416364 178.64397 
L 148.909091 196.394764 
L 148.401818 195.585992 
L 147.894545 198.868828 
L 147.387273 200.07186 
L 146.88 197.97694 
L 146.372727 199.09776 
L 145.865455 194.121771 
L 145.358182 199.829007 
L 144.850909 195.784234 
L 144.343636 194.856064 
L 143.836364 196.041334 
L 143.329091 204.973868 
L 142.821818 212.313609 
L 142.314545 192.768878 
L 141.807273 181.359139 
L 141.3 179.571168 
L 140.792727 183.645802 
L 140.285455 183.170763 
L 139.778182 191.713486 
L 139.270909 189.195319 
L 138.763636 194.82475 
L 138.256364 184.708783 
L 137.749091 179.288196 
L 137.241818 191.540101 
L 136.734545 196.037276 
L 136.227273 185.062932 
L 135.72 187.5152 
L 135.212727 193.501298 
L 134.705455 181.430161 
L 134.198182 193.701734 
L 133.690909 190.787799 
L 133.183636 182.774142 
L 132.676364 181.953721 
L 132.169091 177.248277 
L 131.661818 177.775595 
L 131.154545 179.790715 
L 130.647273 172.402657 
L 130.14 178.383845 
L 129.632727 186.199308 
L 129.125455 180.12593 
L 128.618182 187.701657 
L 128.110909 192.063184 
L 127.603636 194.435298 
L 127.096364 188.931463 
L 126.589091 180.240113 
L 126.081818 177.912484 
L 125.574545 179.324594 
L 125.067273 177.768514 
L 124.56 182.355914 
L 124.052727 177.652889 
L 123.545455 172.075975 
L 123.038182 176.104953 
L 122.530909 175.309718 
L 122.023636 171.894775 
L 121.516364 172.815004 
L 121.009091 166.886533 
L 120.501818 164.541685 
L 119.994545 166.813808 
L 119.487273 170.759273 
L 118.98 161.607153 
L 118.472727 173.09374 
L 117.965455 184.957345 
L 117.458182 184.15636 
L 116.950909 176.670962 
L 116.443636 180.046267 
L 115.936364 183.247688 
L 115.429091 184.611655 
L 114.921818 178.521363 
L 114.414545 178.398723 
L 113.907273 180.885801 
L 113.4 172.461992 
L 112.892727 187.565158 
L 112.385455 191.306205 
L 111.878182 174.455427 
L 111.370909 158.862526 
L 110.863636 157.661755 
L 110.356364 168.39371 
L 109.849091 181.793937 
L 109.341818 183.37518 
L 108.834545 185.118093 
L 108.327273 181.5776 
L 107.82 182.806396 
L 107.312727 183.059959 
L 106.805455 182.418061 
L 106.298182 187.284562 
L 105.790909 187.683657 
L 105.283636 184.291876 
L 104.776364 188.444038 
L 104.269091 185.610508 
L 103.761818 181.857513 
L 103.254545 191.167897 
L 102.747273 195.503788 
L 102.24 189.887791 
L 101.732727 184.405273 
L 101.225455 184.576636 
L 100.718182 182.317812 
L 100.210909 187.792134 
L 99.703636 176.345137 
L 99.196364 183.396677 
L 98.689091 185.447857 
L 98.181818 186.014627 
L 97.674545 176.083655 
L 97.167273 175.319847 
L 96.66 180.209529 
L 96.152727 173.840123 
L 95.645455 169.047424 
L 95.138182 174.014624 
L 94.630909 180.920498 
L 94.123636 180.833211 
L 93.616364 173.765072 
L 93.109091 181.322352 
L 92.601818 188.035615 
L 92.094545 188.312935 
L 91.587273 177.208981 
L 91.08 177.636965 
L 90.572727 191.119627 
L 90.065455 197.470448 
L 89.558182 195.020385 
L 89.050909 187.435761 
L 88.543636 178.680464 
L 88.036364 178.061925 
L 87.529091 188.72792 
L 87.021818 191.407729 
L 86.514545 195.718967 
L 86.007273 186.068888 
L 85.5 184.237826 
L 84.992727 202.189826 
L 84.485455 196.920709 
L 83.978182 189.731638 
L 83.470909 183.412909 
L 82.963636 187.088379 
L 82.456364 191.964936 
L 81.949091 193.417873 
L 81.441818 197.205379 
L 80.934545 194.532842 
L 80.427273 205.276922 
L 79.92 196.079987 
L 79.412727 204.485825 
L 78.905455 212.673864 
L 78.398182 205.903898 
L 77.890909 200.449612 
L 77.383636 195.166683 
L 76.876364 195.85076 
L 76.369091 192.586452 
L 75.861818 208.19515 
L 75.354545 184.443754 
L 74.847273 186.608259 
L 74.34 189.519541 
L 73.832727 188.619604 
z
" clip-path="url(#p3bd653274a)" style="fill: #1f77b4; fill-opacity: 0.3"/>
   </g>
   <g id="PathCollection_1"/>
   <g id="matplotlib.axis_1">
    <g id="xtick_1">
     <g id="line2d_1">
      <defs>
       <path id="mfdf0cf8726" d="M 0 0 
L 0 3.5 
" style="stroke: #000000; stroke-width: 0.8"/>
      </defs>
      <g>
       <use xlink:href="#mfdf0cf8726" x="73.832727" y="307.584" style="stroke: #000000; stroke-width: 0.8"/>
      </g>
     </g>
     <g id="text_1">
      <!-- 0.0 -->
      <g transform="translate(65.881165 322.182437) scale(0.1 -0.1)">
       <defs>
        <path id="DejaVuSans-30" d="M 2034 4250 
Q 1547 4250 1301 3770 
Q 1056 3291 1056 2328 
Q 1056 1369 1301 889 
Q 1547 409 2034 409 
Q 2525 409 2770 889 
Q 3016 1369 3016 2328 
Q 3016 3291 2770 3770 
Q 2525 4250 2034 4250 
z
M 2034 4750 
Q 2819 4750 3233 4129 
Q 3647 3509 3647 2328 
Q 3647 1150 3233 529 
Q 2819 -91 2034 -91 
Q 1250 -91 836 529 
Q 422 1150 422 2328 
Q 422 3509 836 4129 
Q 1250 4750 2034 4750 
z
" transform="scale(0.015625)"/>
        <path id="DejaVuSans-2e" d="M 684 794 
L 1344 794 
L 1344 0 
L 684 0 
L 684 794 
z
" transform="scale(0.015625)"/>
       </defs>
       <use xlink:href="#DejaVuSans-30"/>
       <use xlink:href="#DejaVuSans-2e" x="63.623047"/>
       <use xlink:href="#DejaVuSans-30" x="95.410156"/>
      </g>
     </g>
    </g>
    <g id="xtick_2">
     <g id="line2d_2">
      <g>
       <use xlink:href="#mfdf0cf8726" x="138.763636" y="307.584" style="stroke: #000000; stroke-width: 0.8"/>
      </g>
     </g>
     <g id="text_2">
      <!-- 0.5 -->
      <g transform="translate(130.812074 322.182437) scale(0.1 -0.1)">
       <defs>
        <path id="DejaVuSans-35" d="M 691 4666 
L 3169 4666 
L 3169 4134 
L 1269 4134 
L 1269 2991 
Q 1406 3038 1543 3061 
Q 1681 3084 1819 3084 
Q 2600 3084 3056 2656 
Q 3513 2228 3513 1497 
Q 3513 744 3044 326 
Q 2575 -91 1722 -91 
Q 1428 -91 1123 -41 
Q 819 9 494 109 
L 494 744 
Q 775 591 1075 516 
Q 1375 441 1709 441 
Q 2250 441 2565 725 
Q 2881 1009 2881 1497 
Q 2881 1984 2565 2268 
Q 2250 2553 1709 2553 
Q 1456 2553 1204 2497 
Q 953 2441 691 2322 
L 691 4666 
z
" transform="scale(0.015625)"/>
       </defs>
       <use xlink:href="#DejaVuSans-30"/>
       <use xlink:href="#DejaVuSans-2e" x="63.623047"/>
       <use xlink:href="#DejaVuSans-35" x="95.410156"/>
      </g>
     </g>
    </g>
    <g id="xtick_3">
     <g id="line2d_3">
      <g>
       <use xlink:href="#mfdf0cf8726" x="203.694545" y="307.584" style="stroke: #000000; stroke-width: 0.8"/>
      </g>
     </g>
     <g id="text_3">
      <!-- 1.0 -->
      <g transform="translate(195.742983 322.182437) scale(0.1 -0.1)">
       <defs>
        <path id="DejaVuSans-31" d="M 794 531 
L 1825 531 
L 1825 4091 
L 703 3866 
L 703 4441 
L 1819 4666 
L 2450 4666 
L 2450 531 
L 3481 531 
L 3481 0 
L 794 0 
L 794 531 
z
" transform="scale(0.015625)"/>
       </defs>
       <use xlink:href="#DejaVuSans-31"/>
       <use xlink:href="#DejaVuSans-2e" x="63.623047"/>
       <use xlink:href="#DejaVuSans-30" x="95.410156"/>
      </g>
     </g>
    </g>
    <g id="xtick_4">
     <g id="line2d_4">
      <g>
       <use xlink:href="#mfdf0cf8726" x="268.625455" y="307.584" style="stroke: #000000; stroke-width: 0.8"/>
      </g>
     </g>
     <g id="text_4">
      <!-- 1.5 -->
      <g transform="translate(260.673892 322.182437) scale(0.1 -0.1)">
       <use xlink:href="#DejaVuSans-31"/>
       <use xlink:href="#DejaVuSans-2e" x="63.623047"/>
       <use xlink:href="#DejaVuSans-35" x="95.410156"/>
      </g>
     </g>
    </g>
    <g id="xtick_5">
     <g id="line2d_5">
      <g>
       <use xlink:href="#mfdf0cf8726" x="333.556364" y="307.584" style="stroke: #000000; stroke-width: 0.8"/>
      </g>
     </g>
     <g id="text_5">
      <!-- 2.0 -->
      <g transform="translate(325.604801 322.182437) scale(0.1 -0.1)">
       <defs>
        <path id="DejaVuSans-32" d="M 1228 531 
L 3431 531 
L 3431 0 
L 469 0 
L 469 531 
Q 828 903 1448 1529 
Q 2069 2156 2228 2338 
Q 2531 2678 2651 2914 
Q 2772 3150 2772 3378 
Q 2772 3750 2511 3984 
Q 2250 4219 1831 4219 
Q 1534 4219 1204 4116 
Q 875 4013 500 3803 
L 500 4441 
Q 881 4594 1212 4672 
Q 1544 4750 1819 4750 
Q 2544 4750 2975 4387 
Q 3406 4025 3406 3419 
Q 3406 3131 3298 2873 
Q 3191 2616 2906 2266 
Q 2828 2175 2409 1742 
Q 1991 1309 1228 531 
z
" transform="scale(0.015625)"/>
       </defs>
       <use xlink:href="#DejaVuSans-32"/>
       <use xlink:href="#DejaVuSans-2e" x="63.623047"/>
       <use xlink:href="#DejaVuSans-30" x="95.410156"/>
      </g>
     </g>
    </g>
    <g id="xtick_6">
     <g id="line2d_6">
      <g>
       <use xlink:href="#mfdf0cf8726" x="398.487273" y="307.584" style="stroke: #000000; stroke-width: 0.8"/>
      </g>
     </g>
     <g id="text_6">
      <!-- 2.5 -->
      <g transform="translate(390.53571 322.182437) scale(0.1 -0.1)">
       <use xlink:href="#DejaVuSans-32"/>
       <use xlink:href="#DejaVuSans-2e" x="63.623047"/>
       <use xlink:href="#DejaVuSans-35" x="95.410156"/>
      </g>
     </g>
    </g>
    <g id="text_7">
     <!-- Time (s) -->
     <g transform="translate(215.831094 335.860562) scale(0.1 -0.1)">
      <defs>
       <path id="DejaVuSans-54" d="M -19 4666 
L 3928 4666 
L 3928 4134 
L 2272 4134 
L 2272 0 
L 1638 0 
L 1638 4134 
L -19 4134 
L -19 4666 
z
" transform="scale(0.015625)"/>
       <path id="DejaVuSans-69" d="M 603 3500 
L 1178 3500 
L 1178 0 
L 603 0 
L 603 3500 
z
M 603 4863 
L 1178 4863 
L 1178 4134 
L 603 4134 
L 603 4863 
z
" transform="scale(0.015625)"/>
       <path id="DejaVuSans-6d" d="M 3328 2828 
Q 3544 3216 3844 3400 
Q 4144 3584 4550 3584 
Q 5097 3584 5394 3201 
Q 5691 2819 5691 2113 
L 5691 0 
L 5113 0 
L 5113 2094 
Q 5113 2597 4934 2840 
Q 4756 3084 4391 3084 
Q 3944 3084 3684 2787 
Q 3425 2491 3425 1978 
L 3425 0 
L 2847 0 
L 2847 2094 
Q 2847 2600 2669 2842 
Q 2491 3084 2119 3084 
Q 1678 3084 1418 2786 
Q 1159 2488 1159 1978 
L 1159 0 
L 581 0 
L 581 3500 
L 1159 3500 
L 1159 2956 
Q 1356 3278 1631 3431 
Q 1906 3584 2284 3584 
Q 2666 3584 2933 3390 
Q 3200 3197 3328 2828 
z
" transform="scale(0.015625)"/>
       <path id="DejaVuSans-65" d="M 3597 1894 
L 3597 1613 
L 953 1613 
Q 991 1019 1311 708 
Q 1631 397 2203 397 
Q 2534 397 2845 478 
Q 3156 559 3463 722 
L 3463 178 
Q 3153 47 2828 -22 
Q 2503 -91 2169 -91 
Q 1331 -91 842 396 
Q 353 884 353 1716 
Q 353 2575 817 3079 
Q 1281 3584 2069 3584 
Q 2775 3584 3186 3129 
Q 3597 2675 3597 1894 
z
M 3022 2063 
Q 3016 2534 2758 2815 
Q 2500 3097 2075 3097 
Q 1594 3097 1305 2825 
Q 1016 2553 972 2059 
L 3022 2063 
z
" transform="scale(0.015625)"/>
       <path id="DejaVuSans-20" transform="scale(0.015625)"/>
       <path id="DejaVuSans-28" d="M 1984 4856 
Q 1566 4138 1362 3434 
Q 1159 2731 1159 2009 
Q 1159 1288 1364 580 
Q 1569 -128 1984 -844 
L 1484 -844 
Q 1016 -109 783 600 
Q 550 1309 550 2009 
Q 550 2706 781 3412 
Q 1013 4119 1484 4856 
L 1984 4856 
z
" transform="scale(0.015625)"/>
       <path id="DejaVuSans-73" d="M 2834 3397 
L 2834 2853 
Q 2591 2978 2328 3040 
Q 2066 3103 1784 3103 
Q 1356 3103 1142 2972 
Q 928 2841 928 2578 
Q 928 2378 1081 2264 
Q 1234 2150 1697 2047 
L 1894 2003 
Q 2506 1872 2764 1633 
Q 3022 1394 3022 966 
Q 3022 478 2636 193 
Q 2250 -91 1575 -91 
Q 1294 -91 989 -36 
Q 684 19 347 128 
L 347 722 
Q 666 556 975 473 
Q 1284 391 1588 391 
Q 1994 391 2212 530 
Q 2431 669 2431 922 
Q 2431 1156 2273 1281 
Q 2116 1406 1581 1522 
L 1381 1569 
Q 847 1681 609 1914 
Q 372 2147 372 2553 
Q 372 3047 722 3315 
Q 1072 3584 1716 3584 
Q 2034 3584 2315 3537 
Q 2597 3491 2834 3397 
z
" transform="scale(0.015625)"/>
       <path id="DejaVuSans-29" d="M 513 4856 
L 1013 4856 
Q 1481 4119 1714 3412 
Q 1947 2706 1947 2009 
Q 1947 1309 1714 600 
Q 1481 -109 1013 -844 
L 513 -844 
Q 928 -128 1133 580 
Q 1338 1288 1338 2009 
Q 1338 2731 1133 3434 
Q 928 4138 513 4856 
z
" transform="scale(0.015625)"/>
      </defs>
      <use xlink:href="#DejaVuSans-54"/>
      <use xlink:href="#DejaVuSans-69" x="57.958984"/>
      <use xlink:href="#DejaVuSans-6d" x="85.742188"/>
      <use xlink:href="#DejaVuSans-65" x="183.154297"/>
      <use xlink:href="#DejaVuSans-20" x="244.677734"/>
      <use xlink:href="#DejaVuSans-28" x="276.464844"/>
      <use xlink:href="#DejaVuSans-73" x="315.478516"/>
      <use xlink:href="#DejaVuSans-29" x="367.578125"/>
     </g>
    </g>
   </g>
   <g id="matplotlib.axis_2">
    <g id="ytick_1">
     <g id="line2d_7">
      <defs>
       <path id="m299d5617b0" d="M 0 0 
L -3.5 0 
" style="stroke: #000000; stroke-width: 0.8"/>
      </defs>
      <g>
       <use xlink:href="#m299d5617b0" x="57.6" y="266.772636" style="stroke: #000000; stroke-width: 0.8"/>
      </g>
     </g>
     <g id="text_8">
      <!-- −0.08 -->
      <g transform="translate(19.954687 270.571855) scale(0.1 -0.1)">
       <defs>
        <path id="DejaVuSans-2212" d="M 678 2272 
L 4684 2272 
L 4684 1741 
L 678 1741 
L 678 2272 
z
" transform="scale(0.015625)"/>
        <path id="DejaVuSans-38" d="M 2034 2216 
Q 1584 2216 1326 1975 
Q 1069 1734 1069 1313 
Q 1069 891 1326 650 
Q 1584 409 2034 409 
Q 2484 409 2743 651 
Q 3003 894 3003 1313 
Q 3003 1734 2745 1975 
Q 2488 2216 2034 2216 
z
M 1403 2484 
Q 997 2584 770 2862 
Q 544 3141 544 3541 
Q 544 4100 942 4425 
Q 1341 4750 2034 4750 
Q 2731 4750 3128 4425 
Q 3525 4100 3525 3541 
Q 3525 3141 3298 2862 
Q 3072 2584 2669 2484 
Q 3125 2378 3379 2068 
Q 3634 1759 3634 1313 
Q 3634 634 3220 271 
Q 2806 -91 2034 -91 
Q 1263 -91 848 271 
Q 434 634 434 1313 
Q 434 1759 690 2068 
Q 947 2378 1403 2484 
z
M 1172 3481 
Q 1172 3119 1398 2916 
Q 1625 2713 2034 2713 
Q 2441 2713 2670 2916 
Q 2900 3119 2900 3481 
Q 2900 3844 2670 4047 
Q 2441 4250 2034 4250 
Q 1625 4250 1398 4047 
Q 1172 3844 1172 3481 
z
" transform="scale(0.015625)"/>
       </defs>
       <use xlink:href="#DejaVuSans-2212"/>
       <use xlink:href="#DejaVuSans-30" x="83.789062"/>
       <use xlink:href="#DejaVuSans-2e" x="147.412109"/>
       <use xlink:href="#DejaVuSans-30" x="179.199219"/>
       <use xlink:href="#DejaVuSans-38" x="242.822266"/>
      </g>
     </g>
    </g>
    <g id="ytick_2">
     <g id="line2d_8">
      <g>
       <use xlink:href="#m299d5617b0" x="57.6" y="213.471477" style="stroke: #000000; stroke-width: 0.8"/>
      </g>
     </g>
     <g id="text_9">
      <!-- −0.06 -->
      <g transform="translate(19.954687 217.270696) scale(0.1 -0.1)">
       <defs>
        <path id="DejaVuSans-36" d="M 2113 2584 
Q 1688 2584 1439 2293 
Q 1191 2003 1191 1497 
Q 1191 994 1439 701 
Q 1688 409 2113 409 
Q 2538 409 2786 701 
Q 3034 994 3034 1497 
Q 3034 2003 2786 2293 
Q 2538 2584 2113 2584 
z
M 3366 4563 
L 3366 3988 
Q 3128 4100 2886 4159 
Q 2644 4219 2406 4219 
Q 1781 4219 1451 3797 
Q 1122 3375 1075 2522 
Q 1259 2794 1537 2939 
Q 1816 3084 2150 3084 
Q 2853 3084 3261 2657 
Q 3669 2231 3669 1497 
Q 3669 778 3244 343 
Q 2819 -91 2113 -91 
Q 1303 -91 875 529 
Q 447 1150 447 2328 
Q 447 3434 972 4092 
Q 1497 4750 2381 4750 
Q 2619 4750 2861 4703 
Q 3103 4656 3366 4563 
z
" transform="scale(0.015625)"/>
       </defs>
       <use xlink:href="#DejaVuSans-2212"/>
       <use xlink:href="#DejaVuSans-30" x="83.789062"/>
       <use xlink:href="#DejaVuSans-2e" x="147.412109"/>
       <use xlink:href="#DejaVuSans-30" x="179.199219"/>
       <use xlink:href="#DejaVuSans-36" x="242.822266"/>
      </g>
     </g>
    </g>
    <g id="ytick_3">
     <g id="line2d_9">
      <g>
       <use xlink:href="#m299d5617b0" x="57.6" y="160.170318" style="stroke: #000000; stroke-width: 0.8"/>
      </g>
     </g>
     <g id="text_10">
      <!-- −0.04 -->
      <g transform="translate(19.954687 163.969537) scale(0.1 -0.1)">
       <defs>
        <path id="DejaVuSans-34" d="M 2419 4116 
L 825 1625 
L 2419 1625 
L 2419 4116 
z
M 2253 4666 
L 3047 4666 
L 3047 1625 
L 3713 1625 
L 3713 1100 
L 3047 1100 
L 3047 0 
L 2419 0 
L 2419 1100 
L 313 1100 
L 313 1709 
L 2253 4666 
z
" transform="scale(0.015625)"/>
       </defs>
       <use xlink:href="#DejaVuSans-2212"/>
       <use xlink:href="#DejaVuSans-30" x="83.789062"/>
       <use xlink:href="#DejaVuSans-2e" x="147.412109"/>
       <use xlink:href="#DejaVuSans-30" x="179.199219"/>
       <use xlink:href="#DejaVuSans-34" x="242.822266"/>
      </g>
     </g>
    </g>
    <g id="ytick_4">
     <g id="line2d_10">
      <g>
       <use xlink:href="#m299d5617b0" x="57.6" y="106.869159" style="stroke: #000000; stroke-width: 0.8"/>
      </g>
     </g>
     <g id="text_11">
      <!-- −0.02 -->
      <g transform="translate(19.954687 110.668378) scale(0.1 -0.1)">
       <use xlink:href="#DejaVuSans-2212"/>
       <use xlink:href="#DejaVuSans-30" x="83.789062"/>
       <use xlink:href="#DejaVuSans-2e" x="147.412109"/>
       <use xlink:href="#DejaVuSans-30" x="179.199219"/>
       <use xlink:href="#DejaVuSans-32" x="242.822266"/>
      </g>
     </g>
    </g>
    <g id="ytick_5">
     <g id="line2d_11">
      <g>
       <use xlink:href="#m299d5617b0" x="57.6" y="53.568" style="stroke: #000000; stroke-width: 0.8"/>
      </g>
     </g>
     <g id="text_12">
      <!-- 0.00 -->
      <g transform="translate(28.334375 57.367219) scale(0.1 -0.1)">
       <use xlink:href="#DejaVuSans-30"/>
       <use xlink:href="#DejaVuSans-2e" x="63.623047"/>
       <use xlink:href="#DejaVuSans-30" x="95.410156"/>
       <use xlink:href="#DejaVuSans-30" x="159.033203"/>
      </g>
     </g>
    </g>
    <g id="text_13">
     <!-- Score -->
     <g transform="translate(13.875 188.530344) rotate(-90) scale(0.1 -0.1)">
      <defs>
       <path id="DejaVuSans-53" d="M 3425 4513 
L 3425 3897 
Q 3066 4069 2747 4153 
Q 2428 4238 2131 4238 
Q 1616 4238 1336 4038 
Q 1056 3838 1056 3469 
Q 1056 3159 1242 3001 
Q 1428 2844 1947 2747 
L 2328 2669 
Q 3034 2534 3370 2195 
Q 3706 1856 3706 1288 
Q 3706 609 3251 259 
Q 2797 -91 1919 -91 
Q 1588 -91 1214 -16 
Q 841 59 441 206 
L 441 856 
Q 825 641 1194 531 
Q 1563 422 1919 422 
Q 2459 422 2753 634 
Q 3047 847 3047 1241 
Q 3047 1584 2836 1778 
Q 2625 1972 2144 2069 
L 1759 2144 
Q 1053 2284 737 2584 
Q 422 2884 422 3419 
Q 422 4038 858 4394 
Q 1294 4750 2059 4750 
Q 2388 4750 2728 4690 
Q 3069 4631 3425 4513 
z
" transform="scale(0.015625)"/>
       <path id="DejaVuSans-63" d="M 3122 3366 
L 3122 2828 
Q 2878 2963 2633 3030 
Q 2388 3097 2138 3097 
Q 1578 3097 1268 2742 
Q 959 2388 959 1747 
Q 959 1106 1268 751 
Q 1578 397 2138 397 
Q 2388 397 2633 464 
Q 2878 531 3122 666 
L 3122 134 
Q 2881 22 2623 -34 
Q 2366 -91 2075 -91 
Q 1284 -91 818 406 
Q 353 903 353 1747 
Q 353 2603 823 3093 
Q 1294 3584 2113 3584 
Q 2378 3584 2631 3529 
Q 2884 3475 3122 3366 
z
" transform="scale(0.015625)"/>
       <path id="DejaVuSans-6f" d="M 1959 3097 
Q 1497 3097 1228 2736 
Q 959 2375 959 1747 
Q 959 1119 1226 758 
Q 1494 397 1959 397 
Q 2419 397 2687 759 
Q 2956 1122 2956 1747 
Q 2956 2369 2687 2733 
Q 2419 3097 1959 3097 
z
M 1959 3584 
Q 2709 3584 3137 3096 
Q 3566 2609 3566 1747 
Q 3566 888 3137 398 
Q 2709 -91 1959 -91 
Q 1206 -91 779 398 
Q 353 888 353 1747 
Q 353 2609 779 3096 
Q 1206 3584 1959 3584 
z
" transform="scale(0.015625)"/>
       <path id="DejaVuSans-72" d="M 2631 2963 
Q 2534 3019 2420 3045 
Q 2306 3072 2169 3072 
Q 1681 3072 1420 2755 
Q 1159 2438 1159 1844 
L 1159 0 
L 581 0 
L 581 3500 
L 1159 3500 
L 1159 2956 
Q 1341 3275 1631 3429 
Q 1922 3584 2338 3584 
Q 2397 3584 2469 3576 
Q 2541 3569 2628 3553 
L 2631 2963 
z
" transform="scale(0.015625)"/>
      </defs>
      <use xlink:href="#DejaVuSans-53"/>
      <use xlink:href="#DejaVuSans-63" x="63.476562"/>
      <use xlink:href="#DejaVuSans-6f" x="118.457031"/>
      <use xlink:href="#DejaVuSans-72" x="179.638672"/>
      <use xlink:href="#DejaVuSans-65" x="218.501953"/>
     </g>
    </g>
   </g>
   <g id="line2d_12">
    <path d="M 73.832727 196.055431 
L 74.34 197.407387 
L 74.847273 194.589128 
L 75.354545 195.03449 
L 75.861818 251.841575 
L 76.369091 205.80369 
L 76.876364 207.089056 
L 77.383636 206.492949 
L 77.890909 210.590502 
L 78.905455 227.779089 
L 79.412727 213.669557 
L 79.92 206.910458 
L 80.427273 216.037404 
L 80.934545 205.187282 
L 81.441818 207.416672 
L 81.949091 205.624807 
L 82.456364 203.171846 
L 82.963636 196.750589 
L 83.470909 193.347001 
L 83.978182 201.874253 
L 84.485455 206.831794 
L 84.992727 213.70347 
L 85.5 198.656857 
L 86.007273 200.953913 
L 86.514545 210.487281 
L 87.021818 206.074649 
L 87.529091 205.148295 
L 88.036364 192.603519 
L 88.543636 194.0196 
L 89.050909 203.715949 
L 89.558182 209.343297 
L 90.065455 208.677464 
L 90.572727 202.50516 
L 91.08 188.821937 
L 91.587273 188.98408 
L 92.094545 201.267658 
L 92.601818 199.318509 
L 93.616364 185.889533 
L 94.123636 194.464624 
L 94.630909 194.054767 
L 95.138182 185.133645 
L 95.645455 181.410619 
L 96.66 192.591775 
L 97.167273 188.676207 
L 97.674545 188.380718 
L 98.181818 196.233478 
L 98.689091 194.639424 
L 99.196364 194.439559 
L 99.703636 186.963507 
L 100.210909 197.575818 
L 100.718182 192.292036 
L 101.225455 195.5129 
L 101.732727 194.523729 
L 102.24 199.688823 
L 102.747273 203.640022 
L 103.254545 200.046443 
L 103.761818 190.54766 
L 104.269091 197.745073 
L 104.776364 198.374787 
L 105.283636 196.082927 
L 105.790909 200.049713 
L 106.298182 198.544221 
L 106.805455 193.693879 
L 107.312727 192.860318 
L 107.82 192.288525 
L 108.327273 189.052168 
L 108.834545 192.194957 
L 109.341818 193.651478 
L 109.849091 193.516714 
L 110.356364 178.234541 
L 110.863636 167.206558 
L 111.370909 168.723832 
L 112.385455 202.807037 
L 112.892727 195.488605 
L 113.4 182.526695 
L 113.907273 190.299864 
L 114.414545 187.887071 
L 114.921818 190.217363 
L 115.429091 196.413897 
L 115.936364 194.174223 
L 116.950909 184.674421 
L 117.458182 192.758494 
L 117.965455 193.186435 
L 118.472727 192.923884 
L 118.98 171.471788 
L 119.487273 181.85139 
L 119.994545 178.560493 
L 120.501818 176.518388 
L 121.009091 177.26715 
L 121.516364 192.310247 
L 122.023636 184.801093 
L 122.530909 185.955919 
L 123.038182 183.910291 
L 123.545455 180.409442 
L 124.052727 188.741267 
L 124.56 190.666154 
L 125.067273 186.51784 
L 125.574545 189.444436 
L 126.081818 188.45263 
L 126.589091 190.268623 
L 127.096364 200.530328 
L 127.603636 206.795359 
L 128.110909 205.28044 
L 128.618182 199.116818 
L 129.125455 191.438239 
L 129.632727 200.879004 
L 130.14 188.654884 
L 130.647273 183.786826 
L 131.154545 190.952488 
L 131.661818 188.724748 
L 132.169091 188.658583 
L 132.676364 192.134822 
L 133.183636 191.463309 
L 133.690909 201.312312 
L 134.198182 204.842084 
L 134.705455 192.93312 
L 135.212727 200.901357 
L 135.72 196.40729 
L 136.227273 195.059178 
L 136.734545 206.835895 
L 137.241818 202.282802 
L 137.749091 191.012465 
L 138.256364 197.058176 
L 138.763636 208.59369 
L 139.270909 203.012793 
L 139.778182 204.397825 
L 140.285455 195.387314 
L 140.792727 195.843944 
L 141.3 190.760098 
L 141.807273 192.290749 
L 142.314545 204.898113 
L 142.821818 225.938435 
L 143.836364 207.955306 
L 144.343636 205.478526 
L 144.850909 208.533011 
L 145.358182 214.845648 
L 145.865455 207.962224 
L 146.372727 209.047859 
L 146.88 208.995739 
L 147.387273 212.323052 
L 147.894545 211.318352 
L 148.401818 206.115104 
L 148.909091 206.705818 
L 149.416364 189.098848 
L 149.923636 195.176907 
L 150.430909 193.41957 
L 150.938182 192.440211 
L 151.445455 195.807561 
L 151.952727 205.406234 
L 152.46 210.047646 
L 152.967273 202.301481 
L 153.474545 204.277025 
L 153.981818 202.755737 
L 154.489091 196.755038 
L 154.996364 207.868448 
L 155.503636 208.587766 
L 156.010909 210.833817 
L 156.518182 217.145905 
L 157.532727 198.832784 
L 158.04 199.37718 
L 158.547273 206.096874 
L 159.054545 203.237787 
L 159.561818 209.83271 
L 160.069091 208.141862 
L 160.576364 204.075287 
L 161.083636 203.432902 
L 161.590909 207.436191 
L 162.098182 208.66957 
L 162.605455 202.280231 
L 163.112727 204.596751 
L 163.62 199.605256 
L 164.127273 208.199998 
L 164.634545 209.092195 
L 165.141818 211.617308 
L 165.649091 218.334685 
L 166.156364 223.335804 
L 166.663636 213.040051 
L 167.170909 220.514249 
L 167.678182 217.168628 
L 168.692727 228.271959 
L 169.2 215.148118 
L 169.707273 215.081583 
L 170.721818 207.985125 
L 171.229091 205.834728 
L 171.736364 207.152349 
L 172.243636 203.225885 
L 173.258182 209.93222 
L 173.765455 202.785864 
L 174.272727 193.8146 
L 174.78 194.005504 
L 175.287273 201.517395 
L 175.794545 200.678629 
L 176.301818 211.893102 
L 176.809091 212.330881 
L 177.316364 206.899791 
L 177.823636 206.000716 
L 178.330909 212.905774 
L 178.838182 216.281417 
L 179.345455 206.765679 
L 179.852727 187.219525 
L 180.36 175.28832 
L 180.867273 175.189874 
L 181.374545 178.636836 
L 181.881818 199.523988 
L 182.389091 197.829199 
L 182.896364 203.898013 
L 183.403636 207.494565 
L 183.910909 199.36871 
L 184.418182 196.042114 
L 184.925455 184.146059 
L 185.432727 181.291126 
L 186.447273 195.026597 
L 186.954545 205.193665 
L 187.461818 210.77925 
L 188.476364 198.797513 
L 188.983636 197.71188 
L 189.490909 197.494254 
L 189.998182 194.722105 
L 190.505455 206.71681 
L 191.012727 214.002454 
L 191.52 205.715891 
L 192.027273 205.33571 
L 192.534545 216.736379 
L 193.041818 209.021956 
L 193.549091 215.167949 
L 194.056364 199.710947 
L 194.563636 200.904795 
L 195.070909 196.086344 
L 195.578182 196.044369 
L 196.085455 209.687052 
L 196.592727 209.00702 
L 197.1 202.38328 
L 197.607273 211.565631 
L 198.621818 217.090842 
L 199.129091 201.162485 
L 199.636364 193.700797 
L 200.143636 198.50727 
L 200.650909 192.107639 
L 201.158182 198.502207 
L 201.665455 208.482397 
L 202.172727 199.478771 
L 202.68 199.881016 
L 203.187273 210.791068 
L 203.694545 212.062022 
L 204.201818 209.779621 
L 204.709091 196.57932 
L 205.216364 200.391999 
L 205.723636 198.783043 
L 206.230909 195.549955 
L 206.738182 191.23211 
L 207.245455 197.896978 
L 208.26 190.566737 
L 208.767273 198.403018 
L 209.274545 203.708355 
L 209.781818 197.378916 
L 210.289091 200.609564 
L 210.796364 200.254896 
L 211.303636 201.825707 
L 211.810909 203.883541 
L 212.318182 200.889891 
L 212.825455 192.677913 
L 213.332727 200.169215 
L 213.84 197.606619 
L 214.347273 190.870845 
L 214.854545 198.077366 
L 215.361818 200.897029 
L 215.869091 197.758369 
L 216.883636 210.048594 
L 217.390909 206.624451 
L 217.898182 208.368132 
L 218.405455 222.426701 
L 218.912727 218.253011 
L 219.42 219.660932 
L 219.927273 222.891658 
L 220.434545 206.124242 
L 220.941818 210.873655 
L 221.449091 213.959661 
L 221.956364 204.705916 
L 222.463636 200.630061 
L 222.970909 194.670766 
L 223.478182 200.233008 
L 223.985455 199.427558 
L 224.492727 199.524273 
L 225 198.6982 
L 225.507273 201.724566 
L 226.014545 198.614349 
L 226.521818 196.472472 
L 227.029091 197.326542 
L 227.536364 201.891134 
L 228.043636 208.058405 
L 228.550909 203.979188 
L 229.058182 194.197831 
L 229.565455 192.54376 
L 230.58 208.861861 
L 231.087273 208.691769 
L 231.594545 207.812446 
L 232.609091 203.043376 
L 233.116364 208.822451 
L 233.623636 201.253257 
L 234.130909 197.621739 
L 234.638182 206.628203 
L 235.145455 208.517315 
L 235.652727 208.855272 
L 236.16 211.421154 
L 236.667273 207.891062 
L 237.174545 201.91666 
L 237.681818 191.345883 
L 238.189091 190.693037 
L 238.696364 195.168916 
L 239.203636 194.599103 
L 239.710909 203.339874 
L 240.218182 209.672745 
L 240.725455 185.709286 
L 241.232727 193.875507 
L 241.74 188.746298 
L 242.247273 191.64356 
L 242.754545 183.336111 
L 243.769091 196.557026 
L 244.276364 196.201827 
L 244.783636 208.405166 
L 245.290909 207.856094 
L 245.798182 200.060879 
L 246.305455 204.222894 
L 246.812727 219.154429 
L 247.32 221.788704 
L 247.827273 202.493845 
L 248.334545 195.125129 
L 248.841818 196.215996 
L 249.349091 199.790864 
L 249.856364 205.433783 
L 250.363636 207.583529 
L 250.870909 204.477611 
L 251.378182 211.484742 
L 251.885455 221.282428 
L 252.9 207.536884 
L 253.407273 204.513252 
L 253.914545 195.416607 
L 254.421818 196.777728 
L 254.929091 207.872119 
L 255.436364 213.151712 
L 255.943636 208.55652 
L 256.450909 208.093855 
L 256.958182 211.489038 
L 257.465455 205.278808 
L 257.972727 196.017137 
L 258.48 196.054435 
L 258.987273 203.616921 
L 260.001818 206.626791 
L 260.509091 206.09637 
L 261.016364 213.471993 
L 261.523636 206.94295 
L 262.030909 216.161173 
L 262.538182 205.367819 
L 263.552727 190.108169 
L 264.06 198.207943 
L 264.567273 186.734021 
L 265.074545 186.546862 
L 265.581818 202.974604 
L 266.596364 188.482284 
L 267.103636 190.926738 
L 267.610909 188.948177 
L 268.118182 194.443853 
L 268.625455 197.799708 
L 269.132727 201.95102 
L 270.147273 194.214582 
L 270.654545 183.560825 
L 271.161818 178.261785 
L 271.669091 185.365341 
L 272.683636 189.777707 
L 273.698182 201.360252 
L 274.205455 200.781449 
L 274.712727 207.487393 
L 275.22 219.014796 
L 275.727273 214.021494 
L 276.234545 207.310127 
L 276.741818 204.299371 
L 277.249091 206.506091 
L 277.756364 204.917106 
L 278.263636 207.939841 
L 278.770909 205.336216 
L 279.278182 207.210722 
L 279.785455 208.437176 
L 280.292727 192.825975 
L 281.307273 208.902939 
L 281.814545 210.343691 
L 282.321818 206.170601 
L 282.829091 212.121165 
L 283.336364 213.291984 
L 283.843636 213.92936 
L 284.350909 210.889017 
L 284.858182 214.013452 
L 285.365455 202.089085 
L 285.872727 208.930304 
L 286.887273 202.955373 
L 287.394545 206.211863 
L 288.409091 189.863798 
L 288.916364 199.393755 
L 289.423636 200.749993 
L 290.438182 204.573691 
L 291.452727 202.624609 
L 291.96 190.78162 
L 292.467273 203.024451 
L 292.974545 204.465245 
L 293.481818 201.529665 
L 293.989091 203.002969 
L 294.496364 197.807991 
L 295.510909 218.604851 
L 296.018182 213.856221 
L 296.525455 220.893154 
L 297.032727 200.403148 
L 297.54 187.464842 
L 298.047273 197.372076 
L 298.554545 203.698384 
L 299.061818 203.946158 
L 299.569091 200.782449 
L 300.076364 202.564045 
L 300.583636 189.618989 
L 301.090909 206.643321 
L 301.598182 208.089425 
L 302.612727 193.619457 
L 303.12 200.985497 
L 303.627273 199.582405 
L 304.134545 203.78465 
L 304.641818 205.919103 
L 305.149091 212.543292 
L 305.656364 209.270028 
L 306.163636 218.888271 
L 306.670909 217.374929 
L 307.178182 214.132867 
L 307.685455 208.342384 
L 308.192727 209.175149 
L 308.7 222.123476 
L 309.207273 218.622469 
L 309.714545 216.187263 
L 310.729091 226.15591 
L 311.236364 225.208111 
L 311.743636 216.993115 
L 312.250909 211.945247 
L 312.758182 208.638886 
L 313.265455 209.035618 
L 314.28 196.338761 
L 314.787273 196.254196 
L 315.801818 208.038859 
L 316.309091 205.792894 
L 316.816364 206.771407 
L 317.323636 197.953622 
L 318.338182 217.713766 
L 318.845455 213.383208 
L 319.352727 205.20091 
L 319.86 203.292318 
L 320.367273 210.071233 
L 320.874545 207.602041 
L 321.381818 200.590294 
L 321.889091 196.968943 
L 322.396364 197.17447 
L 322.903636 199.945994 
L 323.410909 205.087006 
L 323.918182 203.455787 
L 324.932727 212.443672 
L 325.44 199.249555 
L 325.947273 200.837577 
L 326.454545 200.069791 
L 326.961818 193.551392 
L 327.469091 201.424204 
L 327.976364 205.177148 
L 328.990909 201.218469 
L 329.498182 196.457443 
L 330.005455 197.189322 
L 330.512727 199.352433 
L 331.02 206.831518 
L 331.527273 209.216166 
L 332.034545 230.55082 
L 332.541818 234.309042 
L 333.049091 227.750333 
L 333.556364 218.456995 
L 334.063636 206.794357 
L 334.570909 200.83163 
L 335.078182 202.853376 
L 335.585455 216.432428 
L 336.092727 213.862863 
L 336.6 199.592631 
L 337.107273 197.458441 
L 337.614545 205.078293 
L 338.121818 203.624739 
L 338.629091 199.341492 
L 339.136364 196.207811 
L 339.643636 194.919485 
L 340.150909 192.377082 
L 340.658182 193.247222 
L 341.165455 191.451185 
L 341.672727 187.706545 
L 342.18 189.47685 
L 342.687273 203.335608 
L 343.194545 208.628603 
L 343.701818 208.592984 
L 344.209091 209.952183 
L 344.716364 200.053416 
L 345.223636 209.322759 
L 345.730909 205.022429 
L 346.238182 212.753522 
L 346.745455 207.057958 
L 347.252727 212.391076 
L 347.76 204.682757 
L 348.267273 205.659422 
L 348.774545 211.106612 
L 349.281818 200.505693 
L 349.789091 193.11379 
L 350.296364 201.026768 
L 350.803636 216.518455 
L 351.310909 208.656163 
L 351.818182 198.370083 
L 352.325455 198.095655 
L 352.832727 192.818085 
L 353.34 193.063682 
L 353.847273 198.905111 
L 354.354545 199.716069 
L 354.861818 195.679632 
L 355.369091 204.011919 
L 355.876364 208.867814 
L 356.383636 216.981129 
L 356.890909 218.501694 
L 357.398182 215.992676 
L 357.905455 209.079407 
L 358.412727 210.527149 
L 358.92 202.815759 
L 359.427273 200.061724 
L 359.934545 199.01911 
L 360.441818 202.678405 
L 360.949091 205.498868 
L 361.456364 198.808307 
L 361.963636 212.419005 
L 362.470909 210.160514 
L 363.485455 196.509964 
L 363.992727 197.261649 
L 364.5 199.761198 
L 365.007273 199.532417 
L 366.021818 196.446312 
L 366.529091 190.994065 
L 367.036364 195.945646 
L 367.543636 202.522856 
L 368.050909 207.580317 
L 368.558182 201.406078 
L 369.065455 189.116218 
L 369.572727 192.551359 
L 370.08 194.087028 
L 370.587273 186.122826 
L 371.094545 192.911976 
L 371.601818 194.193511 
L 372.109091 192.928963 
L 372.616364 187.062134 
L 373.123636 174.307921 
L 373.630909 192.917388 
L 374.138182 206.027048 
L 374.645455 200.655674 
L 375.152727 198.672485 
L 375.66 195.245375 
L 376.167273 190.981401 
L 376.674545 190.999631 
L 377.181818 195.228117 
L 377.689091 196.305802 
L 378.196364 204.731733 
L 378.703636 196.974106 
L 379.210909 198.380259 
L 379.718182 195.85459 
L 380.225455 199.167982 
L 380.732727 190.639479 
L 381.24 192.579663 
L 381.747273 189.157269 
L 382.761818 202.433046 
L 383.269091 205.566912 
L 384.283636 192.563172 
L 385.298182 210.045557 
L 385.805455 200.053264 
L 386.312727 184.598102 
L 386.82 180.825587 
L 387.327273 191.732751 
L 387.834545 194.904632 
L 388.341818 194.95278 
L 388.849091 209.504214 
L 389.356364 214.455068 
L 389.863636 196.465807 
L 390.370909 193.348005 
L 390.878182 188.482483 
L 391.385455 191.211162 
L 391.892727 188.108023 
L 392.4 196.175755 
L 392.907273 185.910956 
L 393.414545 184.013336 
L 393.921818 183.454338 
L 394.429091 183.324573 
L 394.936364 182.957088 
L 395.443636 180.908601 
L 395.950909 186.576971 
L 396.458182 174.790837 
L 396.965455 174.967931 
L 397.472727 183.402424 
L 397.98 176.001859 
L 398.487273 178.16993 
L 398.487273 178.16993 
" clip-path="url(#p3bd653274a)" style="fill: none; stroke: #1f77b4; stroke-width: 1.5; stroke-linecap: square"/>
   </g>
   <g id="line2d_13">
    <path d="M 57.6 53.568 
L 414.72 53.568 
" clip-path="url(#p3bd653274a)" style="fill: none; stroke-dasharray: 5.55,2.4; stroke-dashoffset: 0; stroke: #000000; stroke-width: 1.5"/>
   </g>
   <g id="patch_3">
    <path d="M 57.6 307.584 
L 57.6 41.472 
" style="fill: none; stroke: #000000; stroke-width: 0.8; stroke-linejoin: miter; stroke-linecap: square"/>
   </g>
   <g id="patch_4">
    <path d="M 414.72 307.584 
L 414.72 41.472 
" style="fill: none; stroke: #000000; stroke-width: 0.8; stroke-linejoin: miter; stroke-linecap: square"/>
   </g>
   <g id="patch_5">
    <path d="M 57.6 307.584 
L 414.72 307.584 
" style="fill: none; stroke: #000000; stroke-width: 0.8; stroke-linejoin: miter; stroke-linecap: square"/>
   </g>
   <g id="patch_6">
    <path d="M 57.6 41.472 
L 414.72 41.472 
" style="fill: none; stroke: #000000; stroke-width: 0.8; stroke-linejoin: miter; stroke-linecap: square"/>
   </g>
   <g id="text_14">
    <!-- ERP Sliding R2 (Parietal Region) -->
    <g transform="translate(140.969063 35.472) scale(0.12 -0.12)">
     <defs>
      <path id="DejaVuSans-45" d="M 628 4666 
L 3578 4666 
L 3578 4134 
L 1259 4134 
L 1259 2753 
L 3481 2753 
L 3481 2222 
L 1259 2222 
L 1259 531 
L 3634 531 
L 3634 0 
L 628 0 
L 628 4666 
z
" transform="scale(0.015625)"/>
      <path id="DejaVuSans-52" d="M 2841 2188 
Q 3044 2119 3236 1894 
Q 3428 1669 3622 1275 
L 4263 0 
L 3584 0 
L 2988 1197 
Q 2756 1666 2539 1819 
Q 2322 1972 1947 1972 
L 1259 1972 
L 1259 0 
L 628 0 
L 628 4666 
L 2053 4666 
Q 2853 4666 3247 4331 
Q 3641 3997 3641 3322 
Q 3641 2881 3436 2590 
Q 3231 2300 2841 2188 
z
M 1259 4147 
L 1259 2491 
L 2053 2491 
Q 2509 2491 2742 2702 
Q 2975 2913 2975 3322 
Q 2975 3731 2742 3939 
Q 2509 4147 2053 4147 
L 1259 4147 
z
" transform="scale(0.015625)"/>
      <path id="DejaVuSans-50" d="M 1259 4147 
L 1259 2394 
L 2053 2394 
Q 2494 2394 2734 2622 
Q 2975 2850 2975 3272 
Q 2975 3691 2734 3919 
Q 2494 4147 2053 4147 
L 1259 4147 
z
M 628 4666 
L 2053 4666 
Q 2838 4666 3239 4311 
Q 3641 3956 3641 3272 
Q 3641 2581 3239 2228 
Q 2838 1875 2053 1875 
L 1259 1875 
L 1259 0 
L 628 0 
L 628 4666 
z
" transform="scale(0.015625)"/>
      <path id="DejaVuSans-6c" d="M 603 4863 
L 1178 4863 
L 1178 0 
L 603 0 
L 603 4863 
z
" transform="scale(0.015625)"/>
      <path id="DejaVuSans-64" d="M 2906 2969 
L 2906 4863 
L 3481 4863 
L 3481 0 
L 2906 0 
L 2906 525 
Q 2725 213 2448 61 
Q 2172 -91 1784 -91 
Q 1150 -91 751 415 
Q 353 922 353 1747 
Q 353 2572 751 3078 
Q 1150 3584 1784 3584 
Q 2172 3584 2448 3432 
Q 2725 3281 2906 2969 
z
M 947 1747 
Q 947 1113 1208 752 
Q 1469 391 1925 391 
Q 2381 391 2643 752 
Q 2906 1113 2906 1747 
Q 2906 2381 2643 2742 
Q 2381 3103 1925 3103 
Q 1469 3103 1208 2742 
Q 947 2381 947 1747 
z
" transform="scale(0.015625)"/>
      <path id="DejaVuSans-6e" d="M 3513 2113 
L 3513 0 
L 2938 0 
L 2938 2094 
Q 2938 2591 2744 2837 
Q 2550 3084 2163 3084 
Q 1697 3084 1428 2787 
Q 1159 2491 1159 1978 
L 1159 0 
L 581 0 
L 581 3500 
L 1159 3500 
L 1159 2956 
Q 1366 3272 1645 3428 
Q 1925 3584 2291 3584 
Q 2894 3584 3203 3211 
Q 3513 2838 3513 2113 
z
" transform="scale(0.015625)"/>
      <path id="DejaVuSans-67" d="M 2906 1791 
Q 2906 2416 2648 2759 
Q 2391 3103 1925 3103 
Q 1463 3103 1205 2759 
Q 947 2416 947 1791 
Q 947 1169 1205 825 
Q 1463 481 1925 481 
Q 2391 481 2648 825 
Q 2906 1169 2906 1791 
z
M 3481 434 
Q 3481 -459 3084 -895 
Q 2688 -1331 1869 -1331 
Q 1566 -1331 1297 -1286 
Q 1028 -1241 775 -1147 
L 775 -588 
Q 1028 -725 1275 -790 
Q 1522 -856 1778 -856 
Q 2344 -856 2625 -561 
Q 2906 -266 2906 331 
L 2906 616 
Q 2728 306 2450 153 
Q 2172 0 1784 0 
Q 1141 0 747 490 
Q 353 981 353 1791 
Q 353 2603 747 3093 
Q 1141 3584 1784 3584 
Q 2172 3584 2450 3431 
Q 2728 3278 2906 2969 
L 2906 3500 
L 3481 3500 
L 3481 434 
z
" transform="scale(0.015625)"/>
      <path id="DejaVuSans-61" d="M 2194 1759 
Q 1497 1759 1228 1600 
Q 959 1441 959 1056 
Q 959 750 1161 570 
Q 1363 391 1709 391 
Q 2188 391 2477 730 
Q 2766 1069 2766 1631 
L 2766 1759 
L 2194 1759 
z
M 3341 1997 
L 3341 0 
L 2766 0 
L 2766 531 
Q 2569 213 2275 61 
Q 1981 -91 1556 -91 
Q 1019 -91 701 211 
Q 384 513 384 1019 
Q 384 1609 779 1909 
Q 1175 2209 1959 2209 
L 2766 2209 
L 2766 2266 
Q 2766 2663 2505 2880 
Q 2244 3097 1772 3097 
Q 1472 3097 1187 3025 
Q 903 2953 641 2809 
L 641 3341 
Q 956 3463 1253 3523 
Q 1550 3584 1831 3584 
Q 2591 3584 2966 3190 
Q 3341 2797 3341 1997 
z
" transform="scale(0.015625)"/>
      <path id="DejaVuSans-74" d="M 1172 4494 
L 1172 3500 
L 2356 3500 
L 2356 3053 
L 1172 3053 
L 1172 1153 
Q 1172 725 1289 603 
Q 1406 481 1766 481 
L 2356 481 
L 2356 0 
L 1766 0 
Q 1100 0 847 248 
Q 594 497 594 1153 
L 594 3053 
L 172 3053 
L 172 3500 
L 594 3500 
L 594 4494 
L 1172 4494 
z
" transform="scale(0.015625)"/>
     </defs>
     <use xlink:href="#DejaVuSans-45"/>
     <use xlink:href="#DejaVuSans-52" x="63.183594"/>
     <use xlink:href="#DejaVuSans-50" x="132.666016"/>
     <use xlink:href="#DejaVuSans-20" x="192.96875"/>
     <use xlink:href="#DejaVuSans-53" x="224.755859"/>
     <use xlink:href="#DejaVuSans-6c" x="288.232422"/>
     <use xlink:href="#DejaVuSans-69" x="316.015625"/>
     <use xlink:href="#DejaVuSans-64" x="343.798828"/>
     <use xlink:href="#DejaVuSans-69" x="407.275391"/>
     <use xlink:href="#DejaVuSans-6e" x="435.058594"/>
     <use xlink:href="#DejaVuSans-67" x="498.4375"/>
     <use xlink:href="#DejaVuSans-20" x="561.914062"/>
     <use xlink:href="#DejaVuSans-52" x="593.701172"/>
     <use xlink:href="#DejaVuSans-32" x="663.183594"/>
     <use xlink:href="#DejaVuSans-20" x="726.806641"/>
     <use xlink:href="#DejaVuSans-28" x="758.59375"/>
     <use xlink:href="#DejaVuSans-50" x="797.607422"/>
     <use xlink:href="#DejaVuSans-61" x="853.410156"/>
     <use xlink:href="#DejaVuSans-72" x="914.689453"/>
     <use xlink:href="#DejaVuSans-69" x="955.802734"/>
     <use xlink:href="#DejaVuSans-65" x="983.585938"/>
     <use xlink:href="#DejaVuSans-74" x="1045.109375"/>
     <use xlink:href="#DejaVuSans-61" x="1084.318359"/>
     <use xlink:href="#DejaVuSans-6c" x="1145.597656"/>
     <use xlink:href="#DejaVuSans-20" x="1173.380859"/>
     <use xlink:href="#DejaVuSans-52" x="1205.167969"/>
     <use xlink:href="#DejaVuSans-65" x="1270.150391"/>
     <use xlink:href="#DejaVuSans-67" x="1331.673828"/>
     <use xlink:href="#DejaVuSans-69" x="1395.150391"/>
     <use xlink:href="#DejaVuSans-6f" x="1422.933594"/>
     <use xlink:href="#DejaVuSans-6e" x="1484.115234"/>
     <use xlink:href="#DejaVuSans-29" x="1547.494141"/>
    </g>
   </g>
  </g>
 </g>
 <defs>
  <clipPath id="p3bd653274a">
   <rect x="57.6" y="41.472" width="357.12" height="266.112"/>
  </clipPath>
 </defs>
</svg>
